<?xml version="1.0" encoding="UTF-8"?>
<!DOCTYPE svg PUBLIC "-//W3C//DTD SVG 1.1//EN" "http://www.w3.org/Graphics/SVG/1.1/DTD/svg11.dtd">
<svg width="160mm" height="90mm" viewBox="0 0 16000 9000" version="1.1" baseProfile="tiny" xmlns="http://www.w3.org/2000/svg" stroke-width="28.222" stroke-linejoin="round" xml:space="preserve">
 <path fill="rgb(255,255,255)" stroke="none" d="M 8000,8998 L 0,8998 0,-1 15999,-1 15999,8998 8000,8998 Z"/>
 <path fill="none" stroke="rgb(179,179,179)" stroke-linejoin="round" d="M 6528,7606 L 1497,7606 1497,1834 11559,1834 11559,7606 6528,7606 Z"/>
 <path fill="none" stroke="rgb(179,179,179)" stroke-linejoin="round" d="M 11559,7605 L 1497,7605"/>
 <path fill="none" stroke="rgb(179,179,179)" stroke-linejoin="round" d="M 11559,6642 L 1497,6642"/>
 <path fill="none" stroke="rgb(179,179,179)" stroke-linejoin="round" d="M 11559,5680 L 1497,5680"/>
 <path fill="none" stroke="rgb(179,179,179)" stroke-linejoin="round" d="M 11559,4718 L 1497,4718"/>
 <path fill="none" stroke="rgb(179,179,179)" stroke-linejoin="round" d="M 11559,3757 L 1497,3757"/>
 <path fill="none" stroke="rgb(179,179,179)" stroke-linejoin="round" d="M 11559,2795 L 1497,2795"/>
 <path fill="none" stroke="rgb(179,179,179)" stroke-linejoin="round" d="M 11559,1832 L 1497,1832"/>
 <path fill="none" stroke="rgb(179,179,179)" stroke-linejoin="round" d="M 1497,7755 L 1497,7605"/>
 <path fill="none" stroke="rgb(179,179,179)" stroke-linejoin="round" d="M 1497,7755 L 1497,7605"/>
 <path fill="none" stroke="rgb(179,179,179)" stroke-linejoin="round" d="M 1642,7755 L 1642,7605"/>
 <path fill="none" stroke="rgb(179,179,179)" stroke-linejoin="round" d="M 1642,7755 L 1642,7605"/>
 <path fill="none" stroke="rgb(179,179,179)" stroke-linejoin="round" d="M 1788,7755 L 1788,7605"/>
 <path fill="none" stroke="rgb(179,179,179)" stroke-linejoin="round" d="M 1788,7755 L 1788,7605"/>
 <path fill="none" stroke="rgb(179,179,179)" stroke-linejoin="round" d="M 1934,7755 L 1934,7605"/>
 <path fill="none" stroke="rgb(179,179,179)" stroke-linejoin="round" d="M 1934,7755 L 1934,7605"/>
 <path fill="none" stroke="rgb(179,179,179)" stroke-linejoin="round" d="M 2080,7755 L 2080,7605"/>
 <path fill="none" stroke="rgb(179,179,179)" stroke-linejoin="round" d="M 2080,7755 L 2080,7605"/>
 <path fill="none" stroke="rgb(179,179,179)" stroke-linejoin="round" d="M 2226,7755 L 2226,7605"/>
 <path fill="none" stroke="rgb(179,179,179)" stroke-linejoin="round" d="M 2226,7755 L 2226,7605"/>
 <path fill="none" stroke="rgb(179,179,179)" stroke-linejoin="round" d="M 2372,7755 L 2372,7605"/>
 <path fill="none" stroke="rgb(179,179,179)" stroke-linejoin="round" d="M 2372,7755 L 2372,7605"/>
 <path fill="none" stroke="rgb(179,179,179)" stroke-linejoin="round" d="M 2517,7755 L 2517,7605"/>
 <path fill="none" stroke="rgb(179,179,179)" stroke-linejoin="round" d="M 2517,7755 L 2517,7605"/>
 <path fill="none" stroke="rgb(179,179,179)" stroke-linejoin="round" d="M 2663,7755 L 2663,7605"/>
 <path fill="none" stroke="rgb(179,179,179)" stroke-linejoin="round" d="M 2663,7755 L 2663,7605"/>
 <path fill="none" stroke="rgb(179,179,179)" stroke-linejoin="round" d="M 2809,7755 L 2809,7605"/>
 <path fill="none" stroke="rgb(179,179,179)" stroke-linejoin="round" d="M 2809,7755 L 2809,7605"/>
 <path fill="none" stroke="rgb(179,179,179)" stroke-linejoin="round" d="M 2955,7755 L 2955,7605"/>
 <path fill="none" stroke="rgb(179,179,179)" stroke-linejoin="round" d="M 2955,7755 L 2955,7605"/>
 <path fill="none" stroke="rgb(179,179,179)" stroke-linejoin="round" d="M 3101,7755 L 3101,7605"/>
 <path fill="none" stroke="rgb(179,179,179)" stroke-linejoin="round" d="M 3101,7755 L 3101,7605"/>
 <path fill="none" stroke="rgb(179,179,179)" stroke-linejoin="round" d="M 3247,7755 L 3247,7605"/>
 <path fill="none" stroke="rgb(179,179,179)" stroke-linejoin="round" d="M 3247,7755 L 3247,7605"/>
 <path fill="none" stroke="rgb(179,179,179)" stroke-linejoin="round" d="M 3392,7755 L 3392,7605"/>
 <path fill="none" stroke="rgb(179,179,179)" stroke-linejoin="round" d="M 3392,7755 L 3392,7605"/>
 <path fill="none" stroke="rgb(179,179,179)" stroke-linejoin="round" d="M 3538,7755 L 3538,7605"/>
 <path fill="none" stroke="rgb(179,179,179)" stroke-linejoin="round" d="M 3538,7755 L 3538,7605"/>
 <path fill="none" stroke="rgb(179,179,179)" stroke-linejoin="round" d="M 3684,7755 L 3684,7605"/>
 <path fill="none" stroke="rgb(179,179,179)" stroke-linejoin="round" d="M 3684,7755 L 3684,7605"/>
 <path fill="none" stroke="rgb(179,179,179)" stroke-linejoin="round" d="M 3830,7755 L 3830,7605"/>
 <path fill="none" stroke="rgb(179,179,179)" stroke-linejoin="round" d="M 3830,7755 L 3830,7605"/>
 <path fill="none" stroke="rgb(179,179,179)" stroke-linejoin="round" d="M 3976,7755 L 3976,7605"/>
 <path fill="none" stroke="rgb(179,179,179)" stroke-linejoin="round" d="M 3976,7755 L 3976,7605"/>
 <path fill="none" stroke="rgb(179,179,179)" stroke-linejoin="round" d="M 4122,7755 L 4122,7605"/>
 <path fill="none" stroke="rgb(179,179,179)" stroke-linejoin="round" d="M 4122,7755 L 4122,7605"/>
 <path fill="none" stroke="rgb(179,179,179)" stroke-linejoin="round" d="M 4267,7755 L 4267,7605"/>
 <path fill="none" stroke="rgb(179,179,179)" stroke-linejoin="round" d="M 4267,7755 L 4267,7605"/>
 <path fill="none" stroke="rgb(179,179,179)" stroke-linejoin="round" d="M 4413,7755 L 4413,7605"/>
 <path fill="none" stroke="rgb(179,179,179)" stroke-linejoin="round" d="M 4413,7755 L 4413,7605"/>
 <path fill="none" stroke="rgb(179,179,179)" stroke-linejoin="round" d="M 4559,7755 L 4559,7605"/>
 <path fill="none" stroke="rgb(179,179,179)" stroke-linejoin="round" d="M 4559,7755 L 4559,7605"/>
 <path fill="none" stroke="rgb(179,179,179)" stroke-linejoin="round" d="M 4705,7755 L 4705,7605"/>
 <path fill="none" stroke="rgb(179,179,179)" stroke-linejoin="round" d="M 4705,7755 L 4705,7605"/>
 <path fill="none" stroke="rgb(179,179,179)" stroke-linejoin="round" d="M 4851,7755 L 4851,7605"/>
 <path fill="none" stroke="rgb(179,179,179)" stroke-linejoin="round" d="M 4851,7755 L 4851,7605"/>
 <path fill="none" stroke="rgb(179,179,179)" stroke-linejoin="round" d="M 4997,7755 L 4997,7605"/>
 <path fill="none" stroke="rgb(179,179,179)" stroke-linejoin="round" d="M 4997,7755 L 4997,7605"/>
 <path fill="none" stroke="rgb(179,179,179)" stroke-linejoin="round" d="M 5143,7755 L 5143,7605"/>
 <path fill="none" stroke="rgb(179,179,179)" stroke-linejoin="round" d="M 5143,7755 L 5143,7605"/>
 <path fill="none" stroke="rgb(179,179,179)" stroke-linejoin="round" d="M 5288,7755 L 5288,7605"/>
 <path fill="none" stroke="rgb(179,179,179)" stroke-linejoin="round" d="M 5288,7755 L 5288,7605"/>
 <path fill="none" stroke="rgb(179,179,179)" stroke-linejoin="round" d="M 5434,7755 L 5434,7605"/>
 <path fill="none" stroke="rgb(179,179,179)" stroke-linejoin="round" d="M 5434,7755 L 5434,7605"/>
 <path fill="none" stroke="rgb(179,179,179)" stroke-linejoin="round" d="M 5580,7755 L 5580,7605"/>
 <path fill="none" stroke="rgb(179,179,179)" stroke-linejoin="round" d="M 5580,7755 L 5580,7605"/>
 <path fill="none" stroke="rgb(179,179,179)" stroke-linejoin="round" d="M 5726,7755 L 5726,7605"/>
 <path fill="none" stroke="rgb(179,179,179)" stroke-linejoin="round" d="M 5726,7755 L 5726,7605"/>
 <path fill="none" stroke="rgb(179,179,179)" stroke-linejoin="round" d="M 5872,7755 L 5872,7605"/>
 <path fill="none" stroke="rgb(179,179,179)" stroke-linejoin="round" d="M 5872,7755 L 5872,7605"/>
 <path fill="none" stroke="rgb(179,179,179)" stroke-linejoin="round" d="M 6018,7755 L 6018,7605"/>
 <path fill="none" stroke="rgb(179,179,179)" stroke-linejoin="round" d="M 6018,7755 L 6018,7605"/>
 <path fill="none" stroke="rgb(179,179,179)" stroke-linejoin="round" d="M 6163,7755 L 6163,7605"/>
 <path fill="none" stroke="rgb(179,179,179)" stroke-linejoin="round" d="M 6163,7755 L 6163,7605"/>
 <path fill="none" stroke="rgb(179,179,179)" stroke-linejoin="round" d="M 6309,7755 L 6309,7605"/>
 <path fill="none" stroke="rgb(179,179,179)" stroke-linejoin="round" d="M 6309,7755 L 6309,7605"/>
 <path fill="none" stroke="rgb(179,179,179)" stroke-linejoin="round" d="M 6455,7755 L 6455,7605"/>
 <path fill="none" stroke="rgb(179,179,179)" stroke-linejoin="round" d="M 6455,7755 L 6455,7605"/>
 <path fill="none" stroke="rgb(179,179,179)" stroke-linejoin="round" d="M 6601,7755 L 6601,7605"/>
 <path fill="none" stroke="rgb(179,179,179)" stroke-linejoin="round" d="M 6601,7755 L 6601,7605"/>
 <path fill="none" stroke="rgb(179,179,179)" stroke-linejoin="round" d="M 6747,7755 L 6747,7605"/>
 <path fill="none" stroke="rgb(179,179,179)" stroke-linejoin="round" d="M 6747,7755 L 6747,7605"/>
 <path fill="none" stroke="rgb(179,179,179)" stroke-linejoin="round" d="M 6893,7755 L 6893,7605"/>
 <path fill="none" stroke="rgb(179,179,179)" stroke-linejoin="round" d="M 6893,7755 L 6893,7605"/>
 <path fill="none" stroke="rgb(179,179,179)" stroke-linejoin="round" d="M 7038,7755 L 7038,7605"/>
 <path fill="none" stroke="rgb(179,179,179)" stroke-linejoin="round" d="M 7038,7755 L 7038,7605"/>
 <path fill="none" stroke="rgb(179,179,179)" stroke-linejoin="round" d="M 7184,7755 L 7184,7605"/>
 <path fill="none" stroke="rgb(179,179,179)" stroke-linejoin="round" d="M 7184,7755 L 7184,7605"/>
 <path fill="none" stroke="rgb(179,179,179)" stroke-linejoin="round" d="M 7330,7755 L 7330,7605"/>
 <path fill="none" stroke="rgb(179,179,179)" stroke-linejoin="round" d="M 7330,7755 L 7330,7605"/>
 <path fill="none" stroke="rgb(179,179,179)" stroke-linejoin="round" d="M 7476,7755 L 7476,7605"/>
 <path fill="none" stroke="rgb(179,179,179)" stroke-linejoin="round" d="M 7476,7755 L 7476,7605"/>
 <path fill="none" stroke="rgb(179,179,179)" stroke-linejoin="round" d="M 7622,7755 L 7622,7605"/>
 <path fill="none" stroke="rgb(179,179,179)" stroke-linejoin="round" d="M 7622,7755 L 7622,7605"/>
 <path fill="none" stroke="rgb(179,179,179)" stroke-linejoin="round" d="M 7768,7755 L 7768,7605"/>
 <path fill="none" stroke="rgb(179,179,179)" stroke-linejoin="round" d="M 7768,7755 L 7768,7605"/>
 <path fill="none" stroke="rgb(179,179,179)" stroke-linejoin="round" d="M 7913,7755 L 7913,7605"/>
 <path fill="none" stroke="rgb(179,179,179)" stroke-linejoin="round" d="M 7913,7755 L 7913,7605"/>
 <path fill="none" stroke="rgb(179,179,179)" stroke-linejoin="round" d="M 8058,7755 L 8058,7605"/>
 <path fill="none" stroke="rgb(179,179,179)" stroke-linejoin="round" d="M 8058,7755 L 8058,7605"/>
 <path fill="none" stroke="rgb(179,179,179)" stroke-linejoin="round" d="M 8204,7755 L 8204,7605"/>
 <path fill="none" stroke="rgb(179,179,179)" stroke-linejoin="round" d="M 8204,7755 L 8204,7605"/>
 <path fill="none" stroke="rgb(179,179,179)" stroke-linejoin="round" d="M 8350,7755 L 8350,7605"/>
 <path fill="none" stroke="rgb(179,179,179)" stroke-linejoin="round" d="M 8350,7755 L 8350,7605"/>
 <path fill="none" stroke="rgb(179,179,179)" stroke-linejoin="round" d="M 8496,7755 L 8496,7605"/>
 <path fill="none" stroke="rgb(179,179,179)" stroke-linejoin="round" d="M 8496,7755 L 8496,7605"/>
 <path fill="none" stroke="rgb(179,179,179)" stroke-linejoin="round" d="M 8642,7755 L 8642,7605"/>
 <path fill="none" stroke="rgb(179,179,179)" stroke-linejoin="round" d="M 8642,7755 L 8642,7605"/>
 <path fill="none" stroke="rgb(179,179,179)" stroke-linejoin="round" d="M 8788,7755 L 8788,7605"/>
 <path fill="none" stroke="rgb(179,179,179)" stroke-linejoin="round" d="M 8788,7755 L 8788,7605"/>
 <path fill="none" stroke="rgb(179,179,179)" stroke-linejoin="round" d="M 8933,7755 L 8933,7605"/>
 <path fill="none" stroke="rgb(179,179,179)" stroke-linejoin="round" d="M 8933,7755 L 8933,7605"/>
 <path fill="none" stroke="rgb(179,179,179)" stroke-linejoin="round" d="M 9079,7755 L 9079,7605"/>
 <path fill="none" stroke="rgb(179,179,179)" stroke-linejoin="round" d="M 9079,7755 L 9079,7605"/>
 <path fill="none" stroke="rgb(179,179,179)" stroke-linejoin="round" d="M 9225,7755 L 9225,7605"/>
 <path fill="none" stroke="rgb(179,179,179)" stroke-linejoin="round" d="M 9225,7755 L 9225,7605"/>
 <path fill="none" stroke="rgb(179,179,179)" stroke-linejoin="round" d="M 9371,7755 L 9371,7605"/>
 <path fill="none" stroke="rgb(179,179,179)" stroke-linejoin="round" d="M 9371,7755 L 9371,7605"/>
 <path fill="none" stroke="rgb(179,179,179)" stroke-linejoin="round" d="M 9517,7755 L 9517,7605"/>
 <path fill="none" stroke="rgb(179,179,179)" stroke-linejoin="round" d="M 9517,7755 L 9517,7605"/>
 <path fill="none" stroke="rgb(179,179,179)" stroke-linejoin="round" d="M 9663,7755 L 9663,7605"/>
 <path fill="none" stroke="rgb(179,179,179)" stroke-linejoin="round" d="M 9663,7755 L 9663,7605"/>
 <path fill="none" stroke="rgb(179,179,179)" stroke-linejoin="round" d="M 9808,7755 L 9808,7605"/>
 <path fill="none" stroke="rgb(179,179,179)" stroke-linejoin="round" d="M 9808,7755 L 9808,7605"/>
 <path fill="none" stroke="rgb(179,179,179)" stroke-linejoin="round" d="M 9954,7755 L 9954,7605"/>
 <path fill="none" stroke="rgb(179,179,179)" stroke-linejoin="round" d="M 9954,7755 L 9954,7605"/>
 <path fill="none" stroke="rgb(179,179,179)" stroke-linejoin="round" d="M 10100,7755 L 10100,7605"/>
 <path fill="none" stroke="rgb(179,179,179)" stroke-linejoin="round" d="M 10100,7755 L 10100,7605"/>
 <path fill="none" stroke="rgb(179,179,179)" stroke-linejoin="round" d="M 10246,7755 L 10246,7605"/>
 <path fill="none" stroke="rgb(179,179,179)" stroke-linejoin="round" d="M 10246,7755 L 10246,7605"/>
 <path fill="none" stroke="rgb(179,179,179)" stroke-linejoin="round" d="M 10392,7755 L 10392,7605"/>
 <path fill="none" stroke="rgb(179,179,179)" stroke-linejoin="round" d="M 10392,7755 L 10392,7605"/>
 <path fill="none" stroke="rgb(179,179,179)" stroke-linejoin="round" d="M 10538,7755 L 10538,7605"/>
 <path fill="none" stroke="rgb(179,179,179)" stroke-linejoin="round" d="M 10538,7755 L 10538,7605"/>
 <path fill="none" stroke="rgb(179,179,179)" stroke-linejoin="round" d="M 10683,7755 L 10683,7605"/>
 <path fill="none" stroke="rgb(179,179,179)" stroke-linejoin="round" d="M 10683,7755 L 10683,7605"/>
 <path fill="none" stroke="rgb(179,179,179)" stroke-linejoin="round" d="M 10829,7755 L 10829,7605"/>
 <path fill="none" stroke="rgb(179,179,179)" stroke-linejoin="round" d="M 10829,7755 L 10829,7605"/>
 <path fill="none" stroke="rgb(179,179,179)" stroke-linejoin="round" d="M 10975,7755 L 10975,7605"/>
 <path fill="none" stroke="rgb(179,179,179)" stroke-linejoin="round" d="M 10975,7755 L 10975,7605"/>
 <path fill="none" stroke="rgb(179,179,179)" stroke-linejoin="round" d="M 11121,7755 L 11121,7605"/>
 <path fill="none" stroke="rgb(179,179,179)" stroke-linejoin="round" d="M 11121,7755 L 11121,7605"/>
 <path fill="none" stroke="rgb(179,179,179)" stroke-linejoin="round" d="M 11267,7755 L 11267,7605"/>
 <path fill="none" stroke="rgb(179,179,179)" stroke-linejoin="round" d="M 11267,7755 L 11267,7605"/>
 <path fill="none" stroke="rgb(179,179,179)" stroke-linejoin="round" d="M 11413,7755 L 11413,7605"/>
 <path fill="none" stroke="rgb(179,179,179)" stroke-linejoin="round" d="M 11413,7755 L 11413,7605"/>
 <path fill="none" stroke="rgb(179,179,179)" stroke-linejoin="round" d="M 11559,7755 L 11559,7605"/>
 <path fill="none" stroke="rgb(179,179,179)" stroke-linejoin="round" d="M 11559,7755 L 11559,7605"/>
 <path fill="none" stroke="rgb(179,179,179)" stroke-linejoin="round" d="M 1497,7605 L 11559,7605"/>
 <path fill="none" stroke="rgb(179,179,179)" stroke-linejoin="round" d="M 1347,7605 L 1497,7605"/>
 <path fill="none" stroke="rgb(179,179,179)" stroke-linejoin="round" d="M 1347,7605 L 1497,7605"/>
 <path fill="none" stroke="rgb(179,179,179)" stroke-linejoin="round" d="M 1347,6642 L 1497,6642"/>
 <path fill="none" stroke="rgb(179,179,179)" stroke-linejoin="round" d="M 1347,6642 L 1497,6642"/>
 <path fill="none" stroke="rgb(179,179,179)" stroke-linejoin="round" d="M 1347,5680 L 1497,5680"/>
 <path fill="none" stroke="rgb(179,179,179)" stroke-linejoin="round" d="M 1347,5680 L 1497,5680"/>
 <path fill="none" stroke="rgb(179,179,179)" stroke-linejoin="round" d="M 1347,4718 L 1497,4718"/>
 <path fill="none" stroke="rgb(179,179,179)" stroke-linejoin="round" d="M 1347,4718 L 1497,4718"/>
 <path fill="none" stroke="rgb(179,179,179)" stroke-linejoin="round" d="M 1347,3757 L 1497,3757"/>
 <path fill="none" stroke="rgb(179,179,179)" stroke-linejoin="round" d="M 1347,3757 L 1497,3757"/>
 <path fill="none" stroke="rgb(179,179,179)" stroke-linejoin="round" d="M 1347,2795 L 1497,2795"/>
 <path fill="none" stroke="rgb(179,179,179)" stroke-linejoin="round" d="M 1347,2795 L 1497,2795"/>
 <path fill="none" stroke="rgb(179,179,179)" stroke-linejoin="round" d="M 1347,1832 L 1497,1832"/>
 <path fill="none" stroke="rgb(179,179,179)" stroke-linejoin="round" d="M 1347,1832 L 1497,1832"/>
 <path fill="none" stroke="rgb(179,179,179)" stroke-linejoin="round" d="M 1497,7605 L 1497,1832"/>
 <path fill="none" stroke="rgb(0,69,134)" stroke-width="80" stroke-linejoin="round" d="M 1497,2795 L 1642,2795 1788,2795 1934,2795 2080,2795 2226,2795 2372,2795 2517,2795 2663,2795 2809,2795 2955,2795 3101,2795 3247,2795 3392,2795 3538,2795 3684,2795 3830,2795 3976,2795 4122,2795 4267,2795 4413,2795 4559,2795 4705,2795 4851,2795 4997,2795 5143,2795 5288,2795 5434,2795 5580,2795 5726,2795 5872,2795 6018,2795 6163,2795 6309,2795 6455,2795 6601,2795 6747,2795 6893,2795 7038,2795 7184,2795 7330,2795 7476,2795 7622,2795 7768,2795 7913,2795 8058,2795 8204,2795 8350,2795 8496,2795 8642,2795 8788,2795 8933,2795 9079,2795 9225,2795 9371,2795 9517,2795 9663,2795 9808,2795 9954,2795 10100,2795 10246,2795 10392,2795 10538,2795 10683,2795 10829,2795 10975,2795 11121,2795 11267,2795 11413,2795 11559,2795"/>
 <path fill="none" stroke="rgb(255,66,14)" stroke-width="80" stroke-linejoin="round" d="M 1497,2795 L 1642,2795 1788,2795 1934,2795 2080,2795 2226,2882 2372,2954 2517,3016 2663,3069 2809,3117 2955,3159 3101,3198 3247,3233 3392,3265 3538,3295 3684,3323 3830,3349 3976,3373 4122,3396 4267,3417 4413,3438 4559,3457 4705,3476 4851,3493 4997,3510 5143,3526 5288,3541 5434,3556 5580,3570 5726,3584 5872,3597 6018,3610 6163,3622 6309,3634 6455,3645 6601,3657 6747,3667 6893,3678 7038,3688 7184,3698 7330,3708 7476,3717 7622,3726 7768,3735 7913,3744 8058,3752 8204,3760 8350,3768 8496,3776 8642,3784 8788,3792 8933,3799 9079,3806 9225,3813 9371,3820 9517,3827 9663,3834 9808,3840 9954,3847 10100,3853 10246,3859 10392,3865 10538,3871 10683,3877 10829,3883 10975,3883 11121,3883 11267,3883 11413,3883 11559,3883"/>
 <path fill="none" stroke="rgb(255,211,32)" stroke-width="80" stroke-linejoin="round" d="M 1497,2795 L 1642,2795 1788,2795 1934,2795 2080,2795 2226,2967 2372,3108 2517,3226 2663,3328 2809,3417 2955,3497 3101,3567 3247,3632 3392,3690 3538,3744 3684,3793 3830,3839 3976,3882 4122,3922 4267,3960 4413,3995 4559,4028 4705,4060 4851,4090 4997,4119 5143,4146 5288,4172 5434,4197 5580,4221 5726,4244 5872,4266 6018,4287 6163,4307 6309,4327 6455,4346 6601,4364 6747,4382 6893,4399 7038,4415 7184,4432 7330,4447 7476,4462 7622,4477 7768,4491 7913,4504 8058,4518 8204,4531 8350,4544 8496,4557 8642,4569 8788,4581 8933,4593 9079,4604 9225,4615 9371,4626 9517,4637 9663,4648 9808,4658 9954,4668 10100,4678 10246,4687 10392,4697 10538,4706 10683,4715 10829,4724 10975,4724 11121,4724 11267,4724 11413,4724 11559,4724"/>
 <path fill="none" stroke="rgb(87,157,28)" stroke-width="80" stroke-linejoin="round" d="M 1497,2795 L 1642,2795 1788,2795 1934,2795 2080,2795 2226,3051 2372,3257 2517,3427 2663,3572 2809,3698 2955,3808 3101,3906 3247,3994 3392,4073 3538,4145 3684,4212 3830,4273 3976,4330 4122,4382 4267,4432 4413,4478 4559,4520 4705,4561 4851,4599 4997,4636 5143,4671 5288,4704 5434,4735 5580,4765 5726,4794 5872,4822 6018,4848 6163,4873 6309,4898 6455,4921 6601,4944 6747,4965 6893,4986 7038,5007 7184,5026 7330,5045 7476,5064 7622,5082 7768,5099 7913,5116 8058,5132 8204,5148 8350,5164 8496,5179 8642,5193 8788,5208 8933,5222 9079,5235 9225,5248 9371,5261 9517,5274 9663,5286 9808,5298 9954,5310 10100,5322 10246,5333 10392,5344 10538,5355 10683,5365 10829,5376 10975,5376 11121,5376 11267,5376 11413,5376 11559,5376"/>
 <path fill="none" stroke="rgb(126,0,33)" stroke-width="80" stroke-linejoin="round" d="M 1497,2795 L 1642,2795 1788,2795 1934,2795 2080,2795 2226,3214 2372,3540 2517,3802 2663,4020 2809,4204 2955,4362 3101,4499 3247,4621 3392,4729 3538,4827 3684,4915 3830,4995 3976,5069 4122,5137 4267,5199 4413,5257 4559,5311 4705,5361 4851,5409 4997,5453 5143,5495 5288,5534 5434,5572 5580,5607 5726,5640 5872,5672 6018,5703 6163,5732 6309,5760 6455,5786 6601,5812 6747,5836 6893,5859 7038,5882 7184,5904 7330,5924 7476,5945 7622,5964 7768,5983 7913,6001 8058,6018 8204,6035 8350,6052 8496,6068 8642,6083 8788,6098 8933,6113 9079,6127 9225,6141 9371,6154 9517,6167 9663,6180 9808,6192 9954,6204 10100,6216 10246,6227 10392,6238 10538,6249 10683,6260 10829,6270 10975,6270 11121,6270 11267,6270 11413,6270 11559,6270"/>
 <path fill="none" stroke="rgb(131,202,255)" stroke-width="80" stroke-linejoin="round" d="M 1497,2795 L 1642,2795 1788,2795 1934,2795 2080,2795 2226,3448 2372,3930 2517,4302 2663,4598 2809,4841 2955,5044 3101,5216 3247,5365 3392,5493 3538,5607 3684,5707 3830,5797 3976,5878 4122,5951 4267,6018 4413,6078 4559,6134 4705,6185 4851,6233 4997,6277 5143,6318 5288,6356 5434,6392 5580,6426 5726,6457 5872,6487 6018,6515 6163,6541 6309,6566 6455,6590 6601,6613 6747,6634 6893,6655 7038,6674 7184,6693 7330,6711 7476,6728 7622,6744 7768,6760 7913,6775 8058,6789 8204,6803 8350,6817 8496,6830 8642,6842 8788,6854 8933,6866 9079,6877 9225,6888 9371,6898 9517,6908 9663,6918 9808,6927 9954,6937 10100,6946 10246,6954 10392,6963 10538,6971 10683,6979 10829,6986 10975,6986 11121,6986 11267,6986 11413,6986 11559,6986"/>
 <path fill="none" stroke="rgb(49,64,4)" stroke-width="80" stroke-linejoin="round" d="M 1497,2795 L 1642,2795 1788,2795 1934,2795 2080,2795 2226,3810 2372,4499 2517,4993 2663,5364 2809,5651 2955,5878 3101,6063 3247,6215 3392,6343 3538,6451 3684,6544 3830,6624 3976,6695 4122,6756 4267,6811 4413,6860 4559,6903 4705,6943 4851,6978 4997,7011 5143,7040 5288,7067 5434,7092 5580,7115 5726,7136 5872,7156 6018,7174 6163,7191 6309,7206 6455,7221 6601,7235 6747,7248 6893,7260 7038,7271 7184,7282 7330,7292 7476,7302 7622,7311 7768,7320 7913,7328 8058,7336 8204,7343 8350,7350 8496,7357 8642,7363 8788,7370 8933,7375 9079,7381 9225,7386 9371,7391 9517,7396 9663,7401 9808,7406 9954,7410 10100,7414 10246,7418 10392,7422 10538,7426 10683,7430 10829,7433 10975,7433 11121,7433 11267,7433 11413,7433 11559,7433"/>
 <path fill="none" stroke="rgb(174,207,0)" stroke-width="80" stroke-linejoin="round" d="M 1497,2795 L 1642,2795 1788,2795 1934,2795 2080,2795 2226,4325 2372,5231 2517,5812 2663,6204 2809,6482 2955,6686 3101,6839 3247,6958 3392,7051 3538,7126 3684,7186 3830,7236 3976,7278 4122,7313 4267,7343 4413,7368 4559,7390 4705,7409 4851,7426 4997,7441 5143,7454 5288,7465 5434,7475 5580,7485 5726,7493 5872,7500 6018,7507 6163,7513 6309,7519 6455,7524 6601,7528 6747,7533 6893,7536 7038,7540 7184,7543 7330,7547 7476,7549 7622,7552 7768,7555 7913,7557 8058,7559 8204,7561 8350,7563 8496,7565 8642,7566 8788,7568 8933,7569 9079,7571 9225,7572 9371,7573 9517,7574 9663,7575 9808,7577 9954,7578 10100,7578 10246,7579 10392,7580 10538,7581 10683,7582 10829,7582 10975,7582 11121,7582 11267,7582 11413,7582 11559,7582"/>
 <path fill="none" stroke="rgb(75,31,111)" stroke-width="80" stroke-linejoin="round" d="M 1497,2795 L 1642,2795 1788,2795 1934,2795 2080,2795 2226,5016 2372,6072 2517,6631 2663,6952 2809,7149 2955,7275 3101,7359 3247,7418 3392,7459 3538,7490 3684,7512 3830,7529 3976,7543 4122,7553 4267,7561 4413,7568 4559,7573 4705,7578 4851,7581 4997,7584 5143,7587 5288,7589 5434,7591 5580,7592 5726,7594 5872,7595 6018,7596 6163,7597 6309,7597 6455,7598 6601,7599 6747,7599 6893,7600 7038,7600 7184,7600 7330,7601 7476,7601 7622,7601 7768,7602 7913,7602 8058,7602 8204,7602 8350,7602 8496,7602 8642,7603 8788,7603 8933,7603 9079,7603 9225,7603 9371,7603 9517,7603 9663,7603 9808,7603 9954,7603 10100,7603 10246,7604 10392,7604 10538,7604 10683,7604 10829,7604 10975,7604 11121,7604 11267,7604 11413,7604 11559,7604"/>
 <path fill="none" stroke="rgb(255,149,14)" stroke-width="80" stroke-linejoin="round" d="M 1497,2795 L 1642,2795 1788,2795 1934,2795 2080,2795 2226,5840 2372,6849 2517,7242 2663,7415 2809,7498 2955,7542 3101,7566 3247,7579 3392,7588 3538,7593 3684,7596 3830,7599 3976,7600 4122,7601 4267,7602 4413,7603 4559,7603 4705,7603 4851,7604 4997,7604 5143,7604 5288,7604 5434,7604 5580,7604 5726,7604 5872,7604 6018,7604 6163,7604 6309,7604 6455,7604 6601,7604 6747,7604 6893,7604 7038,7604 7184,7604 7330,7604 7476,7604 7622,7604 7768,7604 7913,7604 8058,7604 8204,7604 8350,7604 8496,7604 8642,7604 8788,7604 8933,7604 9079,7604 9225,7604 9371,7604 9517,7604 9663,7604 9808,7604 9954,7604 10100,7604 10246,7604 10392,7604 10538,7604 10683,7604 10829,7604 10975,7604 11121,7604 11267,7604 11413,7604 11559,7604"/>
 <path fill="none" stroke="rgb(197,0,11)" stroke-width="80" stroke-linejoin="round" d="M 1497,2795 L 1642,2795 1788,2795 1934,2795 2080,2795 2226,6655 2372,7364 2517,7531 2663,7579 2809,7594 2955,7600 3101,7603 3247,7604 3392,7604 3538,7604 3684,7604 3830,7604 3976,7604 4122,7604 4267,7604 4413,7604 4559,7604 4705,7604 4851,7604 4997,7604 5143,7604 5288,7604 5434,7604 5580,7604 5726,7604 5872,7604 6018,7604 6163,7604 6309,7604 6455,7604 6601,7604 6747,7604 6893,7604 7038,7604 7184,7604 7330,7604 7476,7604 7622,7604 7768,7604 7913,7604 8058,7604 8204,7604 8350,7604 8496,7604 8642,7604 8788,7604 8933,7604 9079,7604 9225,7604 9371,7604 9517,7604 9663,7604 9808,7604 9954,7604 10100,7604 10246,7604 10392,7604 10538,7604 10683,7604 10829,7604 10975,7604 11121,7604 11267,7604 11413,7604 11559,7604"/>
 <path fill="none" stroke="rgb(0,132,209)" stroke-width="80" stroke-linejoin="round" d="M 1497,2795 L 1642,2795 1788,2795 1934,2795 2080,2795 2226,7256 2372,7567 2517,7599 2663,7603 2809,7604 2955,7604 3101,7604 3247,7604 3392,7604 3538,7604 3684,7604 3830,7604 3976,7604 4122,7604 4267,7604 4413,7604 4559,7604 4705,7604 4851,7604 4997,7604 5143,7604 5288,7604 5434,7604 5580,7604 5726,7604 5872,7604 6018,7604 6163,7604 6309,7604 6455,7604 6601,7604 6747,7604 6893,7604 7038,7604 7184,7604 7330,7604 7476,7604 7622,7604 7768,7604 7913,7604 8058,7604 8204,7604 8350,7604 8496,7604 8642,7604 8788,7604 8933,7604 9079,7604 9225,7604 9371,7604 9517,7604 9663,7604 9808,7604 9954,7604 10100,7604 10246,7604 10392,7604 10538,7604 10683,7604 10829,7605 10975,7605 11121,7605 11267,7605 11413,7605 11559,7605"/>
 <path fill="none" stroke="rgb(0,69,134)" stroke-width="80" stroke-linejoin="round" d="M 1497,2795 L 1642,2795 1788,2795 1934,2795 2080,2795 2226,7536 2372,7603 2517,7604 2663,7604 2809,7604 2955,7604 3101,7604 3247,7604 3392,7604 3538,7604 3684,7604 3830,7604 3976,7604 4122,7604 4267,7604 4413,7604 4559,7604 4705,7604 4851,7604 4997,7605 5143,7605 5288,7605 5434,7605 5580,7605 5726,7605 5872,7605 6018,7605 6163,7605 6309,7605 6455,7605 6601,7605 6747,7605 6893,7605 7038,7605 7184,7605 7330,7605 7476,7605 7622,7605 7768,7605 7913,7605 8058,7605 8204,7605 8350,7605 8496,7605 8642,7605 8788,7605 8933,7605 9079,7605 9225,7605 9371,7605 9517,7605 9663,7605 9808,7605 9954,7605 10100,7605 10246,7605 10392,7605 10538,7605 10683,7605 10829,7605 10975,7605 11121,7605 11267,7605 11413,7605 11559,7605"/>
 <path fill="none" stroke="rgb(255,66,14)" stroke-width="80" stroke-linejoin="round" d="M 1497,2795 L 1642,2795 1788,2795 1934,2795 2080,2795 2226,7600 2372,7604 2517,7604 2663,7604 2809,7604 2955,7604 3101,7604 3247,7604 3392,7605 3538,7605 3684,7605 3830,7605 3976,7605 4122,7605 4267,7605 4413,7605 4559,7605 4705,7605 4851,7605 4997,7605 5143,7605 5288,7605 5434,7605 5580,7605 5726,7605 5872,7605 6018,7605 6163,7605 6309,7605 6455,7605 6601,7605 6747,7605 6893,7605 7038,7605 7184,7605 7330,7605 7476,7605 7622,7605 7768,7605 7913,7605 8058,7605 8204,7605 8350,7605 8496,7605 8642,7605 8788,7605 8933,7605 9079,7605 9225,7605 9371,7605 9517,7605 9663,7605 9808,7605 9954,7605 10100,7605 10246,7605 10392,7605 10538,7605 10683,7605 10829,7605 10975,7605 11121,7605 11267,7605 11413,7605 11559,7605"/>
 <path fill="none" stroke="rgb(255,211,32)" stroke-width="80" stroke-linejoin="round" d="M 1497,2795 L 1642,2795 1788,2795 1934,2795 2080,2795 2226,7604 2372,7604 2517,7604 2663,7604 2809,7605 2955,7605 3101,7605 3247,7605 3392,7605 3538,7605 3684,7605 3830,7605 3976,7605 4122,7605 4267,7605 4413,7605 4559,7605 4705,7605 4851,7605 4997,7605 5143,7605 5288,7605 5434,7605 5580,7605 5726,7605 5872,7605 6018,7605 6163,7605 6309,7605 6455,7605 6601,7605 6747,7605 6893,7605 7038,7605 7184,7605 7330,7605 7476,7605 7622,7605 7768,7605 7913,7605 8058,7605 8204,7605 8350,7605 8496,7605 8642,7605 8788,7605 8933,7605 9079,7605 9225,7605 9371,7605 9517,7605 9663,7605 9808,7605 9954,7605 10100,7605 10246,7605 10392,7605 10538,7605 10683,7605 10829,7605 10975,7605 11121,7605 11267,7605 11413,7605 11559,7605"/>
 <path fill="none" stroke="rgb(87,157,28)" stroke-width="80" stroke-linejoin="round" d="M 1497,2795 L 1642,2795 1788,2795 1934,2795 2080,2795 2226,7604 2372,7604 2517,7605 2663,7605 2809,7605 2955,7605 3101,7605 3247,7605 3392,7605 3538,7605 3684,7605 3830,7605 3976,7605 4122,7605 4267,7605 4413,7605 4559,7605 4705,7605 4851,7605 4997,7605 5143,7605 5288,7605 5434,7605 5580,7605 5726,7605 5872,7605 6018,7605 6163,7605 6309,7605 6455,7605 6601,7605 6747,7605 6893,7605 7038,7605 7184,7605 7330,7605 7476,7605 7622,7605 7768,7605 7913,7605 8058,7605 8204,7605 8350,7605 8496,7605 8642,7605 8788,7605 8933,7605 9079,7605 9225,7605 9371,7605 9517,7605 9663,7605 9808,7605 9954,7605 10100,7605 10246,7605 10392,7605 10538,7605 10683,7605 10829,7605 10975,7605 11121,7605 11267,7605 11413,7605 11559,7605"/>
 <text class="TextShape"><tspan class="TextParagraph" font-family="Liberation Sans" font-size="353px" font-weight="400"><tspan class="TextPosition" x="1062" y="7726"><tspan fill="rgb(0,0,0)" stroke="none">0</tspan></tspan></tspan></text>
 <text class="TextShape"><tspan class="TextParagraph" font-family="Liberation Sans" font-size="353px" font-weight="400"><tspan class="TextPosition" x="771" y="6763"><tspan fill="rgb(0,0,0)" stroke="none">0,2</tspan></tspan></tspan></text>
 <text class="TextShape"><tspan class="TextParagraph" font-family="Liberation Sans" font-size="353px" font-weight="400"><tspan class="TextPosition" x="771" y="5801"><tspan fill="rgb(0,0,0)" stroke="none">0,4</tspan></tspan></tspan></text>
 <text class="TextShape"><tspan class="TextParagraph" font-family="Liberation Sans" font-size="353px" font-weight="400"><tspan class="TextPosition" x="771" y="4839"><tspan fill="rgb(0,0,0)" stroke="none">0,6</tspan></tspan></tspan></text>
 <text class="TextShape"><tspan class="TextParagraph" font-family="Liberation Sans" font-size="353px" font-weight="400"><tspan class="TextPosition" x="771" y="3877"><tspan fill="rgb(0,0,0)" stroke="none">0,8</tspan></tspan></tspan></text>
 <text class="TextShape"><tspan class="TextParagraph" font-family="Liberation Sans" font-size="353px" font-weight="400"><tspan class="TextPosition" x="1062" y="2915"><tspan fill="rgb(0,0,0)" stroke="none">1</tspan></tspan></tspan></text>
 <text class="TextShape"><tspan class="TextParagraph" font-family="Liberation Sans" font-size="353px" font-weight="400"><tspan class="TextPosition" x="771" y="1952"><tspan fill="rgb(0,0,0)" stroke="none">1,2</tspan></tspan></tspan></text>
 <text class="TextShape"><tspan class="TextParagraph" font-family="Liberation Sans" font-size="459px" font-weight="400"><tspan class="TextPosition" x="3899" y="850"><tspan fill="rgb(0,0,0)" stroke="none">Exponential distance - varying rolloff factor</tspan></tspan></tspan></text>
 <path fill="none" stroke="rgb(0,69,134)" stroke-width="80" stroke-linejoin="round" d="M 12315,2755 L 13115,2755"/>
 <path fill="none" stroke="rgb(255,66,14)" stroke-width="80" stroke-linejoin="round" d="M 14110,2755 L 14910,2755"/>
 <path fill="none" stroke="rgb(255,211,32)" stroke-width="80" stroke-linejoin="round" d="M 12315,3253 L 13115,3253"/>
 <path fill="none" stroke="rgb(87,157,28)" stroke-width="80" stroke-linejoin="round" d="M 14110,3253 L 14910,3253"/>
 <path fill="none" stroke="rgb(126,0,33)" stroke-width="80" stroke-linejoin="round" d="M 12315,3751 L 13115,3751"/>
 <path fill="none" stroke="rgb(131,202,255)" stroke-width="80" stroke-linejoin="round" d="M 14110,3751 L 14910,3751"/>
 <path fill="none" stroke="rgb(49,64,4)" stroke-width="80" stroke-linejoin="round" d="M 12315,4249 L 13115,4249"/>
 <path fill="none" stroke="rgb(174,207,0)" stroke-width="80" stroke-linejoin="round" d="M 14110,4249 L 14910,4249"/>
 <path fill="none" stroke="rgb(75,31,111)" stroke-width="80" stroke-linejoin="round" d="M 12315,4746 L 13115,4746"/>
 <path fill="none" stroke="rgb(255,149,14)" stroke-width="80" stroke-linejoin="round" d="M 14110,4746 L 14910,4746"/>
 <path fill="none" stroke="rgb(197,0,11)" stroke-width="80" stroke-linejoin="round" d="M 12315,5244 L 13115,5244"/>
 <path fill="none" stroke="rgb(0,132,209)" stroke-width="80" stroke-linejoin="round" d="M 14110,5244 L 14910,5244"/>
 <path fill="none" stroke="rgb(0,69,134)" stroke-width="80" stroke-linejoin="round" d="M 12315,5742 L 13115,5742"/>
 <path fill="none" stroke="rgb(255,66,14)" stroke-width="80" stroke-linejoin="round" d="M 14110,5742 L 14910,5742"/>
 <path fill="none" stroke="rgb(255,211,32)" stroke-width="80" stroke-linejoin="round" d="M 12315,6240 L 13115,6240"/>
 <path fill="none" stroke="rgb(87,157,28)" stroke-width="80" stroke-linejoin="round" d="M 14110,6240 L 14910,6240"/>
 <text class="TextShape"><tspan class="TextParagraph" font-family="Liberation Sans" font-size="353px" font-weight="400"><tspan class="TextPosition" x="13215" y="2875"><tspan fill="rgb(0,0,0)" stroke="none">0</tspan></tspan></tspan></text>
 <text class="TextShape"><tspan class="TextParagraph" font-family="Liberation Sans" font-size="353px" font-weight="400"><tspan class="TextPosition" x="15010" y="2875"><tspan fill="rgb(0,0,0)" stroke="none">0,1</tspan></tspan></tspan></text>
 <text class="TextShape"><tspan class="TextParagraph" font-family="Liberation Sans" font-size="353px" font-weight="400"><tspan class="TextPosition" x="13215" y="3373"><tspan fill="rgb(0,0,0)" stroke="none">0,2</tspan></tspan></tspan></text>
 <text class="TextShape"><tspan class="TextParagraph" font-family="Liberation Sans" font-size="353px" font-weight="400"><tspan class="TextPosition" x="15010" y="3373"><tspan fill="rgb(0,0,0)" stroke="none">0,3</tspan></tspan></tspan></text>
 <text class="TextShape"><tspan class="TextParagraph" font-family="Liberation Sans" font-size="353px" font-weight="400"><tspan class="TextPosition" x="13215" y="3871"><tspan fill="rgb(0,0,0)" stroke="none">0,5</tspan></tspan></tspan></text>
 <text class="TextShape"><tspan class="TextParagraph" font-family="Liberation Sans" font-size="353px" font-weight="400"><tspan class="TextPosition" x="15010" y="3871"><tspan fill="rgb(0,0,0)" stroke="none">0,8</tspan></tspan></tspan></text>
 <text class="TextShape"><tspan class="TextParagraph" font-family="Liberation Sans" font-size="353px" font-weight="400"><tspan class="TextPosition" x="13215" y="4369"><tspan fill="rgb(0,0,0)" stroke="none">1,3</tspan></tspan></tspan></text>
 <text class="TextShape"><tspan class="TextParagraph" font-family="Liberation Sans" font-size="353px" font-weight="400"><tspan class="TextPosition" x="15010" y="4369"><tspan fill="rgb(0,0,0)" stroke="none">2,1</tspan></tspan></tspan></text>
 <text class="TextShape"><tspan class="TextParagraph" font-family="Liberation Sans" font-size="353px" font-weight="400"><tspan class="TextPosition" x="13215" y="4866"><tspan fill="rgb(0,0,0)" stroke="none">3,4</tspan></tspan></tspan></text>
 <text class="TextShape"><tspan class="TextParagraph" font-family="Liberation Sans" font-size="353px" font-weight="400"><tspan class="TextPosition" x="15010" y="4866"><tspan fill="rgb(0,0,0)" stroke="none">5,5</tspan></tspan></tspan></text>
 <text class="TextShape"><tspan class="TextParagraph" font-family="Liberation Sans" font-size="353px" font-weight="400"><tspan class="TextPosition" x="13215" y="5364"><tspan fill="rgb(0,0,0)" stroke="none">8,9</tspan></tspan></tspan></text>
 <text class="TextShape"><tspan class="TextParagraph" font-family="Liberation Sans" font-size="353px" font-weight="400"><tspan class="TextPosition" x="15010" y="5364"><tspan fill="rgb(0,0,0)" stroke="none">14,4</tspan></tspan></tspan></text>
 <text class="TextShape"><tspan class="TextParagraph" font-family="Liberation Sans" font-size="353px" font-weight="400"><tspan class="TextPosition" x="13215" y="5862"><tspan fill="rgb(0,0,0)" stroke="none">23,3</tspan></tspan></tspan></text>
 <text class="TextShape"><tspan class="TextParagraph" font-family="Liberation Sans" font-size="353px" font-weight="400"><tspan class="TextPosition" x="15010" y="5862"><tspan fill="rgb(0,0,0)" stroke="none">37,7</tspan></tspan></tspan></text>
 <text class="TextShape"><tspan class="TextParagraph" font-family="Liberation Sans" font-size="353px" font-weight="400"><tspan class="TextPosition" x="13215" y="6360"><tspan fill="rgb(0,0,0)" stroke="none">61</tspan></tspan></tspan></text>
 <text class="TextShape"><tspan class="TextParagraph" font-family="Liberation Sans" font-size="353px" font-weight="400"><tspan class="TextPosition" x="15010" y="6360"><tspan fill="rgb(0,0,0)" stroke="none">98,7</tspan></tspan></tspan></text>
</svg>