<?xml version="1.0" encoding="UTF-8"?>
<!DOCTYPE svg PUBLIC "-//W3C//DTD SVG 1.1//EN" "http://www.w3.org/Graphics/SVG/1.1/DTD/svg11.dtd">
<svg width="160mm" height="90mm" viewBox="0 0 16000 9000" version="1.1" baseProfile="tiny" xmlns="http://www.w3.org/2000/svg" stroke-width="28.222" stroke-linejoin="round" xml:space="preserve">
 <path fill="rgb(255,255,255)" stroke="none" d="M 8000,8998 L 0,8998 0,-1 15999,-1 15999,8998 8000,8998 Z"/>
 <path fill="none" stroke="rgb(179,179,179)" stroke-linejoin="round" d="M 6713,7606 L 1497,7606 1497,1834 11929,1834 11929,7606 6713,7606 Z"/>
 <path fill="none" stroke="rgb(179,179,179)" stroke-linejoin="round" d="M 11929,7605 L 1497,7605"/>
 <path fill="none" stroke="rgb(179,179,179)" stroke-linejoin="round" d="M 11929,6642 L 1497,6642"/>
 <path fill="none" stroke="rgb(179,179,179)" stroke-linejoin="round" d="M 11929,5680 L 1497,5680"/>
 <path fill="none" stroke="rgb(179,179,179)" stroke-linejoin="round" d="M 11929,4718 L 1497,4718"/>
 <path fill="none" stroke="rgb(179,179,179)" stroke-linejoin="round" d="M 11929,3757 L 1497,3757"/>
 <path fill="none" stroke="rgb(179,179,179)" stroke-linejoin="round" d="M 11929,2795 L 1497,2795"/>
 <path fill="none" stroke="rgb(179,179,179)" stroke-linejoin="round" d="M 11929,1832 L 1497,1832"/>
 <path fill="none" stroke="rgb(179,179,179)" stroke-linejoin="round" d="M 1497,7755 L 1497,7605"/>
 <path fill="none" stroke="rgb(179,179,179)" stroke-linejoin="round" d="M 1497,7755 L 1497,7605"/>
 <path fill="none" stroke="rgb(179,179,179)" stroke-linejoin="round" d="M 1648,7755 L 1648,7605"/>
 <path fill="none" stroke="rgb(179,179,179)" stroke-linejoin="round" d="M 1648,7755 L 1648,7605"/>
 <path fill="none" stroke="rgb(179,179,179)" stroke-linejoin="round" d="M 1799,7755 L 1799,7605"/>
 <path fill="none" stroke="rgb(179,179,179)" stroke-linejoin="round" d="M 1799,7755 L 1799,7605"/>
 <path fill="none" stroke="rgb(179,179,179)" stroke-linejoin="round" d="M 1950,7755 L 1950,7605"/>
 <path fill="none" stroke="rgb(179,179,179)" stroke-linejoin="round" d="M 1950,7755 L 1950,7605"/>
 <path fill="none" stroke="rgb(179,179,179)" stroke-linejoin="round" d="M 2101,7755 L 2101,7605"/>
 <path fill="none" stroke="rgb(179,179,179)" stroke-linejoin="round" d="M 2101,7755 L 2101,7605"/>
 <path fill="none" stroke="rgb(179,179,179)" stroke-linejoin="round" d="M 2253,7755 L 2253,7605"/>
 <path fill="none" stroke="rgb(179,179,179)" stroke-linejoin="round" d="M 2253,7755 L 2253,7605"/>
 <path fill="none" stroke="rgb(179,179,179)" stroke-linejoin="round" d="M 2404,7755 L 2404,7605"/>
 <path fill="none" stroke="rgb(179,179,179)" stroke-linejoin="round" d="M 2404,7755 L 2404,7605"/>
 <path fill="none" stroke="rgb(179,179,179)" stroke-linejoin="round" d="M 2555,7755 L 2555,7605"/>
 <path fill="none" stroke="rgb(179,179,179)" stroke-linejoin="round" d="M 2555,7755 L 2555,7605"/>
 <path fill="none" stroke="rgb(179,179,179)" stroke-linejoin="round" d="M 2706,7755 L 2706,7605"/>
 <path fill="none" stroke="rgb(179,179,179)" stroke-linejoin="round" d="M 2706,7755 L 2706,7605"/>
 <path fill="none" stroke="rgb(179,179,179)" stroke-linejoin="round" d="M 2857,7755 L 2857,7605"/>
 <path fill="none" stroke="rgb(179,179,179)" stroke-linejoin="round" d="M 2857,7755 L 2857,7605"/>
 <path fill="none" stroke="rgb(179,179,179)" stroke-linejoin="round" d="M 3009,7755 L 3009,7605"/>
 <path fill="none" stroke="rgb(179,179,179)" stroke-linejoin="round" d="M 3009,7755 L 3009,7605"/>
 <path fill="none" stroke="rgb(179,179,179)" stroke-linejoin="round" d="M 3160,7755 L 3160,7605"/>
 <path fill="none" stroke="rgb(179,179,179)" stroke-linejoin="round" d="M 3160,7755 L 3160,7605"/>
 <path fill="none" stroke="rgb(179,179,179)" stroke-linejoin="round" d="M 3311,7755 L 3311,7605"/>
 <path fill="none" stroke="rgb(179,179,179)" stroke-linejoin="round" d="M 3311,7755 L 3311,7605"/>
 <path fill="none" stroke="rgb(179,179,179)" stroke-linejoin="round" d="M 3462,7755 L 3462,7605"/>
 <path fill="none" stroke="rgb(179,179,179)" stroke-linejoin="round" d="M 3462,7755 L 3462,7605"/>
 <path fill="none" stroke="rgb(179,179,179)" stroke-linejoin="round" d="M 3613,7755 L 3613,7605"/>
 <path fill="none" stroke="rgb(179,179,179)" stroke-linejoin="round" d="M 3613,7755 L 3613,7605"/>
 <path fill="none" stroke="rgb(179,179,179)" stroke-linejoin="round" d="M 3765,7755 L 3765,7605"/>
 <path fill="none" stroke="rgb(179,179,179)" stroke-linejoin="round" d="M 3765,7755 L 3765,7605"/>
 <path fill="none" stroke="rgb(179,179,179)" stroke-linejoin="round" d="M 3916,7755 L 3916,7605"/>
 <path fill="none" stroke="rgb(179,179,179)" stroke-linejoin="round" d="M 3916,7755 L 3916,7605"/>
 <path fill="none" stroke="rgb(179,179,179)" stroke-linejoin="round" d="M 4067,7755 L 4067,7605"/>
 <path fill="none" stroke="rgb(179,179,179)" stroke-linejoin="round" d="M 4067,7755 L 4067,7605"/>
 <path fill="none" stroke="rgb(179,179,179)" stroke-linejoin="round" d="M 4218,7755 L 4218,7605"/>
 <path fill="none" stroke="rgb(179,179,179)" stroke-linejoin="round" d="M 4218,7755 L 4218,7605"/>
 <path fill="none" stroke="rgb(179,179,179)" stroke-linejoin="round" d="M 4369,7755 L 4369,7605"/>
 <path fill="none" stroke="rgb(179,179,179)" stroke-linejoin="round" d="M 4369,7755 L 4369,7605"/>
 <path fill="none" stroke="rgb(179,179,179)" stroke-linejoin="round" d="M 4521,7755 L 4521,7605"/>
 <path fill="none" stroke="rgb(179,179,179)" stroke-linejoin="round" d="M 4521,7755 L 4521,7605"/>
 <path fill="none" stroke="rgb(179,179,179)" stroke-linejoin="round" d="M 4672,7755 L 4672,7605"/>
 <path fill="none" stroke="rgb(179,179,179)" stroke-linejoin="round" d="M 4672,7755 L 4672,7605"/>
 <path fill="none" stroke="rgb(179,179,179)" stroke-linejoin="round" d="M 4823,7755 L 4823,7605"/>
 <path fill="none" stroke="rgb(179,179,179)" stroke-linejoin="round" d="M 4823,7755 L 4823,7605"/>
 <path fill="none" stroke="rgb(179,179,179)" stroke-linejoin="round" d="M 4974,7755 L 4974,7605"/>
 <path fill="none" stroke="rgb(179,179,179)" stroke-linejoin="round" d="M 4974,7755 L 4974,7605"/>
 <path fill="none" stroke="rgb(179,179,179)" stroke-linejoin="round" d="M 5125,7755 L 5125,7605"/>
 <path fill="none" stroke="rgb(179,179,179)" stroke-linejoin="round" d="M 5125,7755 L 5125,7605"/>
 <path fill="none" stroke="rgb(179,179,179)" stroke-linejoin="round" d="M 5277,7755 L 5277,7605"/>
 <path fill="none" stroke="rgb(179,179,179)" stroke-linejoin="round" d="M 5277,7755 L 5277,7605"/>
 <path fill="none" stroke="rgb(179,179,179)" stroke-linejoin="round" d="M 5428,7755 L 5428,7605"/>
 <path fill="none" stroke="rgb(179,179,179)" stroke-linejoin="round" d="M 5428,7755 L 5428,7605"/>
 <path fill="none" stroke="rgb(179,179,179)" stroke-linejoin="round" d="M 5579,7755 L 5579,7605"/>
 <path fill="none" stroke="rgb(179,179,179)" stroke-linejoin="round" d="M 5579,7755 L 5579,7605"/>
 <path fill="none" stroke="rgb(179,179,179)" stroke-linejoin="round" d="M 5730,7755 L 5730,7605"/>
 <path fill="none" stroke="rgb(179,179,179)" stroke-linejoin="round" d="M 5730,7755 L 5730,7605"/>
 <path fill="none" stroke="rgb(179,179,179)" stroke-linejoin="round" d="M 5881,7755 L 5881,7605"/>
 <path fill="none" stroke="rgb(179,179,179)" stroke-linejoin="round" d="M 5881,7755 L 5881,7605"/>
 <path fill="none" stroke="rgb(179,179,179)" stroke-linejoin="round" d="M 6033,7755 L 6033,7605"/>
 <path fill="none" stroke="rgb(179,179,179)" stroke-linejoin="round" d="M 6033,7755 L 6033,7605"/>
 <path fill="none" stroke="rgb(179,179,179)" stroke-linejoin="round" d="M 6184,7755 L 6184,7605"/>
 <path fill="none" stroke="rgb(179,179,179)" stroke-linejoin="round" d="M 6184,7755 L 6184,7605"/>
 <path fill="none" stroke="rgb(179,179,179)" stroke-linejoin="round" d="M 6335,7755 L 6335,7605"/>
 <path fill="none" stroke="rgb(179,179,179)" stroke-linejoin="round" d="M 6335,7755 L 6335,7605"/>
 <path fill="none" stroke="rgb(179,179,179)" stroke-linejoin="round" d="M 6486,7755 L 6486,7605"/>
 <path fill="none" stroke="rgb(179,179,179)" stroke-linejoin="round" d="M 6486,7755 L 6486,7605"/>
 <path fill="none" stroke="rgb(179,179,179)" stroke-linejoin="round" d="M 6637,7755 L 6637,7605"/>
 <path fill="none" stroke="rgb(179,179,179)" stroke-linejoin="round" d="M 6637,7755 L 6637,7605"/>
 <path fill="none" stroke="rgb(179,179,179)" stroke-linejoin="round" d="M 6789,7755 L 6789,7605"/>
 <path fill="none" stroke="rgb(179,179,179)" stroke-linejoin="round" d="M 6789,7755 L 6789,7605"/>
 <path fill="none" stroke="rgb(179,179,179)" stroke-linejoin="round" d="M 6940,7755 L 6940,7605"/>
 <path fill="none" stroke="rgb(179,179,179)" stroke-linejoin="round" d="M 6940,7755 L 6940,7605"/>
 <path fill="none" stroke="rgb(179,179,179)" stroke-linejoin="round" d="M 7091,7755 L 7091,7605"/>
 <path fill="none" stroke="rgb(179,179,179)" stroke-linejoin="round" d="M 7091,7755 L 7091,7605"/>
 <path fill="none" stroke="rgb(179,179,179)" stroke-linejoin="round" d="M 7242,7755 L 7242,7605"/>
 <path fill="none" stroke="rgb(179,179,179)" stroke-linejoin="round" d="M 7242,7755 L 7242,7605"/>
 <path fill="none" stroke="rgb(179,179,179)" stroke-linejoin="round" d="M 7393,7755 L 7393,7605"/>
 <path fill="none" stroke="rgb(179,179,179)" stroke-linejoin="round" d="M 7393,7755 L 7393,7605"/>
 <path fill="none" stroke="rgb(179,179,179)" stroke-linejoin="round" d="M 7545,7755 L 7545,7605"/>
 <path fill="none" stroke="rgb(179,179,179)" stroke-linejoin="round" d="M 7545,7755 L 7545,7605"/>
 <path fill="none" stroke="rgb(179,179,179)" stroke-linejoin="round" d="M 7696,7755 L 7696,7605"/>
 <path fill="none" stroke="rgb(179,179,179)" stroke-linejoin="round" d="M 7696,7755 L 7696,7605"/>
 <path fill="none" stroke="rgb(179,179,179)" stroke-linejoin="round" d="M 7847,7755 L 7847,7605"/>
 <path fill="none" stroke="rgb(179,179,179)" stroke-linejoin="round" d="M 7847,7755 L 7847,7605"/>
 <path fill="none" stroke="rgb(179,179,179)" stroke-linejoin="round" d="M 7998,7755 L 7998,7605"/>
 <path fill="none" stroke="rgb(179,179,179)" stroke-linejoin="round" d="M 7998,7755 L 7998,7605"/>
 <path fill="none" stroke="rgb(179,179,179)" stroke-linejoin="round" d="M 8148,7755 L 8148,7605"/>
 <path fill="none" stroke="rgb(179,179,179)" stroke-linejoin="round" d="M 8148,7755 L 8148,7605"/>
 <path fill="none" stroke="rgb(179,179,179)" stroke-linejoin="round" d="M 8300,7755 L 8300,7605"/>
 <path fill="none" stroke="rgb(179,179,179)" stroke-linejoin="round" d="M 8300,7755 L 8300,7605"/>
 <path fill="none" stroke="rgb(179,179,179)" stroke-linejoin="round" d="M 8451,7755 L 8451,7605"/>
 <path fill="none" stroke="rgb(179,179,179)" stroke-linejoin="round" d="M 8451,7755 L 8451,7605"/>
 <path fill="none" stroke="rgb(179,179,179)" stroke-linejoin="round" d="M 8602,7755 L 8602,7605"/>
 <path fill="none" stroke="rgb(179,179,179)" stroke-linejoin="round" d="M 8602,7755 L 8602,7605"/>
 <path fill="none" stroke="rgb(179,179,179)" stroke-linejoin="round" d="M 8753,7755 L 8753,7605"/>
 <path fill="none" stroke="rgb(179,179,179)" stroke-linejoin="round" d="M 8753,7755 L 8753,7605"/>
 <path fill="none" stroke="rgb(179,179,179)" stroke-linejoin="round" d="M 8904,7755 L 8904,7605"/>
 <path fill="none" stroke="rgb(179,179,179)" stroke-linejoin="round" d="M 8904,7755 L 8904,7605"/>
 <path fill="none" stroke="rgb(179,179,179)" stroke-linejoin="round" d="M 9056,7755 L 9056,7605"/>
 <path fill="none" stroke="rgb(179,179,179)" stroke-linejoin="round" d="M 9056,7755 L 9056,7605"/>
 <path fill="none" stroke="rgb(179,179,179)" stroke-linejoin="round" d="M 9207,7755 L 9207,7605"/>
 <path fill="none" stroke="rgb(179,179,179)" stroke-linejoin="round" d="M 9207,7755 L 9207,7605"/>
 <path fill="none" stroke="rgb(179,179,179)" stroke-linejoin="round" d="M 9358,7755 L 9358,7605"/>
 <path fill="none" stroke="rgb(179,179,179)" stroke-linejoin="round" d="M 9358,7755 L 9358,7605"/>
 <path fill="none" stroke="rgb(179,179,179)" stroke-linejoin="round" d="M 9509,7755 L 9509,7605"/>
 <path fill="none" stroke="rgb(179,179,179)" stroke-linejoin="round" d="M 9509,7755 L 9509,7605"/>
 <path fill="none" stroke="rgb(179,179,179)" stroke-linejoin="round" d="M 9660,7755 L 9660,7605"/>
 <path fill="none" stroke="rgb(179,179,179)" stroke-linejoin="round" d="M 9660,7755 L 9660,7605"/>
 <path fill="none" stroke="rgb(179,179,179)" stroke-linejoin="round" d="M 9812,7755 L 9812,7605"/>
 <path fill="none" stroke="rgb(179,179,179)" stroke-linejoin="round" d="M 9812,7755 L 9812,7605"/>
 <path fill="none" stroke="rgb(179,179,179)" stroke-linejoin="round" d="M 9963,7755 L 9963,7605"/>
 <path fill="none" stroke="rgb(179,179,179)" stroke-linejoin="round" d="M 9963,7755 L 9963,7605"/>
 <path fill="none" stroke="rgb(179,179,179)" stroke-linejoin="round" d="M 10114,7755 L 10114,7605"/>
 <path fill="none" stroke="rgb(179,179,179)" stroke-linejoin="round" d="M 10114,7755 L 10114,7605"/>
 <path fill="none" stroke="rgb(179,179,179)" stroke-linejoin="round" d="M 10265,7755 L 10265,7605"/>
 <path fill="none" stroke="rgb(179,179,179)" stroke-linejoin="round" d="M 10265,7755 L 10265,7605"/>
 <path fill="none" stroke="rgb(179,179,179)" stroke-linejoin="round" d="M 10416,7755 L 10416,7605"/>
 <path fill="none" stroke="rgb(179,179,179)" stroke-linejoin="round" d="M 10416,7755 L 10416,7605"/>
 <path fill="none" stroke="rgb(179,179,179)" stroke-linejoin="round" d="M 10568,7755 L 10568,7605"/>
 <path fill="none" stroke="rgb(179,179,179)" stroke-linejoin="round" d="M 10568,7755 L 10568,7605"/>
 <path fill="none" stroke="rgb(179,179,179)" stroke-linejoin="round" d="M 10719,7755 L 10719,7605"/>
 <path fill="none" stroke="rgb(179,179,179)" stroke-linejoin="round" d="M 10719,7755 L 10719,7605"/>
 <path fill="none" stroke="rgb(179,179,179)" stroke-linejoin="round" d="M 10870,7755 L 10870,7605"/>
 <path fill="none" stroke="rgb(179,179,179)" stroke-linejoin="round" d="M 10870,7755 L 10870,7605"/>
 <path fill="none" stroke="rgb(179,179,179)" stroke-linejoin="round" d="M 11021,7755 L 11021,7605"/>
 <path fill="none" stroke="rgb(179,179,179)" stroke-linejoin="round" d="M 11021,7755 L 11021,7605"/>
 <path fill="none" stroke="rgb(179,179,179)" stroke-linejoin="round" d="M 11172,7755 L 11172,7605"/>
 <path fill="none" stroke="rgb(179,179,179)" stroke-linejoin="round" d="M 11172,7755 L 11172,7605"/>
 <path fill="none" stroke="rgb(179,179,179)" stroke-linejoin="round" d="M 11324,7755 L 11324,7605"/>
 <path fill="none" stroke="rgb(179,179,179)" stroke-linejoin="round" d="M 11324,7755 L 11324,7605"/>
 <path fill="none" stroke="rgb(179,179,179)" stroke-linejoin="round" d="M 11475,7755 L 11475,7605"/>
 <path fill="none" stroke="rgb(179,179,179)" stroke-linejoin="round" d="M 11475,7755 L 11475,7605"/>
 <path fill="none" stroke="rgb(179,179,179)" stroke-linejoin="round" d="M 11626,7755 L 11626,7605"/>
 <path fill="none" stroke="rgb(179,179,179)" stroke-linejoin="round" d="M 11626,7755 L 11626,7605"/>
 <path fill="none" stroke="rgb(179,179,179)" stroke-linejoin="round" d="M 11777,7755 L 11777,7605"/>
 <path fill="none" stroke="rgb(179,179,179)" stroke-linejoin="round" d="M 11777,7755 L 11777,7605"/>
 <path fill="none" stroke="rgb(179,179,179)" stroke-linejoin="round" d="M 11929,7755 L 11929,7605"/>
 <path fill="none" stroke="rgb(179,179,179)" stroke-linejoin="round" d="M 11929,7755 L 11929,7605"/>
 <path fill="none" stroke="rgb(179,179,179)" stroke-linejoin="round" d="M 1497,7605 L 11929,7605"/>
 <path fill="none" stroke="rgb(179,179,179)" stroke-linejoin="round" d="M 1347,7605 L 1497,7605"/>
 <path fill="none" stroke="rgb(179,179,179)" stroke-linejoin="round" d="M 1347,7605 L 1497,7605"/>
 <path fill="none" stroke="rgb(179,179,179)" stroke-linejoin="round" d="M 1347,6642 L 1497,6642"/>
 <path fill="none" stroke="rgb(179,179,179)" stroke-linejoin="round" d="M 1347,6642 L 1497,6642"/>
 <path fill="none" stroke="rgb(179,179,179)" stroke-linejoin="round" d="M 1347,5680 L 1497,5680"/>
 <path fill="none" stroke="rgb(179,179,179)" stroke-linejoin="round" d="M 1347,5680 L 1497,5680"/>
 <path fill="none" stroke="rgb(179,179,179)" stroke-linejoin="round" d="M 1347,4718 L 1497,4718"/>
 <path fill="none" stroke="rgb(179,179,179)" stroke-linejoin="round" d="M 1347,4718 L 1497,4718"/>
 <path fill="none" stroke="rgb(179,179,179)" stroke-linejoin="round" d="M 1347,3757 L 1497,3757"/>
 <path fill="none" stroke="rgb(179,179,179)" stroke-linejoin="round" d="M 1347,3757 L 1497,3757"/>
 <path fill="none" stroke="rgb(179,179,179)" stroke-linejoin="round" d="M 1347,2795 L 1497,2795"/>
 <path fill="none" stroke="rgb(179,179,179)" stroke-linejoin="round" d="M 1347,2795 L 1497,2795"/>
 <path fill="none" stroke="rgb(179,179,179)" stroke-linejoin="round" d="M 1347,1832 L 1497,1832"/>
 <path fill="none" stroke="rgb(179,179,179)" stroke-linejoin="round" d="M 1347,1832 L 1497,1832"/>
 <path fill="none" stroke="rgb(179,179,179)" stroke-linejoin="round" d="M 1497,7605 L 1497,1832"/>
 <path fill="none" stroke="rgb(0,69,134)" stroke-width="80" stroke-linejoin="round" d="M 1497,2795 L 1648,2795 1799,4398 1950,5199 2101,5680 2253,6001 2404,6230 2555,6402 2706,6535 2857,6642 3009,6730 3160,6803 3311,6864 3462,6917 3613,6963 3765,7003 3916,7039 4067,7070 4218,7098 4369,7123 4521,7146 4672,7167 4823,7186 4974,7204 5125,7220 5277,7234 5428,7248 5579,7261 5730,7273 5881,7284 6033,7294 6184,7304 6335,7313 6486,7322 6637,7330 6789,7337 6940,7344 7091,7351 7242,7358 7393,7364 7545,7370 7696,7375 7847,7381 7998,7386 8148,7391 8300,7395 8451,7400 8602,7404 8753,7408 8904,7412 9056,7416 9207,7419 9358,7423 9509,7426 9660,7430 9812,7433 9963,7436 10114,7439 10265,7441 10416,7444 10568,7447 10719,7449 10870,7452 11021,7454 11172,7456 11324,7456 11475,7456 11626,7456 11777,7456 11929,7456"/>
 <path fill="none" stroke="rgb(255,66,14)" stroke-width="80" stroke-linejoin="round" d="M 1497,2795 L 1648,2795 1799,2795 1950,2795 2101,3757 2253,4398 2404,4855 2555,5199 2706,5466 2857,5680 3009,5855 3160,6001 3311,6124 3462,6230 3613,6322 3765,6402 3916,6473 4067,6535 4218,6592 4369,6642 4521,6688 4672,6730 4823,6768 4974,6803 5125,6835 5277,6864 5428,6892 5579,6917 5730,6941 5881,6963 6033,6984 6184,7003 6335,7021 6486,7039 6637,7055 6789,7070 6940,7084 7091,7098 7242,7111 7393,7123 7545,7135 7696,7146 7847,7157 7998,7167 8148,7177 8300,7186 8451,7195 8602,7204 8753,7212 8904,7220 9056,7227 9207,7234 9358,7241 9509,7248 9660,7255 9812,7261 9963,7267 10114,7273 10265,7278 10416,7284 10568,7289 10719,7294 10870,7299 11021,7304 11172,7308 11324,7308 11475,7308 11626,7308 11777,7308 11929,7308"/>
 <path fill="none" stroke="rgb(255,211,32)" stroke-width="80" stroke-linejoin="round" d="M 1497,2795 L 1648,2795 1799,2795 1950,2795 2101,2795 2253,2795 2404,3482 2555,3997 2706,4398 2857,4718 3009,4980 3160,5199 3311,5384 3462,5543 3613,5680 3765,5800 3916,5907 4067,6001 4218,6085 4369,6161 4521,6230 4672,6292 4823,6350 4974,6402 5125,6450 5277,6494 5428,6535 5579,6574 5730,6609 5881,6642 6033,6673 6184,6702 6335,6730 6486,6756 6637,6780 6789,6803 6940,6824 7091,6845 7242,6864 7393,6883 7545,6900 7696,6917 7847,6933 7998,6948 8148,6963 8300,6977 8451,6990 8602,7003 8753,7015 8904,7027 9056,7039 9207,7049 9358,7060 9509,7070 9660,7080 9812,7089 9963,7098 10114,7107 10265,7115 10416,7123 10568,7131 10719,7139 10870,7146 11021,7153 11172,7160 11324,7160 11475,7160 11626,7160 11777,7160 11929,7160"/>
 <path fill="none" stroke="rgb(87,157,28)" stroke-width="80" stroke-linejoin="round" d="M 1497,2795 L 1648,2795 1799,2795 1950,2795 2101,2795 2253,2795 2404,2795 2555,2795 2706,3329 2857,3757 3009,4107 3160,4398 3311,4644 3462,4855 3613,5039 3765,5199 3916,5341 4067,5466 4218,5579 4369,5680 4521,5772 4672,5855 4823,5931 4974,6001 5125,6065 5277,6124 5428,6179 5579,6230 5730,6277 5881,6322 6033,6363 6184,6402 6335,6438 6486,6473 6637,6505 6789,6535 6940,6564 7091,6592 7242,6618 7393,6642 7545,6666 7696,6688 7847,6709 7998,6730 8148,6749 8300,6768 8451,6786 8602,6803 8753,6819 8904,6835 9056,6850 9207,6864 9358,6878 9509,6892 9660,6905 9812,6917 9963,6929 10114,6941 10265,6952 10416,6963 10568,6974 10719,6984 10870,6994 11021,7003 11172,7012 11324,7012 11475,7012 11626,7012 11777,7012 11929,7012"/>
 <path fill="none" stroke="rgb(126,0,33)" stroke-width="80" stroke-linejoin="round" d="M 1497,2795 L 1648,2795 1799,2795 1950,2795 2101,2795 2253,2795 2404,2795 2555,2795 2706,2795 2857,2795 3009,3232 3160,3596 3311,3905 3462,4169 3613,4398 3765,4598 3916,4775 4067,4932 4218,5072 4369,5199 4521,5314 4672,5418 4823,5513 4974,5600 5125,5680 5277,5754 5428,5823 5579,5886 5730,5946 5881,6001 6033,6053 6184,6101 6335,6147 6486,6190 6637,6230 6789,6268 6940,6304 7091,6338 7242,6371 7393,6402 7545,6431 7696,6459 7847,6486 7998,6511 8148,6535 8300,6559 8451,6581 8602,6602 8753,6623 8904,6642 9056,6661 9207,6679 9358,6697 9509,6714 9660,6730 9812,6745 9963,6760 10114,6775 10265,6789 10416,6803 10568,6816 10719,6829 10870,6841 11021,6853 11172,6864 11324,6864 11475,6864 11626,6864 11777,6864 11929,6864"/>
 <path fill="none" stroke="rgb(131,202,255)" stroke-width="80" stroke-linejoin="round" d="M 1497,2795 L 1648,2795 1799,2795 1950,2795 2101,2795 2253,2795 2404,2795 2555,2795 2706,2795 2857,2795 3009,2795 3160,2795 3311,3165 3462,3482 3613,3757 3765,3997 3916,4210 4067,4398 4218,4566 4369,4718 4521,4855 4672,4980 4823,5095 4974,5199 5125,5295 5277,5384 5428,5466 5579,5543 5730,5614 5881,5680 6033,5742 6184,5800 6335,5855 6486,5907 6637,5955 6789,6001 6940,6044 7091,6085 7242,6124 7393,6161 7545,6196 7696,6230 7847,6262 7998,6292 8148,6322 8300,6350 8451,6376 8602,6402 8753,6426 8904,6450 9056,6473 9207,6494 9358,6515 9509,6535 9660,6555 9812,6574 9963,6592 10114,6609 10265,6626 10416,6642 10568,6658 10719,6673 10870,6688 11021,6702 11172,6716 11324,6716 11475,6716 11626,6716 11777,6716 11929,6716"/>
 <path fill="none" stroke="rgb(49,64,4)" stroke-width="80" stroke-linejoin="round" d="M 1497,2795 L 1648,2795 1799,2795 1950,2795 2101,2795 2253,2795 2404,2795 2555,2795 2706,2795 2857,2795 3009,2795 3160,2795 3311,2795 3462,2795 3613,3115 3765,3396 3916,3644 4067,3864 4218,4061 4369,4238 4521,4398 4672,4543 4823,4676 4974,4798 5125,4910 5277,5014 5428,5110 5579,5199 5730,5282 5881,5359 6033,5432 6184,5500 6335,5564 6486,5624 6637,5680 6789,5734 6940,5784 7091,5832 7242,5878 7393,5921 7545,5962 7696,6001 7847,6038 7998,6074 8148,6108 8300,6140 8451,6171 8602,6201 8753,6230 8904,6257 9056,6284 9207,6309 9358,6334 9509,6357 9660,6380 9812,6402 9963,6423 10114,6443 10265,6463 10416,6482 10568,6500 10719,6518 10870,6535 11021,6552 11172,6568 11324,6568 11475,6568 11626,6568 11777,6568 11929,6568"/>
 <path fill="none" stroke="rgb(174,207,0)" stroke-width="80" stroke-linejoin="round" d="M 1497,2795 L 1648,2795 1799,2795 1950,2795 2101,2795 2253,2795 2404,2795 2555,2795 2706,2795 2857,2795 3009,2795 3160,2795 3311,2795 3462,2795 3613,2795 3765,2795 3916,3078 4067,3329 4218,3554 4369,3757 4521,3940 4672,4107 4823,4259 4974,4398 5125,4526 5277,4644 5428,4754 5579,4855 5730,4950 5881,5039 6033,5121 6184,5199 6335,5272 6486,5341 6637,5405 6789,5466 6940,5524 7091,5579 7242,5631 7393,5680 7545,5727 7696,5772 7847,5814 7998,5855 8148,5894 8300,5931 8451,5967 8602,6001 8753,6034 8904,6065 9056,6095 9207,6124 9358,6152 9509,6179 9660,6205 9812,6230 9963,6254 10114,6277 10265,6300 10416,6322 10568,6343 10719,6363 10870,6383 11021,6402 11172,6420 11324,6420 11475,6420 11626,6420 11777,6420 11929,6420"/>
 <path fill="none" stroke="rgb(75,31,111)" stroke-width="80" stroke-linejoin="round" d="M 1497,2795 L 1648,2795 1799,2795 1950,2795 2101,2795 2253,2795 2404,2795 2555,2795 2706,2795 2857,2795 3009,2795 3160,2795 3311,2795 3462,2795 3613,2795 3765,2795 3916,2795 4067,2795 4218,3048 4369,3276 4521,3482 4672,3669 4823,3841 4974,3997 5125,4142 5277,4275 5428,4398 5579,4512 5730,4618 5881,4718 6033,4811 6184,4898 6335,4980 6486,5058 6637,5130 6789,5199 6940,5264 7091,5326 7242,5384 7393,5440 7545,5492 7696,5543 7847,5591 7998,5636 8148,5680 8300,5722 8451,5762 8602,5800 8753,5837 8904,5873 9056,5907 9207,5939 9358,5971 9509,6001 9660,6030 9812,6058 9963,6085 10114,6111 10265,6137 10416,6161 10568,6185 10719,6208 10870,6230 11021,6251 11172,6272 11324,6272 11475,6272 11626,6272 11777,6272 11929,6272"/>
 <path fill="none" stroke="rgb(255,149,14)" stroke-width="80" stroke-linejoin="round" d="M 1497,2795 L 1648,2795 1799,2795 1950,2795 2101,2795 2253,2795 2404,2795 2555,2795 2706,2795 2857,2795 3009,2795 3160,2795 3311,2795 3462,2795 3613,2795 3765,2795 3916,2795 4067,2795 4218,2795 4369,2795 4521,3024 4672,3232 4823,3422 4974,3596 5125,3757 5277,3905 5428,4042 5579,4169 5730,4288 5881,4398 6033,4501 6184,4598 6335,4689 6486,4775 6637,4855 6789,4932 6940,5004 7091,5072 7242,5137 7393,5199 7545,5258 7696,5314 7847,5367 7998,5418 8148,5466 8300,5513 8451,5557 8602,5600 8753,5641 8904,5680 9056,5718 9207,5754 9358,5789 9509,5823 9660,5855 9812,5886 9963,5916 10114,5946 10265,5974 10416,6001 10568,6027 10719,6053 10870,6077 11021,6101 11172,6124 11324,6124 11475,6124 11626,6124 11777,6124 11929,6124"/>
 <path fill="none" stroke="rgb(197,0,11)" stroke-width="80" stroke-linejoin="round" d="M 1497,2795 L 1648,2795 1799,2795 1950,2795 2101,2795 2253,2795 2404,2795 2555,2795 2706,2795 2857,2795 3009,2795 3160,2795 3311,2795 3462,2795 3613,2795 3765,2795 3916,2795 4067,2795 4218,2795 4369,2795 4521,2795 4672,2795 4823,3004 4974,3196 5125,3372 5277,3535 5428,3686 5579,3826 5730,3956 5881,4078 6033,4191 6184,4298 6335,4398 6486,4493 6637,4581 6789,4665 6940,4744 7091,4819 7242,4891 7393,4959 7545,5023 7696,5085 7847,5143 7998,5199 8148,5253 8300,5304 8451,5353 8602,5400 8753,5445 8904,5488 9056,5529 9207,5569 9358,5608 9509,5645 9660,5680 9812,5715 9963,5748 10114,5780 10265,5811 10416,5841 10568,5869 10719,5897 10870,5925 11021,5951 11172,5976 11324,5976 11475,5976 11626,5976 11777,5976 11929,5976"/>
 <path fill="none" stroke="rgb(0,132,209)" stroke-width="80" stroke-linejoin="round" d="M 1497,2795 L 1648,2795 1799,2795 1950,2795 2101,2795 2253,2795 2404,2795 2555,2795 2706,2795 2857,2795 3009,2795 3160,2795 3311,2795 3462,2795 3613,2795 3765,2795 3916,2795 4067,2795 4218,2795 4369,2795 4521,2795 4672,2795 4823,2795 4974,2795 5125,2987 5277,3165 5428,3329 5579,3482 5730,3624 5881,3757 6033,3881 6184,3997 6335,4107 6486,4210 6637,4307 6789,4398 6940,4485 7091,4566 7242,4644 7393,4718 7545,4788 7696,4855 7847,4919 7998,4980 8148,5039 8300,5095 8451,5148 8602,5199 8753,5248 8904,5295 9056,5341 9207,5384 9358,5426 9509,5466 9660,5505 9812,5543 9963,5579 10114,5614 10265,5648 10416,5680 10568,5712 10719,5742 10870,5772 11021,5800 11172,5828 11324,5828 11475,5828 11626,5828 11777,5828 11929,5828"/>
 <path fill="none" stroke="rgb(0,69,134)" stroke-width="80" stroke-linejoin="round" d="M 1497,2795 L 1648,2795 1799,2795 1950,2795 2101,2795 2253,2795 2404,2795 2555,2795 2706,2795 2857,2795 3009,2795 3160,2795 3311,2795 3462,2795 3613,2795 3765,2795 3916,2795 4067,2795 4218,2795 4369,2795 4521,2795 4672,2795 4823,2795 4974,2795 5125,2795 5277,2795 5428,2973 5579,3138 5730,3292 5881,3436 6033,3571 6184,3697 6335,3815 6486,3927 6637,4032 6789,4131 6940,4225 7091,4314 7242,4398 7393,4478 7545,4554 7696,4626 7847,4696 7998,4762 8148,4825 8300,4885 8451,4943 8602,4999 8753,5052 8904,5103 9056,5152 9207,5199 9358,5244 9509,5288 9660,5330 9812,5371 9963,5410 10114,5448 10265,5484 10416,5520 10568,5554 10719,5587 10870,5619 11021,5650 11172,5680 11324,5680 11475,5680 11626,5680 11777,5680 11929,5680"/>
 <path fill="none" stroke="rgb(255,66,14)" stroke-width="80" stroke-linejoin="round" d="M 1497,2795 L 1648,2795 1799,2795 1950,2795 2101,2795 2253,2795 2404,2795 2555,2795 2706,2795 2857,2795 3009,2795 3160,2795 3311,2795 3462,2795 3613,2795 3765,2795 3916,2795 4067,2795 4218,2795 4369,2795 4521,2795 4672,2795 4823,2795 4974,2795 5125,2795 5277,2795 5428,2795 5579,2795 5730,2961 5881,3115 6033,3260 6184,3396 6335,3524 6486,3644 6637,3757 6789,3864 6940,3965 7091,4061 7242,4152 7393,4238 7545,4320 7696,4398 7847,4473 7998,4543 8148,4611 8300,4676 8451,4738 8602,4798 8753,4855 8904,4910 9056,4963 9207,5014 9358,5063 9509,5110 9660,5155 9812,5199 9963,5241 10114,5282 10265,5321 10416,5359 10568,5396 10719,5432 10870,5466 11021,5500 11172,5532 11324,5532 11475,5532 11626,5532 11777,5532 11929,5532"/>
 <path fill="none" stroke="rgb(255,211,32)" stroke-width="80" stroke-linejoin="round" d="M 1497,2795 L 1648,2795 1799,2795 1950,2795 2101,2795 2253,2795 2404,2795 2555,2795 2706,2795 2857,2795 3009,2795 3160,2795 3311,2795 3462,2795 3613,2795 3765,2795 3916,2795 4067,2795 4218,2795 4369,2795 4521,2795 4672,2795 4823,2795 4974,2795 5125,2795 5277,2795 5428,2795 5579,2795 5730,2795 5881,2795 6033,2950 6184,3095 6335,3232 6486,3361 6637,3482 6789,3596 6940,3705 7091,3807 7242,3905 7393,3997 7545,4085 7696,4169 7847,4249 7998,4325 8148,4398 8300,4468 8451,4534 8602,4598 8753,4659 8904,4718 9056,4775 9207,4829 9358,4881 9509,4932 9660,4980 9812,5027 9963,5072 10114,5116 10265,5158 10416,5199 10568,5239 10719,5277 10870,5314 11021,5349 11172,5384 11324,5384 11475,5384 11626,5384 11777,5384 11929,5384"/>
 <path fill="none" stroke="rgb(87,157,28)" stroke-width="80" stroke-linejoin="round" d="M 1497,2795 L 1648,2795 1799,2795 1950,2795 2101,2795 2253,2795 2404,2795 2555,2795 2706,2795 2857,2795 3009,2795 3160,2795 3311,2795 3462,2795 3613,2795 3765,2795 3916,2795 4067,2795 4218,2795 4369,2795 4521,2795 4672,2795 4823,2795 4974,2795 5125,2795 5277,2795 5428,2795 5579,2795 5730,2795 5881,2795 6033,2795 6184,2795 6335,2940 6486,3078 6637,3207 6789,3329 6940,3445 7091,3554 7242,3658 7393,3757 7545,3851 7696,3940 7847,4025 7998,4107 8148,4184 8300,4259 8451,4330 8602,4398 8753,4464 8904,4526 9056,4586 9207,4644 9358,4700 9509,4754 9660,4805 9812,4855 9963,4904 10114,4950 10265,4995 10416,5039 10568,5081 10719,5121 10870,5161 11021,5199 11172,5236 11324,5236 11475,5236 11626,5236 11777,5236 11929,5236"/>
 <text class="TextShape"><tspan class="TextParagraph" font-family="Liberation Sans" font-size="353px" font-weight="400"><tspan class="TextPosition" x="1062" y="7726"><tspan fill="rgb(0,0,0)" stroke="none">0</tspan></tspan></tspan></text>
 <text class="TextShape"><tspan class="TextParagraph" font-family="Liberation Sans" font-size="353px" font-weight="400"><tspan class="TextPosition" x="771" y="6763"><tspan fill="rgb(0,0,0)" stroke="none">0,2</tspan></tspan></tspan></text>
 <text class="TextShape"><tspan class="TextParagraph" font-family="Liberation Sans" font-size="353px" font-weight="400"><tspan class="TextPosition" x="771" y="5801"><tspan fill="rgb(0,0,0)" stroke="none">0,4</tspan></tspan></tspan></text>
 <text class="TextShape"><tspan class="TextParagraph" font-family="Liberation Sans" font-size="353px" font-weight="400"><tspan class="TextPosition" x="771" y="4839"><tspan fill="rgb(0,0,0)" stroke="none">0,6</tspan></tspan></tspan></text>
 <text class="TextShape"><tspan class="TextParagraph" font-family="Liberation Sans" font-size="353px" font-weight="400"><tspan class="TextPosition" x="771" y="3877"><tspan fill="rgb(0,0,0)" stroke="none">0,8</tspan></tspan></tspan></text>
 <text class="TextShape"><tspan class="TextParagraph" font-family="Liberation Sans" font-size="353px" font-weight="400"><tspan class="TextPosition" x="1062" y="2915"><tspan fill="rgb(0,0,0)" stroke="none">1</tspan></tspan></tspan></text>
 <text class="TextShape"><tspan class="TextParagraph" font-family="Liberation Sans" font-size="353px" font-weight="400"><tspan class="TextPosition" x="771" y="1952"><tspan fill="rgb(0,0,0)" stroke="none">1,2</tspan></tspan></tspan></text>
 <text class="TextShape"><tspan class="TextParagraph" font-family="Liberation Sans" font-size="459px" font-weight="400"><tspan class="TextPosition" x="3833" y="850"><tspan fill="rgb(0,0,0)" stroke="none">Exponential distance - varying min distance</tspan></tspan></tspan></text>
 <path fill="none" stroke="rgb(0,69,134)" stroke-width="80" stroke-linejoin="round" d="M 12685,2755 L 13485,2755"/>
 <path fill="none" stroke="rgb(255,66,14)" stroke-width="80" stroke-linejoin="round" d="M 14295,2755 L 15095,2755"/>
 <path fill="none" stroke="rgb(255,211,32)" stroke-width="80" stroke-linejoin="round" d="M 12685,3253 L 13485,3253"/>
 <path fill="none" stroke="rgb(87,157,28)" stroke-width="80" stroke-linejoin="round" d="M 14295,3253 L 15095,3253"/>
 <path fill="none" stroke="rgb(126,0,33)" stroke-width="80" stroke-linejoin="round" d="M 12685,3751 L 13485,3751"/>
 <path fill="none" stroke="rgb(131,202,255)" stroke-width="80" stroke-linejoin="round" d="M 14295,3751 L 15095,3751"/>
 <path fill="none" stroke="rgb(49,64,4)" stroke-width="80" stroke-linejoin="round" d="M 12685,4249 L 13485,4249"/>
 <path fill="none" stroke="rgb(174,207,0)" stroke-width="80" stroke-linejoin="round" d="M 14295,4249 L 15095,4249"/>
 <path fill="none" stroke="rgb(75,31,111)" stroke-width="80" stroke-linejoin="round" d="M 12685,4746 L 13485,4746"/>
 <path fill="none" stroke="rgb(255,149,14)" stroke-width="80" stroke-linejoin="round" d="M 14295,4746 L 15095,4746"/>
 <path fill="none" stroke="rgb(197,0,11)" stroke-width="80" stroke-linejoin="round" d="M 12685,5244 L 13485,5244"/>
 <path fill="none" stroke="rgb(0,132,209)" stroke-width="80" stroke-linejoin="round" d="M 14295,5244 L 15095,5244"/>
 <path fill="none" stroke="rgb(0,69,134)" stroke-width="80" stroke-linejoin="round" d="M 12685,5742 L 13485,5742"/>
 <path fill="none" stroke="rgb(255,66,14)" stroke-width="80" stroke-linejoin="round" d="M 14295,5742 L 15095,5742"/>
 <path fill="none" stroke="rgb(255,211,32)" stroke-width="80" stroke-linejoin="round" d="M 12685,6240 L 13485,6240"/>
 <path fill="none" stroke="rgb(87,157,28)" stroke-width="80" stroke-linejoin="round" d="M 14295,6240 L 15095,6240"/>
 <text class="TextShape"><tspan class="TextParagraph" font-family="Liberation Sans" font-size="353px" font-weight="400"><tspan class="TextPosition" x="13585" y="2875"><tspan fill="rgb(0,0,0)" stroke="none">0,2</tspan></tspan></tspan></text>
 <text class="TextShape"><tspan class="TextParagraph" font-family="Liberation Sans" font-size="353px" font-weight="400"><tspan class="TextPosition" x="15195" y="2875"><tspan fill="rgb(0,0,0)" stroke="none">0,4</tspan></tspan></tspan></text>
 <text class="TextShape"><tspan class="TextParagraph" font-family="Liberation Sans" font-size="353px" font-weight="400"><tspan class="TextPosition" x="13585" y="3373"><tspan fill="rgb(0,0,0)" stroke="none">0,6</tspan></tspan></tspan></text>
 <text class="TextShape"><tspan class="TextParagraph" font-family="Liberation Sans" font-size="353px" font-weight="400"><tspan class="TextPosition" x="15195" y="3373"><tspan fill="rgb(0,0,0)" stroke="none">0,8</tspan></tspan></tspan></text>
 <text class="TextShape"><tspan class="TextParagraph" font-family="Liberation Sans" font-size="353px" font-weight="400"><tspan class="TextPosition" x="13585" y="3871"><tspan fill="rgb(0,0,0)" stroke="none">1</tspan></tspan></tspan></text>
 <text class="TextShape"><tspan class="TextParagraph" font-family="Liberation Sans" font-size="353px" font-weight="400"><tspan class="TextPosition" x="15195" y="3871"><tspan fill="rgb(0,0,0)" stroke="none">1,2</tspan></tspan></tspan></text>
 <text class="TextShape"><tspan class="TextParagraph" font-family="Liberation Sans" font-size="353px" font-weight="400"><tspan class="TextPosition" x="13585" y="4369"><tspan fill="rgb(0,0,0)" stroke="none">1,4</tspan></tspan></tspan></text>
 <text class="TextShape"><tspan class="TextParagraph" font-family="Liberation Sans" font-size="353px" font-weight="400"><tspan class="TextPosition" x="15195" y="4369"><tspan fill="rgb(0,0,0)" stroke="none">1,6</tspan></tspan></tspan></text>
 <text class="TextShape"><tspan class="TextParagraph" font-family="Liberation Sans" font-size="353px" font-weight="400"><tspan class="TextPosition" x="13585" y="4866"><tspan fill="rgb(0,0,0)" stroke="none">1,8</tspan></tspan></tspan></text>
 <text class="TextShape"><tspan class="TextParagraph" font-family="Liberation Sans" font-size="353px" font-weight="400"><tspan class="TextPosition" x="15195" y="4866"><tspan fill="rgb(0,0,0)" stroke="none">2</tspan></tspan></tspan></text>
 <text class="TextShape"><tspan class="TextParagraph" font-family="Liberation Sans" font-size="353px" font-weight="400"><tspan class="TextPosition" x="13585" y="5364"><tspan fill="rgb(0,0,0)" stroke="none">2,2</tspan></tspan></tspan></text>
 <text class="TextShape"><tspan class="TextParagraph" font-family="Liberation Sans" font-size="353px" font-weight="400"><tspan class="TextPosition" x="15195" y="5364"><tspan fill="rgb(0,0,0)" stroke="none">2,4</tspan></tspan></tspan></text>
 <text class="TextShape"><tspan class="TextParagraph" font-family="Liberation Sans" font-size="353px" font-weight="400"><tspan class="TextPosition" x="13585" y="5862"><tspan fill="rgb(0,0,0)" stroke="none">2,6</tspan></tspan></tspan></text>
 <text class="TextShape"><tspan class="TextParagraph" font-family="Liberation Sans" font-size="353px" font-weight="400"><tspan class="TextPosition" x="15195" y="5862"><tspan fill="rgb(0,0,0)" stroke="none">2,8</tspan></tspan></tspan></text>
 <text class="TextShape"><tspan class="TextParagraph" font-family="Liberation Sans" font-size="353px" font-weight="400"><tspan class="TextPosition" x="13585" y="6360"><tspan fill="rgb(0,0,0)" stroke="none">3</tspan></tspan></tspan></text>
 <text class="TextShape"><tspan class="TextParagraph" font-family="Liberation Sans" font-size="353px" font-weight="400"><tspan class="TextPosition" x="15195" y="6360"><tspan fill="rgb(0,0,0)" stroke="none">3,2</tspan></tspan></tspan></text>
</svg>