<?xml version="1.0" encoding="UTF-8"?>
<!DOCTYPE svg PUBLIC "-//W3C//DTD SVG 1.1//EN" "http://www.w3.org/Graphics/SVG/1.1/DTD/svg11.dtd">
<svg width="160mm" height="90mm" viewBox="0 0 16000 9000" version="1.1" baseProfile="tiny" xmlns="http://www.w3.org/2000/svg" stroke-width="28.222" stroke-linejoin="round" xml:space="preserve">
 <path fill="rgb(255,255,255)" stroke="none" d="M 8000,8999 L 0,8999 0,0 15999,0 15999,8999 8000,8999 Z"/>
 <path fill="none" stroke="rgb(179,179,179)" stroke-linejoin="round" d="M 6713,7607 L 1497,7607 1497,1835 11929,1835 11929,7607 6713,7607 Z"/>
 <path fill="none" stroke="rgb(179,179,179)" stroke-linejoin="round" d="M 11929,7606 L 1497,7606"/>
 <path fill="none" stroke="rgb(179,179,179)" stroke-linejoin="round" d="M 11929,6643 L 1497,6643"/>
 <path fill="none" stroke="rgb(179,179,179)" stroke-linejoin="round" d="M 11929,5681 L 1497,5681"/>
 <path fill="none" stroke="rgb(179,179,179)" stroke-linejoin="round" d="M 11929,4719 L 1497,4719"/>
 <path fill="none" stroke="rgb(179,179,179)" stroke-linejoin="round" d="M 11929,3758 L 1497,3758"/>
 <path fill="none" stroke="rgb(179,179,179)" stroke-linejoin="round" d="M 11929,2796 L 1497,2796"/>
 <path fill="none" stroke="rgb(179,179,179)" stroke-linejoin="round" d="M 11929,1833 L 1497,1833"/>
 <path fill="none" stroke="rgb(179,179,179)" stroke-linejoin="round" d="M 1497,7756 L 1497,7606"/>
 <path fill="none" stroke="rgb(179,179,179)" stroke-linejoin="round" d="M 1497,7756 L 1497,7606"/>
 <path fill="none" stroke="rgb(179,179,179)" stroke-linejoin="round" d="M 1648,7756 L 1648,7606"/>
 <path fill="none" stroke="rgb(179,179,179)" stroke-linejoin="round" d="M 1648,7756 L 1648,7606"/>
 <path fill="none" stroke="rgb(179,179,179)" stroke-linejoin="round" d="M 1799,7756 L 1799,7606"/>
 <path fill="none" stroke="rgb(179,179,179)" stroke-linejoin="round" d="M 1799,7756 L 1799,7606"/>
 <path fill="none" stroke="rgb(179,179,179)" stroke-linejoin="round" d="M 1950,7756 L 1950,7606"/>
 <path fill="none" stroke="rgb(179,179,179)" stroke-linejoin="round" d="M 1950,7756 L 1950,7606"/>
 <path fill="none" stroke="rgb(179,179,179)" stroke-linejoin="round" d="M 2101,7756 L 2101,7606"/>
 <path fill="none" stroke="rgb(179,179,179)" stroke-linejoin="round" d="M 2101,7756 L 2101,7606"/>
 <path fill="none" stroke="rgb(179,179,179)" stroke-linejoin="round" d="M 2253,7756 L 2253,7606"/>
 <path fill="none" stroke="rgb(179,179,179)" stroke-linejoin="round" d="M 2253,7756 L 2253,7606"/>
 <path fill="none" stroke="rgb(179,179,179)" stroke-linejoin="round" d="M 2404,7756 L 2404,7606"/>
 <path fill="none" stroke="rgb(179,179,179)" stroke-linejoin="round" d="M 2404,7756 L 2404,7606"/>
 <path fill="none" stroke="rgb(179,179,179)" stroke-linejoin="round" d="M 2555,7756 L 2555,7606"/>
 <path fill="none" stroke="rgb(179,179,179)" stroke-linejoin="round" d="M 2555,7756 L 2555,7606"/>
 <path fill="none" stroke="rgb(179,179,179)" stroke-linejoin="round" d="M 2706,7756 L 2706,7606"/>
 <path fill="none" stroke="rgb(179,179,179)" stroke-linejoin="round" d="M 2706,7756 L 2706,7606"/>
 <path fill="none" stroke="rgb(179,179,179)" stroke-linejoin="round" d="M 2857,7756 L 2857,7606"/>
 <path fill="none" stroke="rgb(179,179,179)" stroke-linejoin="round" d="M 2857,7756 L 2857,7606"/>
 <path fill="none" stroke="rgb(179,179,179)" stroke-linejoin="round" d="M 3009,7756 L 3009,7606"/>
 <path fill="none" stroke="rgb(179,179,179)" stroke-linejoin="round" d="M 3009,7756 L 3009,7606"/>
 <path fill="none" stroke="rgb(179,179,179)" stroke-linejoin="round" d="M 3160,7756 L 3160,7606"/>
 <path fill="none" stroke="rgb(179,179,179)" stroke-linejoin="round" d="M 3160,7756 L 3160,7606"/>
 <path fill="none" stroke="rgb(179,179,179)" stroke-linejoin="round" d="M 3311,7756 L 3311,7606"/>
 <path fill="none" stroke="rgb(179,179,179)" stroke-linejoin="round" d="M 3311,7756 L 3311,7606"/>
 <path fill="none" stroke="rgb(179,179,179)" stroke-linejoin="round" d="M 3462,7756 L 3462,7606"/>
 <path fill="none" stroke="rgb(179,179,179)" stroke-linejoin="round" d="M 3462,7756 L 3462,7606"/>
 <path fill="none" stroke="rgb(179,179,179)" stroke-linejoin="round" d="M 3613,7756 L 3613,7606"/>
 <path fill="none" stroke="rgb(179,179,179)" stroke-linejoin="round" d="M 3613,7756 L 3613,7606"/>
 <path fill="none" stroke="rgb(179,179,179)" stroke-linejoin="round" d="M 3765,7756 L 3765,7606"/>
 <path fill="none" stroke="rgb(179,179,179)" stroke-linejoin="round" d="M 3765,7756 L 3765,7606"/>
 <path fill="none" stroke="rgb(179,179,179)" stroke-linejoin="round" d="M 3916,7756 L 3916,7606"/>
 <path fill="none" stroke="rgb(179,179,179)" stroke-linejoin="round" d="M 3916,7756 L 3916,7606"/>
 <path fill="none" stroke="rgb(179,179,179)" stroke-linejoin="round" d="M 4067,7756 L 4067,7606"/>
 <path fill="none" stroke="rgb(179,179,179)" stroke-linejoin="round" d="M 4067,7756 L 4067,7606"/>
 <path fill="none" stroke="rgb(179,179,179)" stroke-linejoin="round" d="M 4218,7756 L 4218,7606"/>
 <path fill="none" stroke="rgb(179,179,179)" stroke-linejoin="round" d="M 4218,7756 L 4218,7606"/>
 <path fill="none" stroke="rgb(179,179,179)" stroke-linejoin="round" d="M 4369,7756 L 4369,7606"/>
 <path fill="none" stroke="rgb(179,179,179)" stroke-linejoin="round" d="M 4369,7756 L 4369,7606"/>
 <path fill="none" stroke="rgb(179,179,179)" stroke-linejoin="round" d="M 4521,7756 L 4521,7606"/>
 <path fill="none" stroke="rgb(179,179,179)" stroke-linejoin="round" d="M 4521,7756 L 4521,7606"/>
 <path fill="none" stroke="rgb(179,179,179)" stroke-linejoin="round" d="M 4672,7756 L 4672,7606"/>
 <path fill="none" stroke="rgb(179,179,179)" stroke-linejoin="round" d="M 4672,7756 L 4672,7606"/>
 <path fill="none" stroke="rgb(179,179,179)" stroke-linejoin="round" d="M 4823,7756 L 4823,7606"/>
 <path fill="none" stroke="rgb(179,179,179)" stroke-linejoin="round" d="M 4823,7756 L 4823,7606"/>
 <path fill="none" stroke="rgb(179,179,179)" stroke-linejoin="round" d="M 4974,7756 L 4974,7606"/>
 <path fill="none" stroke="rgb(179,179,179)" stroke-linejoin="round" d="M 4974,7756 L 4974,7606"/>
 <path fill="none" stroke="rgb(179,179,179)" stroke-linejoin="round" d="M 5125,7756 L 5125,7606"/>
 <path fill="none" stroke="rgb(179,179,179)" stroke-linejoin="round" d="M 5125,7756 L 5125,7606"/>
 <path fill="none" stroke="rgb(179,179,179)" stroke-linejoin="round" d="M 5277,7756 L 5277,7606"/>
 <path fill="none" stroke="rgb(179,179,179)" stroke-linejoin="round" d="M 5277,7756 L 5277,7606"/>
 <path fill="none" stroke="rgb(179,179,179)" stroke-linejoin="round" d="M 5428,7756 L 5428,7606"/>
 <path fill="none" stroke="rgb(179,179,179)" stroke-linejoin="round" d="M 5428,7756 L 5428,7606"/>
 <path fill="none" stroke="rgb(179,179,179)" stroke-linejoin="round" d="M 5579,7756 L 5579,7606"/>
 <path fill="none" stroke="rgb(179,179,179)" stroke-linejoin="round" d="M 5579,7756 L 5579,7606"/>
 <path fill="none" stroke="rgb(179,179,179)" stroke-linejoin="round" d="M 5730,7756 L 5730,7606"/>
 <path fill="none" stroke="rgb(179,179,179)" stroke-linejoin="round" d="M 5730,7756 L 5730,7606"/>
 <path fill="none" stroke="rgb(179,179,179)" stroke-linejoin="round" d="M 5881,7756 L 5881,7606"/>
 <path fill="none" stroke="rgb(179,179,179)" stroke-linejoin="round" d="M 5881,7756 L 5881,7606"/>
 <path fill="none" stroke="rgb(179,179,179)" stroke-linejoin="round" d="M 6033,7756 L 6033,7606"/>
 <path fill="none" stroke="rgb(179,179,179)" stroke-linejoin="round" d="M 6033,7756 L 6033,7606"/>
 <path fill="none" stroke="rgb(179,179,179)" stroke-linejoin="round" d="M 6184,7756 L 6184,7606"/>
 <path fill="none" stroke="rgb(179,179,179)" stroke-linejoin="round" d="M 6184,7756 L 6184,7606"/>
 <path fill="none" stroke="rgb(179,179,179)" stroke-linejoin="round" d="M 6335,7756 L 6335,7606"/>
 <path fill="none" stroke="rgb(179,179,179)" stroke-linejoin="round" d="M 6335,7756 L 6335,7606"/>
 <path fill="none" stroke="rgb(179,179,179)" stroke-linejoin="round" d="M 6486,7756 L 6486,7606"/>
 <path fill="none" stroke="rgb(179,179,179)" stroke-linejoin="round" d="M 6486,7756 L 6486,7606"/>
 <path fill="none" stroke="rgb(179,179,179)" stroke-linejoin="round" d="M 6637,7756 L 6637,7606"/>
 <path fill="none" stroke="rgb(179,179,179)" stroke-linejoin="round" d="M 6637,7756 L 6637,7606"/>
 <path fill="none" stroke="rgb(179,179,179)" stroke-linejoin="round" d="M 6789,7756 L 6789,7606"/>
 <path fill="none" stroke="rgb(179,179,179)" stroke-linejoin="round" d="M 6789,7756 L 6789,7606"/>
 <path fill="none" stroke="rgb(179,179,179)" stroke-linejoin="round" d="M 6940,7756 L 6940,7606"/>
 <path fill="none" stroke="rgb(179,179,179)" stroke-linejoin="round" d="M 6940,7756 L 6940,7606"/>
 <path fill="none" stroke="rgb(179,179,179)" stroke-linejoin="round" d="M 7091,7756 L 7091,7606"/>
 <path fill="none" stroke="rgb(179,179,179)" stroke-linejoin="round" d="M 7091,7756 L 7091,7606"/>
 <path fill="none" stroke="rgb(179,179,179)" stroke-linejoin="round" d="M 7242,7756 L 7242,7606"/>
 <path fill="none" stroke="rgb(179,179,179)" stroke-linejoin="round" d="M 7242,7756 L 7242,7606"/>
 <path fill="none" stroke="rgb(179,179,179)" stroke-linejoin="round" d="M 7393,7756 L 7393,7606"/>
 <path fill="none" stroke="rgb(179,179,179)" stroke-linejoin="round" d="M 7393,7756 L 7393,7606"/>
 <path fill="none" stroke="rgb(179,179,179)" stroke-linejoin="round" d="M 7545,7756 L 7545,7606"/>
 <path fill="none" stroke="rgb(179,179,179)" stroke-linejoin="round" d="M 7545,7756 L 7545,7606"/>
 <path fill="none" stroke="rgb(179,179,179)" stroke-linejoin="round" d="M 7696,7756 L 7696,7606"/>
 <path fill="none" stroke="rgb(179,179,179)" stroke-linejoin="round" d="M 7696,7756 L 7696,7606"/>
 <path fill="none" stroke="rgb(179,179,179)" stroke-linejoin="round" d="M 7847,7756 L 7847,7606"/>
 <path fill="none" stroke="rgb(179,179,179)" stroke-linejoin="round" d="M 7847,7756 L 7847,7606"/>
 <path fill="none" stroke="rgb(179,179,179)" stroke-linejoin="round" d="M 7998,7756 L 7998,7606"/>
 <path fill="none" stroke="rgb(179,179,179)" stroke-linejoin="round" d="M 7998,7756 L 7998,7606"/>
 <path fill="none" stroke="rgb(179,179,179)" stroke-linejoin="round" d="M 8148,7756 L 8148,7606"/>
 <path fill="none" stroke="rgb(179,179,179)" stroke-linejoin="round" d="M 8148,7756 L 8148,7606"/>
 <path fill="none" stroke="rgb(179,179,179)" stroke-linejoin="round" d="M 8300,7756 L 8300,7606"/>
 <path fill="none" stroke="rgb(179,179,179)" stroke-linejoin="round" d="M 8300,7756 L 8300,7606"/>
 <path fill="none" stroke="rgb(179,179,179)" stroke-linejoin="round" d="M 8451,7756 L 8451,7606"/>
 <path fill="none" stroke="rgb(179,179,179)" stroke-linejoin="round" d="M 8451,7756 L 8451,7606"/>
 <path fill="none" stroke="rgb(179,179,179)" stroke-linejoin="round" d="M 8602,7756 L 8602,7606"/>
 <path fill="none" stroke="rgb(179,179,179)" stroke-linejoin="round" d="M 8602,7756 L 8602,7606"/>
 <path fill="none" stroke="rgb(179,179,179)" stroke-linejoin="round" d="M 8753,7756 L 8753,7606"/>
 <path fill="none" stroke="rgb(179,179,179)" stroke-linejoin="round" d="M 8753,7756 L 8753,7606"/>
 <path fill="none" stroke="rgb(179,179,179)" stroke-linejoin="round" d="M 8904,7756 L 8904,7606"/>
 <path fill="none" stroke="rgb(179,179,179)" stroke-linejoin="round" d="M 8904,7756 L 8904,7606"/>
 <path fill="none" stroke="rgb(179,179,179)" stroke-linejoin="round" d="M 9056,7756 L 9056,7606"/>
 <path fill="none" stroke="rgb(179,179,179)" stroke-linejoin="round" d="M 9056,7756 L 9056,7606"/>
 <path fill="none" stroke="rgb(179,179,179)" stroke-linejoin="round" d="M 9207,7756 L 9207,7606"/>
 <path fill="none" stroke="rgb(179,179,179)" stroke-linejoin="round" d="M 9207,7756 L 9207,7606"/>
 <path fill="none" stroke="rgb(179,179,179)" stroke-linejoin="round" d="M 9358,7756 L 9358,7606"/>
 <path fill="none" stroke="rgb(179,179,179)" stroke-linejoin="round" d="M 9358,7756 L 9358,7606"/>
 <path fill="none" stroke="rgb(179,179,179)" stroke-linejoin="round" d="M 9509,7756 L 9509,7606"/>
 <path fill="none" stroke="rgb(179,179,179)" stroke-linejoin="round" d="M 9509,7756 L 9509,7606"/>
 <path fill="none" stroke="rgb(179,179,179)" stroke-linejoin="round" d="M 9660,7756 L 9660,7606"/>
 <path fill="none" stroke="rgb(179,179,179)" stroke-linejoin="round" d="M 9660,7756 L 9660,7606"/>
 <path fill="none" stroke="rgb(179,179,179)" stroke-linejoin="round" d="M 9812,7756 L 9812,7606"/>
 <path fill="none" stroke="rgb(179,179,179)" stroke-linejoin="round" d="M 9812,7756 L 9812,7606"/>
 <path fill="none" stroke="rgb(179,179,179)" stroke-linejoin="round" d="M 9963,7756 L 9963,7606"/>
 <path fill="none" stroke="rgb(179,179,179)" stroke-linejoin="round" d="M 9963,7756 L 9963,7606"/>
 <path fill="none" stroke="rgb(179,179,179)" stroke-linejoin="round" d="M 10114,7756 L 10114,7606"/>
 <path fill="none" stroke="rgb(179,179,179)" stroke-linejoin="round" d="M 10114,7756 L 10114,7606"/>
 <path fill="none" stroke="rgb(179,179,179)" stroke-linejoin="round" d="M 10265,7756 L 10265,7606"/>
 <path fill="none" stroke="rgb(179,179,179)" stroke-linejoin="round" d="M 10265,7756 L 10265,7606"/>
 <path fill="none" stroke="rgb(179,179,179)" stroke-linejoin="round" d="M 10416,7756 L 10416,7606"/>
 <path fill="none" stroke="rgb(179,179,179)" stroke-linejoin="round" d="M 10416,7756 L 10416,7606"/>
 <path fill="none" stroke="rgb(179,179,179)" stroke-linejoin="round" d="M 10568,7756 L 10568,7606"/>
 <path fill="none" stroke="rgb(179,179,179)" stroke-linejoin="round" d="M 10568,7756 L 10568,7606"/>
 <path fill="none" stroke="rgb(179,179,179)" stroke-linejoin="round" d="M 10719,7756 L 10719,7606"/>
 <path fill="none" stroke="rgb(179,179,179)" stroke-linejoin="round" d="M 10719,7756 L 10719,7606"/>
 <path fill="none" stroke="rgb(179,179,179)" stroke-linejoin="round" d="M 10870,7756 L 10870,7606"/>
 <path fill="none" stroke="rgb(179,179,179)" stroke-linejoin="round" d="M 10870,7756 L 10870,7606"/>
 <path fill="none" stroke="rgb(179,179,179)" stroke-linejoin="round" d="M 11021,7756 L 11021,7606"/>
 <path fill="none" stroke="rgb(179,179,179)" stroke-linejoin="round" d="M 11021,7756 L 11021,7606"/>
 <path fill="none" stroke="rgb(179,179,179)" stroke-linejoin="round" d="M 11172,7756 L 11172,7606"/>
 <path fill="none" stroke="rgb(179,179,179)" stroke-linejoin="round" d="M 11172,7756 L 11172,7606"/>
 <path fill="none" stroke="rgb(179,179,179)" stroke-linejoin="round" d="M 11324,7756 L 11324,7606"/>
 <path fill="none" stroke="rgb(179,179,179)" stroke-linejoin="round" d="M 11324,7756 L 11324,7606"/>
 <path fill="none" stroke="rgb(179,179,179)" stroke-linejoin="round" d="M 11475,7756 L 11475,7606"/>
 <path fill="none" stroke="rgb(179,179,179)" stroke-linejoin="round" d="M 11475,7756 L 11475,7606"/>
 <path fill="none" stroke="rgb(179,179,179)" stroke-linejoin="round" d="M 11626,7756 L 11626,7606"/>
 <path fill="none" stroke="rgb(179,179,179)" stroke-linejoin="round" d="M 11626,7756 L 11626,7606"/>
 <path fill="none" stroke="rgb(179,179,179)" stroke-linejoin="round" d="M 11777,7756 L 11777,7606"/>
 <path fill="none" stroke="rgb(179,179,179)" stroke-linejoin="round" d="M 11777,7756 L 11777,7606"/>
 <path fill="none" stroke="rgb(179,179,179)" stroke-linejoin="round" d="M 11929,7756 L 11929,7606"/>
 <path fill="none" stroke="rgb(179,179,179)" stroke-linejoin="round" d="M 11929,7756 L 11929,7606"/>
 <path fill="none" stroke="rgb(179,179,179)" stroke-linejoin="round" d="M 1497,7606 L 11929,7606"/>
 <path fill="none" stroke="rgb(179,179,179)" stroke-linejoin="round" d="M 1347,7606 L 1497,7606"/>
 <path fill="none" stroke="rgb(179,179,179)" stroke-linejoin="round" d="M 1347,7606 L 1497,7606"/>
 <path fill="none" stroke="rgb(179,179,179)" stroke-linejoin="round" d="M 1347,6643 L 1497,6643"/>
 <path fill="none" stroke="rgb(179,179,179)" stroke-linejoin="round" d="M 1347,6643 L 1497,6643"/>
 <path fill="none" stroke="rgb(179,179,179)" stroke-linejoin="round" d="M 1347,5681 L 1497,5681"/>
 <path fill="none" stroke="rgb(179,179,179)" stroke-linejoin="round" d="M 1347,5681 L 1497,5681"/>
 <path fill="none" stroke="rgb(179,179,179)" stroke-linejoin="round" d="M 1347,4719 L 1497,4719"/>
 <path fill="none" stroke="rgb(179,179,179)" stroke-linejoin="round" d="M 1347,4719 L 1497,4719"/>
 <path fill="none" stroke="rgb(179,179,179)" stroke-linejoin="round" d="M 1347,3758 L 1497,3758"/>
 <path fill="none" stroke="rgb(179,179,179)" stroke-linejoin="round" d="M 1347,3758 L 1497,3758"/>
 <path fill="none" stroke="rgb(179,179,179)" stroke-linejoin="round" d="M 1347,2796 L 1497,2796"/>
 <path fill="none" stroke="rgb(179,179,179)" stroke-linejoin="round" d="M 1347,2796 L 1497,2796"/>
 <path fill="none" stroke="rgb(179,179,179)" stroke-linejoin="round" d="M 1347,1833 L 1497,1833"/>
 <path fill="none" stroke="rgb(179,179,179)" stroke-linejoin="round" d="M 1347,1833 L 1497,1833"/>
 <path fill="none" stroke="rgb(179,179,179)" stroke-linejoin="round" d="M 1497,7606 L 1497,1833"/>
 <path fill="none" stroke="rgb(0,69,134)" stroke-width="80" stroke-linejoin="round" d="M 1497,2796 L 1648,2796 1799,2796 1950,2796 2101,2796 2253,3758 2404,4719 2555,5681 2706,6643 2857,7606 3009,7606 3160,7606 3311,7606 3462,7606 3613,7606 3765,7606 3916,7606 4067,7606 4218,7606 4369,7606 4521,7606 4672,7606 4823,7606 4974,7606 5125,7606 5277,7606 5428,7606 5579,7606 5730,7606 5881,7606 6033,7606 6184,7606 6335,7606 6486,7606 6637,7606 6789,7606 6940,7606 7091,7606 7242,7606 7393,7606 7545,7606 7696,7606 7847,7606 7998,7606 8148,7606 8300,7606 8451,7606 8602,7606 8753,7606 8904,7606 9056,7606 9207,7606 9358,7606 9509,7606 9660,7606 9812,7606 9963,7606 10114,7606 10265,7606 10416,7606 10568,7606 10719,7606 10870,7606 11021,7606 11172,7606 11324,7606 11475,7606 11626,7606 11777,7606 11929,7606"/>
 <path fill="none" stroke="rgb(255,66,14)" stroke-width="80" stroke-linejoin="round" d="M 1497,2796 L 1648,2796 1799,2796 1950,2796 2101,2796 2253,3330 2404,3865 2555,4399 2706,4933 2857,5467 3009,6002 3160,6536 3311,7071 3462,7606 3613,7606 3765,7606 3916,7606 4067,7606 4218,7606 4369,7606 4521,7606 4672,7606 4823,7606 4974,7606 5125,7606 5277,7606 5428,7606 5579,7606 5730,7606 5881,7606 6033,7606 6184,7606 6335,7606 6486,7606 6637,7606 6789,7606 6940,7606 7091,7606 7242,7606 7393,7606 7545,7606 7696,7606 7847,7606 7998,7606 8148,7606 8300,7606 8451,7606 8602,7606 8753,7606 8904,7606 9056,7606 9207,7606 9358,7606 9509,7606 9660,7606 9812,7606 9963,7606 10114,7606 10265,7606 10416,7606 10568,7606 10719,7606 10870,7606 11021,7606 11172,7606 11324,7606 11475,7606 11626,7606 11777,7606 11929,7606"/>
 <path fill="none" stroke="rgb(255,211,32)" stroke-width="80" stroke-linejoin="round" d="M 1497,2796 L 1648,2796 1799,2796 1950,2796 2101,2796 2253,3166 2404,3536 2555,3906 2706,4276 2857,4645 3009,5015 3160,5385 3311,5755 3462,6125 3613,6495 3765,6865 3916,7235 4067,7606 4218,7606 4369,7606 4521,7606 4672,7606 4823,7606 4974,7606 5125,7606 5277,7606 5428,7606 5579,7606 5730,7606 5881,7606 6033,7606 6184,7606 6335,7606 6486,7606 6637,7606 6789,7606 6940,7606 7091,7606 7242,7606 7393,7606 7545,7606 7696,7606 7847,7606 7998,7606 8148,7606 8300,7606 8451,7606 8602,7606 8753,7606 8904,7606 9056,7606 9207,7606 9358,7606 9509,7606 9660,7606 9812,7606 9963,7606 10114,7606 10265,7606 10416,7606 10568,7606 10719,7606 10870,7606 11021,7606 11172,7606 11324,7606 11475,7606 11626,7606 11777,7606 11929,7606"/>
 <path fill="none" stroke="rgb(87,157,28)" stroke-width="80" stroke-linejoin="round" d="M 1497,2796 L 1648,2796 1799,2796 1950,2796 2101,2796 2253,3079 2404,3362 2555,3645 2706,3928 2857,4211 3009,4494 3160,4776 3311,5059 3462,5342 3613,5625 3765,5908 3916,6191 4067,6474 4218,6757 4369,7040 4521,7323 4672,7606 4823,7606 4974,7606 5125,7606 5277,7606 5428,7606 5579,7606 5730,7606 5881,7606 6033,7606 6184,7606 6335,7606 6486,7606 6637,7606 6789,7606 6940,7606 7091,7606 7242,7606 7393,7606 7545,7606 7696,7606 7847,7606 7998,7606 8148,7606 8300,7606 8451,7606 8602,7606 8753,7606 8904,7606 9056,7606 9207,7606 9358,7606 9509,7606 9660,7606 9812,7606 9963,7606 10114,7606 10265,7606 10416,7606 10568,7606 10719,7606 10870,7606 11021,7606 11172,7606 11324,7606 11475,7606 11626,7606 11777,7606 11929,7606"/>
 <path fill="none" stroke="rgb(126,0,33)" stroke-width="80" stroke-linejoin="round" d="M 1497,2796 L 1648,2796 1799,2796 1950,2796 2101,2796 2253,3025 2404,3254 2555,3483 2706,3712 2857,3941 3009,4170 3160,4399 3311,4627 3462,4856 3613,5086 3765,5315 3916,5544 4067,5773 4218,6002 4369,6231 4521,6460 4672,6689 4823,6918 4974,7147 5125,7376 5277,7606 5428,7606 5579,7606 5730,7606 5881,7606 6033,7606 6184,7606 6335,7606 6486,7606 6637,7606 6789,7606 6940,7606 7091,7606 7242,7606 7393,7606 7545,7606 7696,7606 7847,7606 7998,7606 8148,7606 8300,7606 8451,7606 8602,7606 8753,7606 8904,7606 9056,7606 9207,7606 9358,7606 9509,7606 9660,7606 9812,7606 9963,7606 10114,7606 10265,7606 10416,7606 10568,7606 10719,7606 10870,7606 11021,7606 11172,7606 11324,7606 11475,7606 11626,7606 11777,7606 11929,7606"/>
 <path fill="none" stroke="rgb(131,202,255)" stroke-width="80" stroke-linejoin="round" d="M 1497,2796 L 1648,2796 1799,2796 1950,2796 2101,2796 2253,2988 2404,3181 2555,3373 2706,3565 2857,3758 3009,3950 3160,4143 3311,4335 3462,4527 3613,4719 3765,4911 3916,5104 4067,5296 4218,5489 4369,5681 4521,5874 4672,6066 4823,6258 4974,6451 5125,6643 5277,6836 5428,7028 5579,7221 5730,7413 5881,7606 6033,7606 6184,7606 6335,7606 6486,7606 6637,7606 6789,7606 6940,7606 7091,7606 7242,7606 7393,7606 7545,7606 7696,7606 7847,7606 7998,7606 8148,7606 8300,7606 8451,7606 8602,7606 8753,7606 8904,7606 9056,7606 9207,7606 9358,7606 9509,7606 9660,7606 9812,7606 9963,7606 10114,7606 10265,7606 10416,7606 10568,7606 10719,7606 10870,7606 11021,7606 11172,7606 11324,7606 11475,7606 11626,7606 11777,7606 11929,7606"/>
 <path fill="none" stroke="rgb(49,64,4)" stroke-width="80" stroke-linejoin="round" d="M 1497,2796 L 1648,2796 1799,2796 1950,2796 2101,2796 2253,2962 2404,3127 2555,3293 2706,3459 2857,3625 3009,3791 3160,3957 3311,4123 3462,4289 3613,4455 3765,4619 3916,4785 4067,4951 4218,5117 4369,5283 4521,5449 4672,5615 4823,5781 4974,5947 5125,6112 5277,6278 5428,6444 5579,6610 5730,6776 5881,6942 6033,7108 6184,7274 6335,7440 6486,7606 6637,7606 6789,7606 6940,7606 7091,7606 7242,7606 7393,7606 7545,7606 7696,7606 7847,7606 7998,7606 8148,7606 8300,7606 8451,7606 8602,7606 8753,7606 8904,7606 9056,7606 9207,7606 9358,7606 9509,7606 9660,7606 9812,7606 9963,7606 10114,7606 10265,7606 10416,7606 10568,7606 10719,7606 10870,7606 11021,7606 11172,7606 11324,7606 11475,7606 11626,7606 11777,7606 11929,7606"/>
 <path fill="none" stroke="rgb(174,207,0)" stroke-width="80" stroke-linejoin="round" d="M 1497,2796 L 1648,2796 1799,2796 1950,2796 2101,2796 2253,2941 2404,3087 2555,3233 2706,3379 2857,3525 3009,3670 3160,3816 3311,3962 3462,4108 3613,4253 3765,4399 3916,4544 4067,4690 4218,4836 4369,4981 4521,5127 4672,5273 4823,5419 4974,5565 5125,5710 5277,5856 5428,6002 5579,6148 5730,6293 5881,6439 6033,6585 6184,6731 6335,6877 6486,7022 6637,7168 6789,7314 6940,7460 7091,7606 7242,7606 7393,7606 7545,7606 7696,7606 7847,7606 7998,7606 8148,7606 8300,7606 8451,7606 8602,7606 8753,7606 8904,7606 9056,7606 9207,7606 9358,7606 9509,7606 9660,7606 9812,7606 9963,7606 10114,7606 10265,7606 10416,7606 10568,7606 10719,7606 10870,7606 11021,7606 11172,7606 11324,7606 11475,7606 11626,7606 11777,7606 11929,7606"/>
 <path fill="none" stroke="rgb(75,31,111)" stroke-width="80" stroke-linejoin="round" d="M 1497,2796 L 1648,2796 1799,2796 1950,2796 2101,2796 2253,2926 2404,3056 2555,3186 2706,3316 2857,3446 3009,3576 3160,3706 3311,3836 3462,3966 3613,4096 3765,4226 3916,4356 4067,4486 4218,4615 4369,4745 4521,4875 4672,5005 4823,5135 4974,5265 5125,5395 5277,5525 5428,5655 5579,5785 5730,5915 5881,6045 6033,6175 6184,6305 6335,6435 6486,6565 6637,6695 6789,6825 6940,6955 7091,7085 7242,7215 7393,7345 7545,7475 7696,7606 7847,7606 7998,7606 8148,7606 8300,7606 8451,7606 8602,7606 8753,7606 8904,7606 9056,7606 9207,7606 9358,7606 9509,7606 9660,7606 9812,7606 9963,7606 10114,7606 10265,7606 10416,7606 10568,7606 10719,7606 10870,7606 11021,7606 11172,7606 11324,7606 11475,7606 11626,7606 11777,7606 11929,7606"/>
 <path fill="none" stroke="rgb(255,149,14)" stroke-width="80" stroke-linejoin="round" d="M 1497,2796 L 1648,2796 1799,2796 1950,2796 2101,2796 2253,2913 2404,3030 2555,3148 2706,3265 2857,3382 3009,3500 3160,3617 3311,3734 3462,3852 3613,3969 3765,4086 3916,4204 4067,4321 4218,4438 4369,4555 4521,4672 4672,4789 4823,4907 4974,5024 5125,5141 5277,5259 5428,5376 5579,5493 5730,5611 5881,5728 6033,5845 6184,5963 6335,6080 6486,6197 6637,6315 6789,6432 6940,6549 7091,6667 7242,6784 7393,6901 7545,7019 7696,7136 7847,7253 7998,7371 8148,7488 8300,7606 8451,7606 8602,7606 8753,7606 8904,7606 9056,7606 9207,7606 9358,7606 9509,7606 9660,7606 9812,7606 9963,7606 10114,7606 10265,7606 10416,7606 10568,7606 10719,7606 10870,7606 11021,7606 11172,7606 11324,7606 11475,7606 11626,7606 11777,7606 11929,7606"/>
 <path fill="none" stroke="rgb(197,0,11)" stroke-width="80" stroke-linejoin="round" d="M 1497,2796 L 1648,2796 1799,2796 1950,2796 2101,2796 2253,2903 2404,3009 2555,3116 2706,3223 2857,3330 3009,3437 3160,3544 3311,3651 3462,3758 3613,3865 3765,3972 3916,4079 4067,4185 4218,4292 4369,4399 4521,4505 4672,4612 4823,4719 4974,4826 5125,4933 5277,5040 5428,5147 5579,5254 5730,5360 5881,5467 6033,5574 6184,5681 6335,5788 6486,5895 6637,6002 6789,6109 6940,6216 7091,6323 7242,6430 7393,6536 7545,6643 7696,6750 7847,6857 7998,6964 8148,7071 8300,7178 8451,7285 8602,7392 8753,7499 8904,7606 9056,7606 9207,7606 9358,7606 9509,7606 9660,7606 9812,7606 9963,7606 10114,7606 10265,7606 10416,7606 10568,7606 10719,7606 10870,7606 11021,7606 11172,7606 11324,7606 11475,7606 11626,7606 11777,7606 11929,7606"/>
 <path fill="none" stroke="rgb(0,132,209)" stroke-width="80" stroke-linejoin="round" d="M 1497,2796 L 1648,2796 1799,2796 1950,2796 2101,2796 2253,2894 2404,2992 2555,3090 2706,3188 2857,3287 3009,3385 3160,3483 3311,3581 3462,3679 3613,3777 3765,3876 3916,3974 4067,4072 4218,4170 4369,4268 4521,4367 4672,4465 4823,4562 4974,4660 5125,4758 5277,4856 5428,4955 5579,5053 5730,5151 5881,5249 6033,5347 6184,5446 6335,5544 6486,5642 6637,5740 6789,5838 6940,5936 7091,6035 7242,6133 7393,6231 7545,6329 7696,6427 7847,6526 7998,6624 8148,6722 8300,6820 8451,6918 8602,7016 8753,7115 8904,7213 9056,7311 9207,7409 9358,7507 9509,7606 9660,7606 9812,7606 9963,7606 10114,7606 10265,7606 10416,7606 10568,7606 10719,7606 10870,7606 11021,7606 11172,7606 11324,7606 11475,7606 11626,7606 11777,7606 11929,7606"/>
 <path fill="none" stroke="rgb(0,69,134)" stroke-width="80" stroke-linejoin="round" d="M 1497,2796 L 1648,2796 1799,2796 1950,2796 2101,2796 2253,2886 2404,2977 2555,3068 2706,3159 2857,3250 3009,3340 3160,3431 3311,3522 3462,3613 3613,3703 3765,3794 3916,3885 4067,3976 4218,4066 4369,4157 4521,4248 4672,4339 4823,4430 4974,4519 5125,4610 5277,4701 5428,4792 5579,4882 5730,4973 5881,5064 6033,5155 6184,5245 6335,5336 6486,5427 6637,5518 6789,5609 6940,5699 7091,5790 7242,5881 7393,5972 7545,6062 7696,6153 7847,6244 7998,6335 8148,6425 8300,6516 8451,6607 8602,6698 8753,6789 8904,6879 9056,6970 9207,7061 9358,7152 9509,7242 9660,7333 9812,7424 9963,7515 10114,7606 10265,7606 10416,7606 10568,7606 10719,7606 10870,7606 11021,7606 11172,7606 11324,7606 11475,7606 11626,7606 11777,7606 11929,7606"/>
 <path fill="none" stroke="rgb(255,66,14)" stroke-width="80" stroke-linejoin="round" d="M 1497,2796 L 1648,2796 1799,2796 1950,2796 2101,2796 2253,2880 2404,2964 2555,3049 2706,3133 2857,3218 3009,3302 3160,3386 3311,3471 3462,3555 3613,3640 3765,3724 3916,3808 4067,3893 4218,3977 4369,4062 4521,4146 4672,4230 4823,4315 4974,4399 5125,4484 5277,4567 5428,4651 5579,4736 5730,4820 5881,4905 6033,4989 6184,5073 6335,5158 6486,5242 6637,5327 6789,5411 6940,5495 7091,5580 7242,5664 7393,5749 7545,5833 7696,5917 7847,6002 7998,6086 8148,6171 8300,6255 8451,6339 8602,6424 8753,6508 8904,6593 9056,6677 9207,6761 9358,6846 9509,6930 9660,7015 9812,7099 9963,7183 10114,7268 10265,7352 10416,7437 10568,7521 10719,7606 10870,7606 11021,7606 11172,7606 11324,7606 11475,7606 11626,7606 11777,7606 11929,7606"/>
 <path fill="none" stroke="rgb(255,211,32)" stroke-width="80" stroke-linejoin="round" d="M 1497,2796 L 1648,2796 1799,2796 1950,2796 2101,2796 2253,2875 2404,2953 2555,3032 2706,3111 2857,3190 3009,3269 3160,3348 3311,3427 3462,3505 3613,3584 3765,3663 3916,3742 4067,3821 4218,3900 4369,3979 4521,4058 4672,4136 4823,4215 4974,4294 5125,4373 5277,4452 5428,4530 5579,4609 5730,4687 5881,4766 6033,4845 6184,4924 6335,5003 6486,5082 6637,5161 6789,5240 6940,5318 7091,5397 7242,5476 7393,5555 7545,5634 7696,5713 7847,5792 7998,5870 8148,5949 8300,6028 8451,6107 8602,6186 8753,6265 8904,6344 9056,6423 9207,6501 9358,6580 9509,6659 9660,6738 9812,6817 9963,6896 10114,6975 10265,7053 10416,7132 10568,7211 10719,7290 10870,7369 11021,7448 11172,7527 11324,7606 11475,7606 11626,7606 11777,7606 11929,7606"/>
 <path fill="none" stroke="rgb(87,157,28)" stroke-width="80" stroke-linejoin="round" d="M 1497,2796 L 1648,2796 1799,2796 1950,2796 2101,2796 2253,2870 2404,2944 2555,3018 2706,3092 2857,3166 3009,3240 3160,3314 3311,3388 3462,3462 3613,3536 3765,3610 3916,3684 4067,3758 4218,3832 4369,3906 4521,3980 4672,4054 4823,4128 4974,4202 5125,4276 5277,4350 5428,4424 5579,4498 5730,4571 5881,4645 6033,4719 6184,4793 6335,4867 6486,4941 6637,5015 6789,5089 6940,5163 7091,5237 7242,5311 7393,5385 7545,5459 7696,5533 7847,5607 7998,5681 8148,5755 8300,5829 8451,5903 8602,5977 8753,6051 8904,6125 9056,6199 9207,6273 9358,6347 9509,6421 9660,6495 9812,6569 9963,6643 10114,6717 10265,6791 10416,6865 10568,6939 10719,7013 10870,7087 11021,7161 11172,7235 11324,7309 11475,7383 11626,7457 11777,7531 11929,7606"/>
 <path fill="none" stroke="rgb(126,0,33)" stroke-width="80" stroke-linejoin="round" d="M 1497,2796 L 1648,2796 1799,2796 1950,2796 2101,2796 2253,2865 2404,2935 2555,3005 2706,3075 2857,3144 3009,3214 3160,3284 3311,3353 3462,3423 3613,3493 3765,3563 3916,3632 4067,3702 4218,3772 4369,3841 4521,3911 4672,3981 4823,4051 4974,4120 5125,4190 5277,4260 5428,4330 5579,4399 5730,4469 5881,4538 6033,4607 6184,4677 6335,4747 6486,4817 6637,4886 6789,4956 6940,5026 7091,5096 7242,5165 7393,5235 7545,5305 7696,5374 7847,5444 7998,5514 8148,5584 8300,5653 8451,5723 8602,5793 8753,5862 8904,5932 9056,6002 9207,6072 9358,6141 9509,6211 9660,6281 9812,6350 9963,6420 10114,6490 10265,6560 10416,6629 10568,6699 10719,6769 10870,6839 11021,6908 11172,6978 11324,7048 11475,7117 11626,7187 11777,7257 11929,7327"/>
 <path fill="none" stroke="rgb(131,202,255)" stroke-width="80" stroke-linejoin="round" d="M 1497,2796 L 1648,2796 1799,2796 1950,2796 2101,2796 2253,2862 2404,2927 2555,2993 2706,3059 2857,3125 3009,3191 3160,3257 3311,3323 3462,3389 3613,3455 3765,3521 3916,3586 4067,3652 4218,3718 4369,3784 4521,3850 4672,3916 4823,3982 4974,4048 5125,4114 5277,4180 5428,4246 5579,4311 5730,4377 5881,4443 6033,4508 6184,4574 6335,4640 6486,4706 6637,4772 6789,4838 6940,4904 7091,4969 7242,5035 7393,5101 7545,5167 7696,5233 7847,5299 7998,5365 8148,5431 8300,5497 8451,5563 8602,5628 8753,5694 8904,5760 9056,5826 9207,5892 9358,5958 9509,6024 9660,6090 9812,6156 9963,6222 10114,6287 10265,6353 10416,6419 10568,6485 10719,6551 10870,6617 11021,6683 11172,6749 11324,6815 11475,6881 11626,6946 11777,7012 11929,7078"/>
 <text class="TextShape"><tspan class="TextParagraph" font-family="Liberation Sans" font-size="353px" font-weight="400"><tspan class="TextPosition" x="1062" y="7727"><tspan fill="rgb(0,0,0)" stroke="none">0</tspan></tspan></tspan></text>
 <text class="TextShape"><tspan class="TextParagraph" font-family="Liberation Sans" font-size="353px" font-weight="400"><tspan class="TextPosition" x="771" y="6764"><tspan fill="rgb(0,0,0)" stroke="none">0,2</tspan></tspan></tspan></text>
 <text class="TextShape"><tspan class="TextParagraph" font-family="Liberation Sans" font-size="353px" font-weight="400"><tspan class="TextPosition" x="771" y="5802"><tspan fill="rgb(0,0,0)" stroke="none">0,4</tspan></tspan></tspan></text>
 <text class="TextShape"><tspan class="TextParagraph" font-family="Liberation Sans" font-size="353px" font-weight="400"><tspan class="TextPosition" x="771" y="4840"><tspan fill="rgb(0,0,0)" stroke="none">0,6</tspan></tspan></tspan></text>
 <text class="TextShape"><tspan class="TextParagraph" font-family="Liberation Sans" font-size="353px" font-weight="400"><tspan class="TextPosition" x="771" y="3878"><tspan fill="rgb(0,0,0)" stroke="none">0,8</tspan></tspan></tspan></text>
 <text class="TextShape"><tspan class="TextParagraph" font-family="Liberation Sans" font-size="353px" font-weight="400"><tspan class="TextPosition" x="1062" y="2916"><tspan fill="rgb(0,0,0)" stroke="none">1</tspan></tspan></tspan></text>
 <text class="TextShape"><tspan class="TextParagraph" font-family="Liberation Sans" font-size="353px" font-weight="400"><tspan class="TextPosition" x="771" y="1953"><tspan fill="rgb(0,0,0)" stroke="none">1,2</tspan></tspan></tspan></text>
 <text class="TextShape"><tspan class="TextParagraph" font-family="Liberation Sans" font-size="459px" font-weight="400"><tspan class="TextPosition" x="4229" y="851"><tspan fill="rgb(0,0,0)" stroke="none">Linear distance - Varying max distance</tspan></tspan></tspan></text>
 <path fill="none" stroke="rgb(0,69,134)" stroke-width="80" stroke-linejoin="round" d="M 12685,2507 L 13485,2507"/>
 <path fill="none" stroke="rgb(255,66,14)" stroke-width="80" stroke-linejoin="round" d="M 14295,2507 L 15095,2507"/>
 <path fill="none" stroke="rgb(255,211,32)" stroke-width="80" stroke-linejoin="round" d="M 12685,3005 L 13485,3005"/>
 <path fill="none" stroke="rgb(87,157,28)" stroke-width="80" stroke-linejoin="round" d="M 14295,3005 L 15095,3005"/>
 <path fill="none" stroke="rgb(126,0,33)" stroke-width="80" stroke-linejoin="round" d="M 12685,3503 L 13485,3503"/>
 <path fill="none" stroke="rgb(131,202,255)" stroke-width="80" stroke-linejoin="round" d="M 14295,3503 L 15095,3503"/>
 <path fill="none" stroke="rgb(49,64,4)" stroke-width="80" stroke-linejoin="round" d="M 12685,4001 L 13485,4001"/>
 <path fill="none" stroke="rgb(174,207,0)" stroke-width="80" stroke-linejoin="round" d="M 14295,4001 L 15095,4001"/>
 <path fill="none" stroke="rgb(75,31,111)" stroke-width="80" stroke-linejoin="round" d="M 12685,4499 L 13485,4499"/>
 <path fill="none" stroke="rgb(255,149,14)" stroke-width="80" stroke-linejoin="round" d="M 14295,4499 L 15095,4499"/>
 <path fill="none" stroke="rgb(197,0,11)" stroke-width="80" stroke-linejoin="round" d="M 12685,4996 L 13485,4996"/>
 <path fill="none" stroke="rgb(0,132,209)" stroke-width="80" stroke-linejoin="round" d="M 14295,4996 L 15095,4996"/>
 <path fill="none" stroke="rgb(0,69,134)" stroke-width="80" stroke-linejoin="round" d="M 12685,5494 L 13485,5494"/>
 <path fill="none" stroke="rgb(255,66,14)" stroke-width="80" stroke-linejoin="round" d="M 14295,5494 L 15095,5494"/>
 <path fill="none" stroke="rgb(255,211,32)" stroke-width="80" stroke-linejoin="round" d="M 12685,5992 L 13485,5992"/>
 <path fill="none" stroke="rgb(87,157,28)" stroke-width="80" stroke-linejoin="round" d="M 14295,5992 L 15095,5992"/>
 <path fill="none" stroke="rgb(126,0,33)" stroke-width="80" stroke-linejoin="round" d="M 12685,6490 L 13485,6490"/>
 <path fill="none" stroke="rgb(131,202,255)" stroke-width="80" stroke-linejoin="round" d="M 14295,6490 L 15095,6490"/>
 <text class="TextShape"><tspan class="TextParagraph" font-family="Liberation Sans" font-size="353px" font-weight="400"><tspan class="TextPosition" x="13585" y="2627"><tspan fill="rgb(0,0,0)" stroke="none">1</tspan></tspan></tspan></text>
 <text class="TextShape"><tspan class="TextParagraph" font-family="Liberation Sans" font-size="353px" font-weight="400"><tspan class="TextPosition" x="15195" y="2627"><tspan fill="rgb(0,0,0)" stroke="none">1,4</tspan></tspan></tspan></text>
 <text class="TextShape"><tspan class="TextParagraph" font-family="Liberation Sans" font-size="353px" font-weight="400"><tspan class="TextPosition" x="13585" y="3125"><tspan fill="rgb(0,0,0)" stroke="none">1,8</tspan></tspan></tspan></text>
 <text class="TextShape"><tspan class="TextParagraph" font-family="Liberation Sans" font-size="353px" font-weight="400"><tspan class="TextPosition" x="15195" y="3125"><tspan fill="rgb(0,0,0)" stroke="none">2,2</tspan></tspan></tspan></text>
 <text class="TextShape"><tspan class="TextParagraph" font-family="Liberation Sans" font-size="353px" font-weight="400"><tspan class="TextPosition" x="13585" y="3623"><tspan fill="rgb(0,0,0)" stroke="none">2,6</tspan></tspan></tspan></text>
 <text class="TextShape"><tspan class="TextParagraph" font-family="Liberation Sans" font-size="353px" font-weight="400"><tspan class="TextPosition" x="15195" y="3623"><tspan fill="rgb(0,0,0)" stroke="none">3</tspan></tspan></tspan></text>
 <text class="TextShape"><tspan class="TextParagraph" font-family="Liberation Sans" font-size="353px" font-weight="400"><tspan class="TextPosition" x="13585" y="4121"><tspan fill="rgb(0,0,0)" stroke="none">3,4</tspan></tspan></tspan></text>
 <text class="TextShape"><tspan class="TextParagraph" font-family="Liberation Sans" font-size="353px" font-weight="400"><tspan class="TextPosition" x="15195" y="4121"><tspan fill="rgb(0,0,0)" stroke="none">3,8</tspan></tspan></tspan></text>
 <text class="TextShape"><tspan class="TextParagraph" font-family="Liberation Sans" font-size="353px" font-weight="400"><tspan class="TextPosition" x="13585" y="4618"><tspan fill="rgb(0,0,0)" stroke="none">4,2</tspan></tspan></tspan></text>
 <text class="TextShape"><tspan class="TextParagraph" font-family="Liberation Sans" font-size="353px" font-weight="400"><tspan class="TextPosition" x="15195" y="4618"><tspan fill="rgb(0,0,0)" stroke="none">4,6</tspan></tspan></tspan></text>
 <text class="TextShape"><tspan class="TextParagraph" font-family="Liberation Sans" font-size="353px" font-weight="400"><tspan class="TextPosition" x="13585" y="5116"><tspan fill="rgb(0,0,0)" stroke="none">5</tspan></tspan></tspan></text>
 <text class="TextShape"><tspan class="TextParagraph" font-family="Liberation Sans" font-size="353px" font-weight="400"><tspan class="TextPosition" x="15195" y="5116"><tspan fill="rgb(0,0,0)" stroke="none">5,4</tspan></tspan></tspan></text>
 <text class="TextShape"><tspan class="TextParagraph" font-family="Liberation Sans" font-size="353px" font-weight="400"><tspan class="TextPosition" x="13585" y="5614"><tspan fill="rgb(0,0,0)" stroke="none">5,8</tspan></tspan></tspan></text>
 <text class="TextShape"><tspan class="TextParagraph" font-family="Liberation Sans" font-size="353px" font-weight="400"><tspan class="TextPosition" x="15195" y="5614"><tspan fill="rgb(0,0,0)" stroke="none">6,2</tspan></tspan></tspan></text>
 <text class="TextShape"><tspan class="TextParagraph" font-family="Liberation Sans" font-size="353px" font-weight="400"><tspan class="TextPosition" x="13585" y="6112"><tspan fill="rgb(0,0,0)" stroke="none">6,6</tspan></tspan></tspan></text>
 <text class="TextShape"><tspan class="TextParagraph" font-family="Liberation Sans" font-size="353px" font-weight="400"><tspan class="TextPosition" x="15195" y="6112"><tspan fill="rgb(0,0,0)" stroke="none">7</tspan></tspan></tspan></text>
 <text class="TextShape"><tspan class="TextParagraph" font-family="Liberation Sans" font-size="353px" font-weight="400"><tspan class="TextPosition" x="13585" y="6610"><tspan fill="rgb(0,0,0)" stroke="none">7,4</tspan></tspan></tspan></text>
 <text class="TextShape"><tspan class="TextParagraph" font-family="Liberation Sans" font-size="353px" font-weight="400"><tspan class="TextPosition" x="15195" y="6610"><tspan fill="rgb(0,0,0)" stroke="none">7,8</tspan></tspan></tspan></text>
</svg>