<?xml version="1.0" encoding="UTF-8"?><svg xmlns="http://www.w3.org/2000/svg" xmlns:xlink="http://www.w3.org/1999/xlink" fill-opacity="1" color-rendering="auto" color-interpolation="auto" text-rendering="auto" stroke="black" stroke-linecap="square" width="569" stroke-miterlimit="10" shape-rendering="auto" stroke-opacity="1" fill="black" stroke-dasharray="none" font-weight="normal" stroke-width="1" height="280" font-family="'Dialog'" font-style="normal" stroke-linejoin="miter" font-size="12" stroke-dashoffset="0" image-rendering="auto">
  <!--Generated by ySVG 2.5-->
  <defs id="genericDefs"/>
  <g>
    <defs id="defs1">
      <linearGradient x1="44.25" gradientUnits="userSpaceOnUse" x2="50.0894" y1="170" y2="191.9466" id="linearGradient1" spreadMethod="pad">
        <stop stop-opacity="0.8627" stop-color="rgb(255,255,255)" offset="0%"/>
        <stop stop-opacity="0.1255" stop-color="rgb(255,255,255)" offset="100%"/>
      </linearGradient>
      <linearGradient x1="74.25" gradientUnits="userSpaceOnUse" x2="74.25" y1="219" y2="251.5" id="linearGradient2" spreadMethod="pad">
        <stop stop-opacity="1" stop-color="rgb(255,230,191)" offset="0%"/>
        <stop stop-opacity="1" stop-color="rgb(255,173,51)" offset="100%"/>
      </linearGradient>
      <linearGradient x1="134.25" gradientUnits="userSpaceOnUse" x2="134.25" y1="109" y2="141.5" id="linearGradient3" spreadMethod="pad">
        <stop stop-opacity="1" stop-color="rgb(255,230,191)" offset="0%"/>
        <stop stop-opacity="1" stop-color="rgb(255,173,51)" offset="100%"/>
      </linearGradient>
      <linearGradient x1="74.25" gradientUnits="userSpaceOnUse" x2="74.25" y1="109" y2="141.5" id="linearGradient4" spreadMethod="pad">
        <stop stop-opacity="1" stop-color="rgb(255,230,191)" offset="0%"/>
        <stop stop-opacity="1" stop-color="rgb(255,173,51)" offset="100%"/>
      </linearGradient>
      <linearGradient x1="100.5" gradientUnits="userSpaceOnUse" x2="108.4276" y1="50" y2="70.0972" id="linearGradient5" spreadMethod="pad">
        <stop stop-opacity="0.8627" stop-color="rgb(255,255,255)" offset="0%"/>
        <stop stop-opacity="0.1255" stop-color="rgb(255,255,255)" offset="100%"/>
      </linearGradient>
      <linearGradient x1="449.25" gradientUnits="userSpaceOnUse" x2="449.25" y1="219" y2="251.5" id="linearGradient6" spreadMethod="pad">
        <stop stop-opacity="1" stop-color="rgb(255,230,191)" offset="0%"/>
        <stop stop-opacity="1" stop-color="rgb(255,173,51)" offset="100%"/>
      </linearGradient>
      <linearGradient x1="473.25" gradientUnits="userSpaceOnUse" x2="473.25" y1="109" y2="141.5" id="linearGradient7" spreadMethod="pad">
        <stop stop-opacity="1" stop-color="rgb(255,230,191)" offset="0%"/>
        <stop stop-opacity="1" stop-color="rgb(255,173,51)" offset="100%"/>
      </linearGradient>
      <linearGradient x1="456.75" gradientUnits="userSpaceOnUse" x2="465.1436" y1="170" y2="189.5726" id="linearGradient8" spreadMethod="pad">
        <stop stop-opacity="0.8627" stop-color="rgb(255,255,255)" offset="0%"/>
        <stop stop-opacity="0.1255" stop-color="rgb(255,255,255)" offset="100%"/>
      </linearGradient>
      <linearGradient x1="15" gradientUnits="userSpaceOnUse" x2="15" y1="-1" y2="31.5" id="linearGradient9" spreadMethod="pad">
        <stop stop-opacity="1" stop-color="rgb(255,230,191)" offset="0%"/>
        <stop stop-opacity="1" stop-color="rgb(255,173,51)" offset="100%"/>
      </linearGradient>
      <linearGradient x1="335.75" gradientUnits="userSpaceOnUse" x2="335.75" y1="49" y2="81.5" id="linearGradient10" spreadMethod="pad">
        <stop stop-opacity="1" stop-color="rgb(255,230,191)" offset="0%"/>
        <stop stop-opacity="1" stop-color="rgb(255,173,51)" offset="100%"/>
      </linearGradient>
      <linearGradient x1="209.25" gradientUnits="userSpaceOnUse" x2="209.25" y1="109" y2="141.5" id="linearGradient11" spreadMethod="pad">
        <stop stop-opacity="1" stop-color="rgb(255,230,191)" offset="0%"/>
        <stop stop-opacity="1" stop-color="rgb(255,173,51)" offset="100%"/>
      </linearGradient>
      <linearGradient x1="176.75" gradientUnits="userSpaceOnUse" x2="185.1436" y1="170" y2="189.5726" id="linearGradient12" spreadMethod="pad">
        <stop stop-opacity="0.8627" stop-color="rgb(255,255,255)" offset="0%"/>
        <stop stop-opacity="0.1255" stop-color="rgb(255,255,255)" offset="100%"/>
      </linearGradient>
      <linearGradient x1="169.25" gradientUnits="userSpaceOnUse" x2="169.25" y1="219" y2="251.5" id="linearGradient13" spreadMethod="pad">
        <stop stop-opacity="1" stop-color="rgb(255,230,191)" offset="0%"/>
        <stop stop-opacity="1" stop-color="rgb(255,173,51)" offset="100%"/>
      </linearGradient>
      <linearGradient x1="356.75" gradientUnits="userSpaceOnUse" x2="365.1436" y1="170" y2="189.5726" id="linearGradient14" spreadMethod="pad">
        <stop stop-opacity="0.8627" stop-color="rgb(255,255,255)" offset="0%"/>
        <stop stop-opacity="0.1255" stop-color="rgb(255,255,255)" offset="100%"/>
      </linearGradient>
      <linearGradient x1="324.25" gradientUnits="userSpaceOnUse" x2="324.25" y1="109" y2="141.5" id="linearGradient15" spreadMethod="pad">
        <stop stop-opacity="1" stop-color="rgb(255,230,191)" offset="0%"/>
        <stop stop-opacity="1" stop-color="rgb(255,173,51)" offset="100%"/>
      </linearGradient>
      <linearGradient x1="349.25" gradientUnits="userSpaceOnUse" x2="349.25" y1="219" y2="251.5" id="linearGradient16" spreadMethod="pad">
        <stop stop-opacity="1" stop-color="rgb(255,230,191)" offset="0%"/>
        <stop stop-opacity="1" stop-color="rgb(255,173,51)" offset="100%"/>
      </linearGradient>
      <clipPath clipPathUnits="userSpaceOnUse" id="clipPath1">
        <path d="M0 0 L569 0 L569 280 L0 280 L0 0 Z"/>
      </clipPath>
      <clipPath clipPathUnits="userSpaceOnUse" id="clipPath2">
        <path d="M0 -15 L569 -15 L569 265 L0 265 L0 -15 Z"/>
      </clipPath>
    </defs>
    <g fill="white" text-rendering="geometricPrecision" shape-rendering="geometricPrecision" transform="translate(0,15)" stroke="white">
      <rect x="0" width="569" height="280" y="-15" clip-path="url(#clipPath2)" stroke="none"/>
    </g>
    <g fill="rgb(255,153,0)" text-rendering="geometricPrecision" shape-rendering="geometricPrecision" transform="matrix(1,0,0,1,0,15)" stroke="rgb(255,153,0)">
      <rect x="44.25" y="170" clip-path="url(#clipPath2)" width="105" rx="1.5" ry="1.5" height="30" stroke="none"/>
      <path fill="url(#linearGradient1)" d="M45 173 Q45 170.75 47.25 170.75 L109.5 170.75 Q111.75 170.75 111.75 173 Q111.75 175.25 80.625 184.25 Q49.5 193.25 47.25 193.25 Q45 193.25 45 191 Z" clip-path="url(#clipPath2)" stroke="none"/>
    </g>
    <g text-rendering="geometricPrecision" stroke-miterlimit="1.45" shape-rendering="geometricPrecision" font-family="sans-serif" transform="matrix(1,0,0,1,0,15)" stroke-linecap="butt">
      <text x="62.4023" xml:space="preserve" y="189.7139" clip-path="url(#clipPath2)" stroke="none">c++ compiler</text>
    </g>
    <g fill="rgb(255,153,0)" text-rendering="geometricPrecision" shape-rendering="geometricPrecision" transform="matrix(1,0,0,1,0,15)" stroke="rgb(255,153,0)">
      <path d="M74.25 234 L119.25 234 L119.25 240 Q119.25 250 109.25 250 L84.25 250 Q74.25 250 74.25 240 Z" stroke="none" clip-path="url(#clipPath2)"/>
      <path fill="url(#linearGradient2)" d="M74.25 230 Q74.25 220 84.25 220 L109.25 220 Q119.25 220 119.25 230 L119.25 235 L74.25 235 Z" clip-path="url(#clipPath2)" stroke="none"/>
      <path fill="none" d="M76.25 230 Q76.25 222 84.25 222 L109.25 222 Q117.25 222 117.25 230 L117.25 240 Q117.25 248 109.25 248 L84.25 248 Q76.25 248 76.25 240 Z" stroke-width="2" clip-path="url(#clipPath2)" stroke="rgb(255,240,217)"/>
      <path fill="none" d="M76.25 230 Q76.25 222 84.25 222 L109.25 222 Q117.25 222 117.25 230 L117.25 240 Q117.25 248 109.25 248 L84.25 248 Q76.25 248 76.25 240 Z" clip-path="url(#clipPath2)"/>
    </g>
    <g text-rendering="geometricPrecision" stroke-miterlimit="1.45" shape-rendering="geometricPrecision" font-family="sans-serif" transform="matrix(1,0,0,1,0,15)" stroke-linecap="butt">
      <text x="85.7432" xml:space="preserve" y="239.7139" clip-path="url(#clipPath2)" stroke="none">DLL</text>
    </g>
    <g fill="rgb(255,153,0)" text-rendering="geometricPrecision" shape-rendering="geometricPrecision" transform="matrix(1,0,0,1,0,15)" stroke="rgb(255,153,0)">
      <path d="M134.25 124 L179.25 124 L179.25 130 Q179.25 140 169.25 140 L144.25 140 Q134.25 140 134.25 130 Z" stroke="none" clip-path="url(#clipPath2)"/>
      <path fill="url(#linearGradient3)" d="M134.25 120 Q134.25 110 144.25 110 L169.25 110 Q179.25 110 179.25 120 L179.25 125 L134.25 125 Z" clip-path="url(#clipPath2)" stroke="none"/>
      <path fill="none" d="M136.25 120 Q136.25 112 144.25 112 L169.25 112 Q177.25 112 177.25 120 L177.25 130 Q177.25 138 169.25 138 L144.25 138 Q136.25 138 136.25 130 Z" stroke-width="2" clip-path="url(#clipPath2)" stroke="rgb(255,240,217)"/>
      <path fill="none" d="M136.25 120 Q136.25 112 144.25 112 L169.25 112 Q177.25 112 177.25 120 L177.25 130 Q177.25 138 169.25 138 L144.25 138 Q136.25 138 136.25 130 Z" clip-path="url(#clipPath2)"/>
    </g>
    <g text-rendering="geometricPrecision" stroke-miterlimit="1.45" shape-rendering="geometricPrecision" font-family="sans-serif" transform="matrix(1,0,0,1,0,15)" stroke-linecap="butt">
      <text x="146.7422" xml:space="preserve" y="129.7139" clip-path="url(#clipPath2)" stroke="none">.def</text>
    </g>
    <g fill="rgb(255,153,0)" text-rendering="geometricPrecision" shape-rendering="geometricPrecision" transform="matrix(1,0,0,1,0,15)" stroke="rgb(255,153,0)">
      <path d="M74.25 124 L119.25 124 L119.25 130 Q119.25 140 109.25 140 L84.25 140 Q74.25 140 74.25 130 Z" stroke="none" clip-path="url(#clipPath2)"/>
      <path fill="url(#linearGradient4)" d="M74.25 120 Q74.25 110 84.25 110 L109.25 110 Q119.25 110 119.25 120 L119.25 125 L74.25 125 Z" clip-path="url(#clipPath2)" stroke="none"/>
      <path fill="none" d="M76.25 120 Q76.25 112 84.25 112 L109.25 112 Q117.25 112 117.25 120 L117.25 130 Q117.25 138 109.25 138 L84.25 138 Q76.25 138 76.25 130 Z" stroke-width="2" clip-path="url(#clipPath2)" stroke="rgb(255,240,217)"/>
      <path fill="none" d="M76.25 120 Q76.25 112 84.25 112 L109.25 112 Q117.25 112 117.25 120 L117.25 130 Q117.25 138 109.25 138 L84.25 138 Q76.25 138 76.25 130 Z" clip-path="url(#clipPath2)"/>
    </g>
    <g text-rendering="geometricPrecision" stroke-miterlimit="1.45" shape-rendering="geometricPrecision" font-family="sans-serif" transform="matrix(1,0,0,1,0,15)" stroke-linecap="butt">
      <text x="82.0781" xml:space="preserve" y="129.7139" clip-path="url(#clipPath2)" stroke="none">.c / .h</text>
    </g>
    <g fill="rgb(255,153,0)" text-rendering="geometricPrecision" shape-rendering="geometricPrecision" transform="matrix(1,0,0,1,0,15)" stroke="rgb(255,153,0)">
      <rect x="100.5" y="50" clip-path="url(#clipPath2)" width="75" rx="1.5" ry="1.5" height="30" stroke="none"/>
      <path fill="url(#linearGradient5)" d="M101.25 53 Q101.25 50.75 103.5 50.75 L146.25 50.75 Q148.5 50.75 148.5 53 Q148.5 55.25 127.125 64.25 Q105.75 73.25 103.5 73.25 Q101.25 73.25 101.25 71 Z" clip-path="url(#clipPath2)" stroke="none"/>
    </g>
    <g text-rendering="geometricPrecision" stroke-miterlimit="1.45" shape-rendering="geometricPrecision" font-family="sans-serif" transform="matrix(1,0,0,1,0,15)" stroke-linecap="butt">
      <text x="114.9785" xml:space="preserve" y="69.7139" clip-path="url(#clipPath2)" stroke="none">codegen</text>
    </g>
    <g fill="rgb(255,153,0)" text-rendering="geometricPrecision" shape-rendering="geometricPrecision" transform="matrix(1,0,0,1,0,15)" stroke="rgb(255,153,0)">
      <path d="M449.25 234 L534.25 234 L534.25 240 Q534.25 250 524.25 250 L459.25 250 Q449.25 250 449.25 240 Z" stroke="none" clip-path="url(#clipPath2)"/>
      <path fill="url(#linearGradient6)" d="M449.25 230 Q449.25 220 459.25 220 L524.25 220 Q534.25 220 534.25 230 L534.25 235 L449.25 235 Z" clip-path="url(#clipPath2)" stroke="none"/>
      <path fill="none" d="M451.25 230 Q451.25 222 459.25 222 L524.25 222 Q532.25 222 532.25 230 L532.25 240 Q532.25 248 524.25 248 L459.25 248 Q451.25 248 451.25 240 Z" stroke-width="2" clip-path="url(#clipPath2)" stroke="rgb(255,240,217)"/>
      <path fill="none" d="M451.25 230 Q451.25 222 459.25 222 L524.25 222 Q532.25 222 532.25 230 L532.25 240 Q532.25 248 524.25 248 L459.25 248 Q451.25 248 451.25 240 Z" clip-path="url(#clipPath2)"/>
    </g>
    <g text-rendering="geometricPrecision" stroke-miterlimit="1.45" shape-rendering="geometricPrecision" font-family="sans-serif" transform="matrix(1,0,0,1,0,15)" stroke-linecap="butt">
      <text x="462.3916" xml:space="preserve" y="239.7139" clip-path="url(#clipPath2)" stroke="none">soloud.???</text>
    </g>
    <g fill="rgb(255,153,0)" text-rendering="geometricPrecision" shape-rendering="geometricPrecision" transform="matrix(1,0,0,1,0,15)" stroke="rgb(255,153,0)">
      <path d="M473.25 124 L553.25 124 L553.25 130 Q553.25 140 543.25 140 L483.25 140 Q473.25 140 473.25 130 Z" stroke="none" clip-path="url(#clipPath2)"/>
      <path fill="url(#linearGradient7)" d="M473.25 120 Q473.25 110 483.25 110 L543.25 110 Q553.25 110 553.25 120 L553.25 125 L473.25 125 Z" clip-path="url(#clipPath2)" stroke="none"/>
      <path fill="none" d="M475.25 120 Q475.25 112 483.25 112 L543.25 112 Q551.25 112 551.25 120 L551.25 130 Q551.25 138 543.25 138 L483.25 138 Q475.25 138 475.25 130 Z" stroke-width="2" clip-path="url(#clipPath2)" stroke="rgb(255,240,217)"/>
      <path fill="none" d="M475.25 120 Q475.25 112 483.25 112 L543.25 112 Q551.25 112 551.25 120 L551.25 130 Q551.25 138 543.25 138 L483.25 138 Q475.25 138 475.25 130 Z" clip-path="url(#clipPath2)"/>
    </g>
    <g text-rendering="geometricPrecision" stroke-miterlimit="1.45" shape-rendering="geometricPrecision" font-family="sans-serif" transform="matrix(1,0,0,1,0,15)" stroke-linecap="butt">
      <text x="481.8877" xml:space="preserve" y="129.7139" clip-path="url(#clipPath2)" stroke="none">gen_???.py</text>
    </g>
    <g fill="rgb(255,153,0)" text-rendering="geometricPrecision" shape-rendering="geometricPrecision" transform="matrix(1,0,0,1,0,15)" stroke="rgb(255,153,0)">
      <rect x="456.75" y="170" clip-path="url(#clipPath2)" width="70" rx="1.5" ry="1.5" height="30" stroke="none"/>
      <path fill="url(#linearGradient8)" d="M457.5 173 Q457.5 170.75 459.75 170.75 L499.25 170.75 Q501.5 170.75 501.5 173 Q501.5 175.25 481.75 184.25 Q462 193.25 459.75 193.25 Q457.5 193.25 457.5 191 Z" clip-path="url(#clipPath2)" stroke="none"/>
    </g>
    <g text-rendering="geometricPrecision" stroke-miterlimit="1.45" shape-rendering="geometricPrecision" font-family="sans-serif" transform="matrix(1,0,0,1,0,15)" stroke-linecap="butt">
      <text x="473.7354" xml:space="preserve" y="189.7139" clip-path="url(#clipPath2)" stroke="none">python</text>
    </g>
    <g fill="rgb(255,153,0)" text-rendering="geometricPrecision" shape-rendering="geometricPrecision" transform="matrix(1,0,0,1,0,15)" stroke="rgb(255,153,0)">
      <path d="M15 14 L179 14 L179 20 Q179 30 169 30 L25 30 Q15 30 15 20 Z" stroke="none" clip-path="url(#clipPath2)"/>
      <path fill="url(#linearGradient9)" d="M15 10 Q15 0 25 0 L169 0 Q179 0 179 10 L179 15 L15 15 Z" clip-path="url(#clipPath2)" stroke="none"/>
      <path fill="none" d="M17 10 Q17 2 25 2 L169 2 Q177 2 177 10 L177 20 Q177 28 169 28 L25 28 Q17 28 17 20 Z" stroke-width="2" clip-path="url(#clipPath2)" stroke="rgb(255,240,217)"/>
      <path fill="none" d="M17 10 Q17 2 25 2 L169 2 Q177 2 177 10 L177 20 Q177 28 169 28 L25 28 Q17 28 17 20 Z" clip-path="url(#clipPath2)"/>
    </g>
    <g text-rendering="geometricPrecision" stroke-miterlimit="1.45" shape-rendering="geometricPrecision" font-family="sans-serif" transform="matrix(1,0,0,1,0,15)" stroke-linecap="butt">
      <text x="41.9629" xml:space="preserve" y="19.7139" clip-path="url(#clipPath2)" stroke="none">SoLoud c++ sources</text>
    </g>
    <g fill="rgb(255,153,0)" text-rendering="geometricPrecision" shape-rendering="geometricPrecision" transform="matrix(1,0,0,1,0,15)" stroke="rgb(255,153,0)">
      <path d="M335.75 64 L482.75 64 L482.75 70 Q482.75 80 472.75 80 L345.75 80 Q335.75 80 335.75 70 Z" stroke="none" clip-path="url(#clipPath2)"/>
      <path fill="url(#linearGradient10)" d="M335.75 60 Q335.75 50 345.75 50 L472.75 50 Q482.75 50 482.75 60 L482.75 65 L335.75 65 Z" clip-path="url(#clipPath2)" stroke="none"/>
      <path fill="none" d="M337.75 60 Q337.75 52 345.75 52 L472.75 52 Q480.75 52 480.75 60 L480.75 70 Q480.75 78 472.75 78 L345.75 78 Q337.75 78 337.75 70 Z" stroke-width="2" clip-path="url(#clipPath2)" stroke="rgb(255,240,217)"/>
      <path fill="none" d="M337.75 60 Q337.75 52 345.75 52 L472.75 52 Q480.75 52 480.75 60 L480.75 70 Q480.75 78 472.75 78 L345.75 78 Q337.75 78 337.75 70 Z" clip-path="url(#clipPath2)"/>
    </g>
    <g text-rendering="geometricPrecision" stroke-miterlimit="1.45" shape-rendering="geometricPrecision" font-family="sans-serif" transform="matrix(1,0,0,1,0,15)" stroke-linecap="butt">
      <text x="357.207" xml:space="preserve" y="69.7139" clip-path="url(#clipPath2)" stroke="none">soloud_codegen.py</text>
    </g>
    <g fill="rgb(255,153,0)" text-rendering="geometricPrecision" shape-rendering="geometricPrecision" transform="matrix(1,0,0,1,0,15)" stroke="rgb(255,153,0)">
      <path d="M209.25 124 L309.25 124 L309.25 130 Q309.25 140 299.25 140 L219.25 140 Q209.25 140 209.25 130 Z" stroke="none" clip-path="url(#clipPath2)"/>
      <path fill="url(#linearGradient11)" d="M209.25 120 Q209.25 110 219.25 110 L299.25 110 Q309.25 110 309.25 120 L309.25 125 L209.25 125 Z" clip-path="url(#clipPath2)" stroke="none"/>
      <path fill="none" d="M211.25 120 Q211.25 112 219.25 112 L299.25 112 Q307.25 112 307.25 120 L307.25 130 Q307.25 138 299.25 138 L219.25 138 Q211.25 138 211.25 130 Z" stroke-width="2" clip-path="url(#clipPath2)" stroke="rgb(255,240,217)"/>
      <path fill="none" d="M211.25 120 Q211.25 112 219.25 112 L299.25 112 Q307.25 112 307.25 120 L307.25 130 Q307.25 138 299.25 138 L219.25 138 Q211.25 138 211.25 130 Z" clip-path="url(#clipPath2)"/>
    </g>
    <g text-rendering="geometricPrecision" stroke-miterlimit="1.45" shape-rendering="geometricPrecision" font-family="sans-serif" transform="matrix(1,0,0,1,0,15)" stroke-linecap="butt">
      <text x="219.8838" xml:space="preserve" y="129.7139" clip-path="url(#clipPath2)" stroke="none">gen_python.py</text>
    </g>
    <g fill="rgb(255,153,0)" text-rendering="geometricPrecision" shape-rendering="geometricPrecision" transform="matrix(1,0,0,1,0,15)" stroke="rgb(255,153,0)">
      <rect x="176.75" y="170" clip-path="url(#clipPath2)" width="70" rx="1.5" ry="1.5" height="30" stroke="none"/>
      <path fill="url(#linearGradient12)" d="M177.5 173 Q177.5 170.75 179.75 170.75 L219.25 170.75 Q221.5 170.75 221.5 173 Q221.5 175.25 201.75 184.25 Q182 193.25 179.75 193.25 Q177.5 193.25 177.5 191 Z" clip-path="url(#clipPath2)" stroke="none"/>
    </g>
    <g text-rendering="geometricPrecision" stroke-miterlimit="1.45" shape-rendering="geometricPrecision" font-family="sans-serif" transform="matrix(1,0,0,1,0,15)" stroke-linecap="butt">
      <text x="193.7354" xml:space="preserve" y="189.7139" clip-path="url(#clipPath2)" stroke="none">python</text>
    </g>
    <g fill="rgb(255,153,0)" text-rendering="geometricPrecision" shape-rendering="geometricPrecision" transform="matrix(1,0,0,1,0,15)" stroke="rgb(255,153,0)">
      <path d="M169.25 234 L254.25 234 L254.25 240 Q254.25 250 244.25 250 L179.25 250 Q169.25 250 169.25 240 Z" stroke="none" clip-path="url(#clipPath2)"/>
      <path fill="url(#linearGradient13)" d="M169.25 230 Q169.25 220 179.25 220 L244.25 220 Q254.25 220 254.25 230 L254.25 235 L169.25 235 Z" clip-path="url(#clipPath2)" stroke="none"/>
      <path fill="none" d="M171.25 230 Q171.25 222 179.25 222 L244.25 222 Q252.25 222 252.25 230 L252.25 240 Q252.25 248 244.25 248 L179.25 248 Q171.25 248 171.25 240 Z" stroke-width="2" clip-path="url(#clipPath2)" stroke="rgb(255,240,217)"/>
      <path fill="none" d="M171.25 230 Q171.25 222 179.25 222 L244.25 222 Q252.25 222 252.25 230 L252.25 240 Q252.25 248 244.25 248 L179.25 248 Q171.25 248 171.25 240 Z" clip-path="url(#clipPath2)"/>
    </g>
    <g text-rendering="geometricPrecision" stroke-miterlimit="1.45" shape-rendering="geometricPrecision" font-family="sans-serif" transform="matrix(1,0,0,1,0,15)" stroke-linecap="butt">
      <text x="186.0654" xml:space="preserve" y="239.7139" clip-path="url(#clipPath2)" stroke="none">soloud.py</text>
    </g>
    <g fill="rgb(255,153,0)" text-rendering="geometricPrecision" shape-rendering="geometricPrecision" transform="matrix(1,0,0,1,0,15)" stroke="rgb(255,153,0)">
      <rect x="356.75" y="170" clip-path="url(#clipPath2)" width="70" rx="1.5" ry="1.5" height="30" stroke="none"/>
      <path fill="url(#linearGradient14)" d="M357.5 173 Q357.5 170.75 359.75 170.75 L399.25 170.75 Q401.5 170.75 401.5 173 Q401.5 175.25 381.75 184.25 Q362 193.25 359.75 193.25 Q357.5 193.25 357.5 191 Z" clip-path="url(#clipPath2)" stroke="none"/>
    </g>
    <g text-rendering="geometricPrecision" stroke-miterlimit="1.45" shape-rendering="geometricPrecision" font-family="sans-serif" transform="matrix(1,0,0,1,0,15)" stroke-linecap="butt">
      <text x="373.7354" xml:space="preserve" y="189.7139" clip-path="url(#clipPath2)" stroke="none">python</text>
    </g>
    <g fill="rgb(255,153,0)" text-rendering="geometricPrecision" shape-rendering="geometricPrecision" transform="matrix(1,0,0,1,0,15)" stroke="rgb(255,153,0)">
      <path d="M324.25 124 L394.25 124 L394.25 130 Q394.25 140 384.25 140 L334.25 140 Q324.25 140 324.25 130 Z" stroke="none" clip-path="url(#clipPath2)"/>
      <path fill="url(#linearGradient15)" d="M324.25 120 Q324.25 110 334.25 110 L384.25 110 Q394.25 110 394.25 120 L394.25 125 L324.25 125 Z" clip-path="url(#clipPath2)" stroke="none"/>
      <path fill="none" d="M326.25 120 Q326.25 112 334.25 112 L384.25 112 Q392.25 112 392.25 120 L392.25 130 Q392.25 138 384.25 138 L334.25 138 Q326.25 138 326.25 130 Z" stroke-width="2" clip-path="url(#clipPath2)" stroke="rgb(255,240,217)"/>
      <path fill="none" d="M326.25 120 Q326.25 112 334.25 112 L384.25 112 Q392.25 112 392.25 120 L392.25 130 Q392.25 138 384.25 138 L334.25 138 Q326.25 138 326.25 130 Z" clip-path="url(#clipPath2)"/>
    </g>
    <g text-rendering="geometricPrecision" stroke-miterlimit="1.45" shape-rendering="geometricPrecision" font-family="sans-serif" transform="matrix(1,0,0,1,0,15)" stroke-linecap="butt">
      <text x="331.8984" xml:space="preserve" y="129.7139" clip-path="url(#clipPath2)" stroke="none">gen_cs.py</text>
    </g>
    <g fill="rgb(255,153,0)" text-rendering="geometricPrecision" shape-rendering="geometricPrecision" transform="matrix(1,0,0,1,0,15)" stroke="rgb(255,153,0)">
      <path d="M349.25 234 L434.25 234 L434.25 240 Q434.25 250 424.25 250 L359.25 250 Q349.25 250 349.25 240 Z" stroke="none" clip-path="url(#clipPath2)"/>
      <path fill="url(#linearGradient16)" d="M349.25 230 Q349.25 220 359.25 220 L424.25 220 Q434.25 220 434.25 230 L434.25 235 L349.25 235 Z" clip-path="url(#clipPath2)" stroke="none"/>
      <path fill="none" d="M351.25 230 Q351.25 222 359.25 222 L424.25 222 Q432.25 222 432.25 230 L432.25 240 Q432.25 248 424.25 248 L359.25 248 Q351.25 248 351.25 240 Z" stroke-width="2" clip-path="url(#clipPath2)" stroke="rgb(255,240,217)"/>
      <path fill="none" d="M351.25 230 Q351.25 222 359.25 222 L424.25 222 Q432.25 222 432.25 230 L432.25 240 Q432.25 248 424.25 248 L359.25 248 Q351.25 248 351.25 240 Z" clip-path="url(#clipPath2)"/>
    </g>
    <g text-rendering="geometricPrecision" stroke-miterlimit="1.45" shape-rendering="geometricPrecision" font-family="sans-serif" transform="matrix(1,0,0,1,0,15)" stroke-linecap="butt">
      <text x="366.4023" xml:space="preserve" y="239.7139" clip-path="url(#clipPath2)" stroke="none">soloud.cs</text>
    </g>
    <g text-rendering="geometricPrecision" stroke-miterlimit="1.45" shape-rendering="geometricPrecision" transform="matrix(1,0,0,1,0,15)" stroke-linecap="butt">
      <path fill="none" d="M96.75 200 L96.75 211.9609" clip-path="url(#clipPath2)"/>
    </g>
    <g text-rendering="geometricPrecision" stroke-miterlimit="1.45" shape-rendering="geometricPrecision" transform="matrix(1,0,0,1,0,15)" stroke-linecap="butt">
      <path d="M96.75 219.9609 L101.75 207.9609 L96.75 210.9609 L91.75 207.9609 Z" stroke="none" clip-path="url(#clipPath2)"/>
      <path fill="none" d="M156.75 140 L156.75 155 L131.75 155 L131.75 161.9707" clip-path="url(#clipPath2)"/>
      <path d="M131.75 169.9707 L136.75 157.9707 L131.75 160.9707 L126.75 157.9707 Z" clip-path="url(#clipPath2)" stroke="none"/>
      <path fill="none" d="M96.75 140 L96.75 161.9707" clip-path="url(#clipPath2)"/>
      <path d="M96.75 169.9707 L101.75 157.9707 L96.75 160.9707 L91.75 157.9707 Z" clip-path="url(#clipPath2)" stroke="none"/>
      <path fill="none" d="M119.25 80 L119.25 95 L96.75 95 L96.75 101.9707" clip-path="url(#clipPath2)"/>
      <path d="M96.75 109.9707 L101.75 97.9707 L96.75 100.9707 L91.75 97.9707 Z" clip-path="url(#clipPath2)" stroke="none"/>
      <path fill="none" d="M156.75 80 L156.75 101.9707" clip-path="url(#clipPath2)"/>
      <path d="M156.75 109.9707 L161.75 97.9707 L156.75 100.9707 L151.75 97.9707 Z" clip-path="url(#clipPath2)" stroke="none"/>
      <path fill="none" d="M513.25 140 L513.25 155 L509.25 155 L509.25 161.9707" clip-path="url(#clipPath2)"/>
      <path d="M509.25 169.9707 L514.25 157.9707 L509.25 160.9707 L504.25 157.9707 Z" clip-path="url(#clipPath2)" stroke="none"/>
      <path fill="none" d="M491.75 200 L491.75 211.9609" clip-path="url(#clipPath2)"/>
      <path d="M491.75 219.9609 L496.75 207.9609 L491.75 210.9609 L486.75 207.9609 Z" clip-path="url(#clipPath2)" stroke="none"/>
      <path fill="none" d="M56 30 L56 155 L61.75 155 L61.75 161.9707" clip-path="url(#clipPath2)"/>
      <path d="M61.75 169.9707 L66.75 157.9707 L61.75 160.9707 L56.75 157.9707 Z" clip-path="url(#clipPath2)" stroke="none"/>
      <path fill="none" d="M138 30 L138 41.9609" clip-path="url(#clipPath2)"/>
      <path d="M138 49.9609 L143 37.9609 L138 40.9609 L133 37.9609 Z" clip-path="url(#clipPath2)" stroke="none"/>
      <path fill="none" d="M175.5 65 L327.7109 65" clip-path="url(#clipPath2)"/>
      <path d="M335.7109 65 L323.7109 60 L326.7109 65 L323.7109 70 Z" clip-path="url(#clipPath2)" stroke="none"/>
      <path fill="none" d="M458.25 80 L458.25 155 L474.25 155 L474.25 161.9707" clip-path="url(#clipPath2)"/>
      <path d="M474.25 169.9707 L479.25 157.9707 L474.25 160.9707 L469.25 157.9707 Z" clip-path="url(#clipPath2)" stroke="none"/>
      <path fill="none" d="M360.25 80 L360.25 95 L194.25 95 L194.25 161.9634" clip-path="url(#clipPath2)"/>
      <path d="M194.25 169.9634 L199.25 157.9634 L194.25 160.9634 L189.25 157.9634 Z" clip-path="url(#clipPath2)" stroke="none"/>
      <path fill="none" d="M259.25 140 L259.25 155 L229.25 155 L229.25 161.9707" clip-path="url(#clipPath2)"/>
      <path d="M229.25 169.9707 L234.25 157.9707 L229.25 160.9707 L224.25 157.9707 Z" clip-path="url(#clipPath2)" stroke="none"/>
      <path fill="none" d="M211.75 200 L211.75 211.9609" clip-path="url(#clipPath2)"/>
      <path d="M211.75 219.9609 L216.75 207.9609 L211.75 210.9609 L206.75 207.9609 Z" clip-path="url(#clipPath2)" stroke="none"/>
      <path fill="none" d="M409.25 80 L409.25 161.9561" clip-path="url(#clipPath2)"/>
      <path d="M409.25 169.9561 L414.25 157.9561 L409.25 160.9561 L404.25 157.9561 Z" clip-path="url(#clipPath2)" stroke="none"/>
      <path fill="none" d="M359.25 140 L359.25 155 L374.25 155 L374.25 161.9707" clip-path="url(#clipPath2)"/>
      <path d="M374.25 169.9707 L379.25 157.9707 L374.25 160.9707 L369.25 157.9707 Z" clip-path="url(#clipPath2)" stroke="none"/>
      <path fill="none" d="M391.75 200 L391.75 211.9609" clip-path="url(#clipPath2)"/>
      <path d="M391.75 219.9609 L396.75 207.9609 L391.75 210.9609 L386.75 207.9609 Z" clip-path="url(#clipPath2)" stroke="none"/>
    </g>
  </g>
</svg>
