<?xml version="1.0" encoding="UTF-8"?><svg xmlns="http://www.w3.org/2000/svg" xmlns:xlink="http://www.w3.org/1999/xlink" fill-opacity="1" color-rendering="auto" color-interpolation="auto" text-rendering="auto" stroke="black" stroke-linecap="square" width="208" stroke-miterlimit="10" shape-rendering="auto" stroke-opacity="1" fill="black" stroke-dasharray="none" font-weight="normal" stroke-width="1" height="95" font-family="'Dialog'" font-style="normal" stroke-linejoin="miter" font-size="12" stroke-dashoffset="0" image-rendering="auto">
  <!--Generated by ySVG 2.5-->
  <defs id="genericDefs"/>
  <g>
    <defs id="defs1">
      <linearGradient x1="0" gradientUnits="userSpaceOnUse" x2="8.0177" y1="-57.5" y2="-37.5005" id="linearGradient1" spreadMethod="pad">
        <stop stop-opacity="0.8627" stop-color="rgb(255,255,255)" offset="0%"/>
        <stop stop-opacity="0.1255" stop-color="rgb(255,255,255)" offset="100%"/>
      </linearGradient>
      <linearGradient x1="104" gradientUnits="userSpaceOnUse" x2="112.0177" y1="-40" y2="-20.0005" id="linearGradient2" spreadMethod="pad">
        <stop stop-opacity="0.8627" stop-color="rgb(255,255,255)" offset="0%"/>
        <stop stop-opacity="0.1255" stop-color="rgb(255,255,255)" offset="100%"/>
      </linearGradient>
      <linearGradient x1="104" gradientUnits="userSpaceOnUse" x2="112.0177" y1="-75" y2="-55.0005" id="linearGradient3" spreadMethod="pad">
        <stop stop-opacity="0.8627" stop-color="rgb(255,255,255)" offset="0%"/>
        <stop stop-opacity="0.1255" stop-color="rgb(255,255,255)" offset="100%"/>
      </linearGradient>
      <clipPath clipPathUnits="userSpaceOnUse" id="clipPath1">
        <path d="M0 0 L208 0 L208 95 L0 95 L0 0 Z"/>
      </clipPath>
      <clipPath clipPathUnits="userSpaceOnUse" id="clipPath2">
        <path d="M-15 -90 L193 -90 L193 5 L-15 5 L-15 -90 Z"/>
      </clipPath>
    </defs>
    <g fill="white" text-rendering="geometricPrecision" shape-rendering="geometricPrecision" transform="translate(15,90)" stroke="white">
      <rect x="-15" width="208" height="95" y="-90" clip-path="url(#clipPath2)" stroke="none"/>
    </g>
    <g fill="rgb(255,153,0)" text-rendering="geometricPrecision" shape-rendering="geometricPrecision" transform="matrix(1,0,0,1,15,90)" stroke="rgb(255,153,0)">
      <rect x="0" y="-57.5" clip-path="url(#clipPath2)" width="74" rx="1.5" ry="1.5" height="30" stroke="none"/>
      <path fill="url(#linearGradient1)" d="M0.75 -54.5 Q0.75 -56.75 3 -56.75 L45.1 -56.75 Q47.35 -56.75 47.35 -54.5 Q47.35 -52.25 26.3 -43.25 Q5.25 -34.25 3 -34.25 Q0.75 -34.25 0.75 -36.5 Z" clip-path="url(#clipPath2)" stroke="none"/>
    </g>
    <g text-rendering="geometricPrecision" stroke-miterlimit="1.45" shape-rendering="geometricPrecision" font-family="sans-serif" transform="matrix(1,0,0,1,15,90)" stroke-linecap="butt">
      <text x="27.332" xml:space="preserve" y="-37.7861" clip-path="url(#clipPath2)" stroke="none">File</text>
    </g>
    <g fill="rgb(255,153,0)" text-rendering="geometricPrecision" shape-rendering="geometricPrecision" transform="matrix(1,0,0,1,15,90)" stroke="rgb(255,153,0)">
      <rect x="104" y="-40" clip-path="url(#clipPath2)" width="74" rx="1.5" ry="1.5" height="30" stroke="none"/>
      <path fill="url(#linearGradient2)" d="M104.75 -37 Q104.75 -39.25 107 -39.25 L149.1 -39.25 Q151.35 -39.25 151.35 -37 Q151.35 -34.75 130.3 -25.75 Q109.25 -16.75 107 -16.75 Q104.75 -16.75 104.75 -19 Z" clip-path="url(#clipPath2)" stroke="none"/>
    </g>
    <g text-rendering="geometricPrecision" stroke-miterlimit="1.45" shape-rendering="geometricPrecision" font-family="sans-serif" transform="matrix(1,0,0,1,15,90)" stroke-linecap="butt">
      <text x="119.666" xml:space="preserve" y="-20.2861" clip-path="url(#clipPath2)" stroke="none">DiskFile</text>
    </g>
    <g fill="rgb(255,153,0)" text-rendering="geometricPrecision" shape-rendering="geometricPrecision" transform="matrix(1,0,0,1,15,90)" stroke="rgb(255,153,0)">
      <rect x="104" y="-75" clip-path="url(#clipPath2)" width="74" rx="1.5" ry="1.5" height="30" stroke="none"/>
      <path fill="url(#linearGradient3)" d="M104.75 -72 Q104.75 -74.25 107 -74.25 L149.1 -74.25 Q151.35 -74.25 151.35 -72 Q151.35 -69.75 130.3 -60.75 Q109.25 -51.75 107 -51.75 Q104.75 -51.75 104.75 -54 Z" clip-path="url(#clipPath2)" stroke="none"/>
    </g>
    <g text-rendering="geometricPrecision" stroke-miterlimit="1.45" shape-rendering="geometricPrecision" font-family="sans-serif" transform="matrix(1,0,0,1,15,90)" stroke-linecap="butt">
      <text x="109.6641" xml:space="preserve" y="-55.2861" clip-path="url(#clipPath2)" stroke="none">MemoryFile</text>
    </g>
    <g text-rendering="geometricPrecision" stroke-miterlimit="1.45" shape-rendering="geometricPrecision" transform="matrix(1,0,0,1,15,90)" stroke-linecap="butt">
      <path fill="none" d="M74 -35 L89 -35 L89 -25 L95.9707 -25" clip-path="url(#clipPath2)"/>
    </g>
    <g text-rendering="geometricPrecision" stroke-miterlimit="1.45" shape-rendering="geometricPrecision" transform="matrix(1,0,0,1,15,90)" stroke-linecap="butt">
      <path d="M103.9707 -25 L91.9707 -30 L94.9707 -25 L91.9707 -20 Z" stroke="none" clip-path="url(#clipPath2)"/>
      <path fill="none" d="M74 -50 L89 -50 L89 -60 L95.9707 -60" clip-path="url(#clipPath2)"/>
      <path d="M103.9707 -60 L91.9707 -65 L94.9707 -60 L91.9707 -55 Z" clip-path="url(#clipPath2)" stroke="none"/>
    </g>
  </g>
</svg>
