<?xml version="1.0" encoding="UTF-8"?><svg xmlns="http://www.w3.org/2000/svg" xmlns:xlink="http://www.w3.org/1999/xlink" fill-opacity="1" color-rendering="auto" color-interpolation="auto" text-rendering="auto" stroke="black" stroke-linecap="square" width="336" stroke-miterlimit="10" shape-rendering="auto" stroke-opacity="1" fill="black" stroke-dasharray="none" font-weight="normal" stroke-width="1" height="340" font-family="'Dialog'" font-style="normal" stroke-linejoin="miter" font-size="12" stroke-dashoffset="0" image-rendering="auto">
  <!--Generated by ySVG 2.5-->
  <defs id="genericDefs"/>
  <g>
    <defs id="defs1">
      <linearGradient x1="0" gradientUnits="userSpaceOnUse" x2="2.7892" y1="-40" y2="-17.2559" id="linearGradient1" spreadMethod="pad">
        <stop stop-opacity="0.8627" stop-color="rgb(255,255,255)" offset="0%"/>
        <stop stop-opacity="0.1255" stop-color="rgb(255,255,255)" offset="100%"/>
      </linearGradient>
      <linearGradient x1="0" gradientUnits="userSpaceOnUse" x2="2.7892" y1="-110" y2="-87.2559" id="linearGradient2" spreadMethod="pad">
        <stop stop-opacity="0.8627" stop-color="rgb(255,255,255)" offset="0%"/>
        <stop stop-opacity="0.1255" stop-color="rgb(255,255,255)" offset="100%"/>
      </linearGradient>
      <linearGradient x1="112" gradientUnits="userSpaceOnUse" x2="114.7892" y1="-75" y2="-52.2559" id="linearGradient3" spreadMethod="pad">
        <stop stop-opacity="0.8627" stop-color="rgb(255,255,255)" offset="0%"/>
        <stop stop-opacity="0.1255" stop-color="rgb(255,255,255)" offset="100%"/>
      </linearGradient>
      <linearGradient x1="112" gradientUnits="userSpaceOnUse" x2="114.7892" y1="-180" y2="-157.2559" id="linearGradient4" spreadMethod="pad">
        <stop stop-opacity="0.8627" stop-color="rgb(255,255,255)" offset="0%"/>
        <stop stop-opacity="0.1255" stop-color="rgb(255,255,255)" offset="100%"/>
      </linearGradient>
      <linearGradient x1="112" gradientUnits="userSpaceOnUse" x2="114.7892" y1="-285" y2="-262.2559" id="linearGradient5" spreadMethod="pad">
        <stop stop-opacity="0.8627" stop-color="rgb(255,255,255)" offset="0%"/>
        <stop stop-opacity="0.1255" stop-color="rgb(255,255,255)" offset="100%"/>
      </linearGradient>
      <linearGradient x1="224" gradientUnits="userSpaceOnUse" x2="226.7892" y1="-180" y2="-157.2559" id="linearGradient6" spreadMethod="pad">
        <stop stop-opacity="0.8627" stop-color="rgb(255,255,255)" offset="0%"/>
        <stop stop-opacity="0.1255" stop-color="rgb(255,255,255)" offset="100%"/>
      </linearGradient>
      <linearGradient x1="0" gradientUnits="userSpaceOnUse" x2="2.7892" y1="-75" y2="-52.2559" id="linearGradient7" spreadMethod="pad">
        <stop stop-opacity="0.8627" stop-color="rgb(255,255,255)" offset="0%"/>
        <stop stop-opacity="0.1255" stop-color="rgb(255,255,255)" offset="100%"/>
      </linearGradient>
      <linearGradient x1="0" gradientUnits="userSpaceOnUse" x2="2.7892" y1="-180" y2="-157.2559" id="linearGradient8" spreadMethod="pad">
        <stop stop-opacity="0.8627" stop-color="rgb(255,255,255)" offset="0%"/>
        <stop stop-opacity="0.1255" stop-color="rgb(255,255,255)" offset="100%"/>
      </linearGradient>
      <linearGradient x1="0" gradientUnits="userSpaceOnUse" x2="2.7892" y1="-215" y2="-192.2559" id="linearGradient9" spreadMethod="pad">
        <stop stop-opacity="0.8627" stop-color="rgb(255,255,255)" offset="0%"/>
        <stop stop-opacity="0.1255" stop-color="rgb(255,255,255)" offset="100%"/>
      </linearGradient>
      <linearGradient x1="0" gradientUnits="userSpaceOnUse" x2="2.7892" y1="-145" y2="-122.2559" id="linearGradient10" spreadMethod="pad">
        <stop stop-opacity="0.8627" stop-color="rgb(255,255,255)" offset="0%"/>
        <stop stop-opacity="0.1255" stop-color="rgb(255,255,255)" offset="100%"/>
      </linearGradient>
      <linearGradient x1="0" gradientUnits="userSpaceOnUse" x2="2.7892" y1="-320" y2="-297.2559" id="linearGradient11" spreadMethod="pad">
        <stop stop-opacity="0.8627" stop-color="rgb(255,255,255)" offset="0%"/>
        <stop stop-opacity="0.1255" stop-color="rgb(255,255,255)" offset="100%"/>
      </linearGradient>
      <linearGradient x1="0" gradientUnits="userSpaceOnUse" x2="2.7892" y1="-285" y2="-262.2559" id="linearGradient12" spreadMethod="pad">
        <stop stop-opacity="0.8627" stop-color="rgb(255,255,255)" offset="0%"/>
        <stop stop-opacity="0.1255" stop-color="rgb(255,255,255)" offset="100%"/>
      </linearGradient>
      <linearGradient x1="0" gradientUnits="userSpaceOnUse" x2="2.7892" y1="-250" y2="-227.2559" id="linearGradient13" spreadMethod="pad">
        <stop stop-opacity="0.8627" stop-color="rgb(255,255,255)" offset="0%"/>
        <stop stop-opacity="0.1255" stop-color="rgb(255,255,255)" offset="100%"/>
      </linearGradient>
      <clipPath clipPathUnits="userSpaceOnUse" id="clipPath1">
        <path d="M0 0 L336 0 L336 340 L0 340 L0 0 Z"/>
      </clipPath>
      <clipPath clipPathUnits="userSpaceOnUse" id="clipPath2">
        <path d="M-15 -335 L321 -335 L321 5 L-15 5 L-15 -335 Z"/>
      </clipPath>
    </defs>
    <g fill="white" text-rendering="geometricPrecision" shape-rendering="geometricPrecision" transform="translate(15,335)" stroke="white">
      <rect x="-15" width="336" height="340" y="-335" clip-path="url(#clipPath2)" stroke="none"/>
    </g>
    <g fill="rgb(255,153,0)" text-rendering="geometricPrecision" shape-rendering="geometricPrecision" transform="matrix(1,0,0,1,15,335)" stroke="rgb(255,153,0)">
      <rect x="0" y="-40" clip-path="url(#clipPath2)" width="82" rx="5" ry="5" height="30" stroke="none"/>
      <path fill="url(#linearGradient1)" d="M2.5 -30 Q2.5 -37.5 10 -37.5 L43.3 -37.5 Q50.8 -37.5 50.8 -30 Q50.8 -22.5 34.15 -20.5 Q17.5 -18.5 10 -18.5 Q2.5 -18.5 2.5 -26 Z" clip-path="url(#clipPath2)" stroke="none"/>
    </g>
    <g text-rendering="geometricPrecision" stroke-miterlimit="1.45" shape-rendering="geometricPrecision" font-family="sans-serif" transform="matrix(1,0,0,1,15,335)" stroke-linecap="butt">
      <text x="20.6504" xml:space="preserve" y="-20.2861" clip-path="url(#clipPath2)" stroke="none">Speech</text>
    </g>
    <g fill="rgb(255,153,0)" text-rendering="geometricPrecision" shape-rendering="geometricPrecision" transform="matrix(1,0,0,1,15,335)" stroke="rgb(255,153,0)">
      <rect x="0" y="-110" clip-path="url(#clipPath2)" width="82" rx="5" ry="5" height="30" stroke="none"/>
      <path fill="url(#linearGradient2)" d="M2.5 -100 Q2.5 -107.5 10 -107.5 L43.3 -107.5 Q50.8 -107.5 50.8 -100 Q50.8 -92.5 34.15 -90.5 Q17.5 -88.5 10 -88.5 Q2.5 -88.5 2.5 -96 Z" clip-path="url(#clipPath2)" stroke="none"/>
    </g>
    <g text-rendering="geometricPrecision" stroke-miterlimit="1.45" shape-rendering="geometricPrecision" font-family="sans-serif" transform="matrix(1,0,0,1,15,335)" stroke-linecap="butt">
      <text x="20.6504" xml:space="preserve" y="-90.2861" clip-path="url(#clipPath2)" stroke="none">Speech</text>
    </g>
    <g fill="rgb(255,153,0)" text-rendering="geometricPrecision" shape-rendering="geometricPrecision" transform="matrix(1,0,0,1,15,335)" stroke="rgb(255,153,0)">
      <rect x="112" y="-75" clip-path="url(#clipPath2)" width="82" rx="5" ry="5" height="30" stroke="none"/>
      <path fill="url(#linearGradient3)" d="M114.5 -65 Q114.5 -72.5 122 -72.5 L155.3 -72.5 Q162.8 -72.5 162.8 -65 Q162.8 -57.5 146.15 -55.5 Q129.5 -53.5 122 -53.5 Q114.5 -53.5 114.5 -61 Z" clip-path="url(#clipPath2)" stroke="none"/>
    </g>
    <g text-rendering="geometricPrecision" stroke-miterlimit="1.45" shape-rendering="geometricPrecision" font-family="sans-serif" transform="matrix(1,0,0,1,15,335)" stroke-linecap="butt">
      <text x="124.3213" xml:space="preserve" y="-55.2861" clip-path="url(#clipPath2)" stroke="none">Mixing bus</text>
    </g>
    <g fill="rgb(255,153,0)" text-rendering="geometricPrecision" shape-rendering="geometricPrecision" transform="matrix(1,0,0,1,15,335)" stroke="rgb(255,153,0)">
      <rect x="112" y="-180" clip-path="url(#clipPath2)" width="82" rx="5" ry="5" height="30" stroke="none"/>
      <path fill="url(#linearGradient4)" d="M114.5 -170 Q114.5 -177.5 122 -177.5 L155.3 -177.5 Q162.8 -177.5 162.8 -170 Q162.8 -162.5 146.15 -160.5 Q129.5 -158.5 122 -158.5 Q114.5 -158.5 114.5 -166 Z" clip-path="url(#clipPath2)" stroke="none"/>
    </g>
    <g text-rendering="geometricPrecision" stroke-miterlimit="1.45" shape-rendering="geometricPrecision" font-family="sans-serif" transform="matrix(1,0,0,1,15,335)" stroke-linecap="butt">
      <text x="124.3213" xml:space="preserve" y="-160.2861" clip-path="url(#clipPath2)" stroke="none">Mixing bus</text>
    </g>
    <g fill="rgb(255,153,0)" text-rendering="geometricPrecision" shape-rendering="geometricPrecision" transform="matrix(1,0,0,1,15,335)" stroke="rgb(255,153,0)">
      <rect x="112" y="-285" clip-path="url(#clipPath2)" width="82" rx="5" ry="5" height="30" stroke="none"/>
      <path fill="url(#linearGradient5)" d="M114.5 -275 Q114.5 -282.5 122 -282.5 L155.3 -282.5 Q162.8 -282.5 162.8 -275 Q162.8 -267.5 146.15 -265.5 Q129.5 -263.5 122 -263.5 Q114.5 -263.5 114.5 -271 Z" clip-path="url(#clipPath2)" stroke="none"/>
    </g>
    <g text-rendering="geometricPrecision" stroke-miterlimit="1.45" shape-rendering="geometricPrecision" font-family="sans-serif" transform="matrix(1,0,0,1,15,335)" stroke-linecap="butt">
      <text x="124.3213" xml:space="preserve" y="-265.2861" clip-path="url(#clipPath2)" stroke="none">Mixing bus</text>
    </g>
    <g fill="rgb(255,153,0)" text-rendering="geometricPrecision" shape-rendering="geometricPrecision" transform="matrix(1,0,0,1,15,335)" stroke="rgb(255,153,0)">
      <rect x="224" y="-180" clip-path="url(#clipPath2)" width="82" rx="5" ry="5" height="30" stroke="none"/>
      <path fill="url(#linearGradient6)" d="M226.5 -170 Q226.5 -177.5 234 -177.5 L267.3 -177.5 Q274.8 -177.5 274.8 -170 Q274.8 -162.5 258.15 -160.5 Q241.5 -158.5 234 -158.5 Q226.5 -158.5 226.5 -166 Z" clip-path="url(#clipPath2)" stroke="none"/>
    </g>
    <g text-rendering="geometricPrecision" stroke-miterlimit="1.45" shape-rendering="geometricPrecision" font-family="sans-serif" transform="matrix(1,0,0,1,15,335)" stroke-linecap="butt">
      <text x="240.9971" xml:space="preserve" y="-160.2861" clip-path="url(#clipPath2)" stroke="none">Final mix</text>
    </g>
    <g fill="rgb(255,153,0)" text-rendering="geometricPrecision" shape-rendering="geometricPrecision" transform="matrix(1,0,0,1,15,335)" stroke="rgb(255,153,0)">
      <rect x="0" y="-75" clip-path="url(#clipPath2)" width="82" rx="5" ry="5" height="30" stroke="none"/>
      <path fill="url(#linearGradient7)" d="M2.5 -65 Q2.5 -72.5 10 -72.5 L43.3 -72.5 Q50.8 -72.5 50.8 -65 Q50.8 -57.5 34.15 -55.5 Q17.5 -53.5 10 -53.5 Q2.5 -53.5 2.5 -61 Z" clip-path="url(#clipPath2)" stroke="none"/>
    </g>
    <g text-rendering="geometricPrecision" stroke-miterlimit="1.45" shape-rendering="geometricPrecision" font-family="sans-serif" transform="matrix(1,0,0,1,15,335)" stroke-linecap="butt">
      <text x="20.6504" xml:space="preserve" y="-55.2861" clip-path="url(#clipPath2)" stroke="none">Speech</text>
    </g>
    <g fill="rgb(255,153,0)" text-rendering="geometricPrecision" shape-rendering="geometricPrecision" transform="matrix(1,0,0,1,15,335)" stroke="rgb(255,153,0)">
      <rect x="0" y="-180" clip-path="url(#clipPath2)" width="82" rx="5" ry="5" height="30" stroke="none"/>
      <path fill="url(#linearGradient8)" d="M2.5 -170 Q2.5 -177.5 10 -177.5 L43.3 -177.5 Q50.8 -177.5 50.8 -170 Q50.8 -162.5 34.15 -160.5 Q17.5 -158.5 10 -158.5 Q2.5 -158.5 2.5 -166 Z" clip-path="url(#clipPath2)" stroke="none"/>
    </g>
    <g text-rendering="geometricPrecision" stroke-miterlimit="1.45" shape-rendering="geometricPrecision" font-family="sans-serif" transform="matrix(1,0,0,1,15,335)" stroke-linecap="butt">
      <text x="32.3311" xml:space="preserve" y="-160.2861" clip-path="url(#clipPath2)" stroke="none">Sfx</text>
    </g>
    <g fill="rgb(255,153,0)" text-rendering="geometricPrecision" shape-rendering="geometricPrecision" transform="matrix(1,0,0,1,15,335)" stroke="rgb(255,153,0)">
      <rect x="0" y="-215" clip-path="url(#clipPath2)" width="82" rx="5" ry="5" height="30" stroke="none"/>
      <path fill="url(#linearGradient9)" d="M2.5 -205 Q2.5 -212.5 10 -212.5 L43.3 -212.5 Q50.8 -212.5 50.8 -205 Q50.8 -197.5 34.15 -195.5 Q17.5 -193.5 10 -193.5 Q2.5 -193.5 2.5 -201 Z" clip-path="url(#clipPath2)" stroke="none"/>
    </g>
    <g text-rendering="geometricPrecision" stroke-miterlimit="1.45" shape-rendering="geometricPrecision" font-family="sans-serif" transform="matrix(1,0,0,1,15,335)" stroke-linecap="butt">
      <text x="32.3311" xml:space="preserve" y="-195.2861" clip-path="url(#clipPath2)" stroke="none">Sfx</text>
    </g>
    <g fill="rgb(255,153,0)" text-rendering="geometricPrecision" shape-rendering="geometricPrecision" transform="matrix(1,0,0,1,15,335)" stroke="rgb(255,153,0)">
      <rect x="0" y="-145" clip-path="url(#clipPath2)" width="82" rx="5" ry="5" height="30" stroke="none"/>
      <path fill="url(#linearGradient10)" d="M2.5 -135 Q2.5 -142.5 10 -142.5 L43.3 -142.5 Q50.8 -142.5 50.8 -135 Q50.8 -127.5 34.15 -125.5 Q17.5 -123.5 10 -123.5 Q2.5 -123.5 2.5 -131 Z" clip-path="url(#clipPath2)" stroke="none"/>
    </g>
    <g text-rendering="geometricPrecision" stroke-miterlimit="1.45" shape-rendering="geometricPrecision" font-family="sans-serif" transform="matrix(1,0,0,1,15,335)" stroke-linecap="butt">
      <text x="32.3311" xml:space="preserve" y="-125.2861" clip-path="url(#clipPath2)" stroke="none">Sfx</text>
    </g>
    <g fill="rgb(255,153,0)" text-rendering="geometricPrecision" shape-rendering="geometricPrecision" transform="matrix(1,0,0,1,15,335)" stroke="rgb(255,153,0)">
      <rect x="0" y="-320" clip-path="url(#clipPath2)" width="82" rx="5" ry="5" height="30" stroke="none"/>
      <path fill="url(#linearGradient11)" d="M2.5 -310 Q2.5 -317.5 10 -317.5 L43.3 -317.5 Q50.8 -317.5 50.8 -310 Q50.8 -302.5 34.15 -300.5 Q17.5 -298.5 10 -298.5 Q2.5 -298.5 2.5 -306 Z" clip-path="url(#clipPath2)" stroke="none"/>
    </g>
    <g text-rendering="geometricPrecision" stroke-miterlimit="1.45" shape-rendering="geometricPrecision" font-family="sans-serif" transform="matrix(1,0,0,1,15,335)" stroke-linecap="butt">
      <text x="25.332" xml:space="preserve" y="-300.2861" clip-path="url(#clipPath2)" stroke="none">Music</text>
    </g>
    <g fill="rgb(255,153,0)" text-rendering="geometricPrecision" shape-rendering="geometricPrecision" transform="matrix(1,0,0,1,15,335)" stroke="rgb(255,153,0)">
      <rect x="0" y="-285" clip-path="url(#clipPath2)" width="82" rx="5" ry="5" height="30" stroke="none"/>
      <path fill="url(#linearGradient12)" d="M2.5 -275 Q2.5 -282.5 10 -282.5 L43.3 -282.5 Q50.8 -282.5 50.8 -275 Q50.8 -267.5 34.15 -265.5 Q17.5 -263.5 10 -263.5 Q2.5 -263.5 2.5 -271 Z" clip-path="url(#clipPath2)" stroke="none"/>
    </g>
    <g text-rendering="geometricPrecision" stroke-miterlimit="1.45" shape-rendering="geometricPrecision" font-family="sans-serif" transform="matrix(1,0,0,1,15,335)" stroke-linecap="butt">
      <text x="25.332" xml:space="preserve" y="-265.2861" clip-path="url(#clipPath2)" stroke="none">Music</text>
    </g>
    <g fill="rgb(255,153,0)" text-rendering="geometricPrecision" shape-rendering="geometricPrecision" transform="matrix(1,0,0,1,15,335)" stroke="rgb(255,153,0)">
      <rect x="0" y="-250" clip-path="url(#clipPath2)" width="82" rx="5" ry="5" height="30" stroke="none"/>
      <path fill="url(#linearGradient13)" d="M2.5 -240 Q2.5 -247.5 10 -247.5 L43.3 -247.5 Q50.8 -247.5 50.8 -240 Q50.8 -232.5 34.15 -230.5 Q17.5 -228.5 10 -228.5 Q2.5 -228.5 2.5 -236 Z" clip-path="url(#clipPath2)" stroke="none"/>
    </g>
    <g text-rendering="geometricPrecision" stroke-miterlimit="1.45" shape-rendering="geometricPrecision" font-family="sans-serif" transform="matrix(1,0,0,1,15,335)" stroke-linecap="butt">
      <text x="25.332" xml:space="preserve" y="-230.2861" clip-path="url(#clipPath2)" stroke="none">Music</text>
    </g>
    <g text-rendering="geometricPrecision" stroke-miterlimit="1.45" shape-rendering="geometricPrecision" transform="matrix(1,0,0,1,15,335)" stroke-linecap="butt">
      <path fill="none" d="M82 -25 L97 -25 L97 -50 L103.9707 -50" clip-path="url(#clipPath2)"/>
    </g>
    <g text-rendering="geometricPrecision" stroke-miterlimit="1.45" shape-rendering="geometricPrecision" transform="matrix(1,0,0,1,15,335)" stroke-linecap="butt">
      <path d="M111.9707 -50 L99.9707 -55 L102.9707 -50 L99.9707 -45 Z" stroke="none" clip-path="url(#clipPath2)"/>
      <path fill="none" d="M82 -95 L97 -95 L97 -70 L103.9707 -70" clip-path="url(#clipPath2)"/>
      <path d="M111.9707 -70 L99.9707 -75 L102.9707 -70 L99.9707 -65 Z" clip-path="url(#clipPath2)" stroke="none"/>
      <path fill="none" d="M194 -60 L209 -60 L209 -155 L215.9707 -155" clip-path="url(#clipPath2)"/>
      <path d="M223.9707 -155 L211.9707 -160 L214.9707 -155 L211.9707 -150 Z" clip-path="url(#clipPath2)" stroke="none"/>
      <path fill="none" d="M194 -165 L215.9707 -165" clip-path="url(#clipPath2)"/>
      <path d="M223.9707 -165 L211.9707 -170 L214.9707 -165 L211.9707 -160 Z" clip-path="url(#clipPath2)" stroke="none"/>
      <path fill="none" d="M194 -270 L209 -270 L209 -175 L215.9707 -175" clip-path="url(#clipPath2)"/>
      <path d="M223.9707 -175 L211.9707 -180 L214.9707 -175 L211.9707 -170 Z" clip-path="url(#clipPath2)" stroke="none"/>
      <path fill="none" d="M82 -60 L103.9707 -60" clip-path="url(#clipPath2)"/>
      <path d="M111.9707 -60 L99.9707 -65 L102.9707 -60 L99.9707 -55 Z" clip-path="url(#clipPath2)" stroke="none"/>
      <path fill="none" d="M82 -165 L103.9707 -165" clip-path="url(#clipPath2)"/>
      <path d="M111.9707 -165 L99.9707 -170 L102.9707 -165 L99.9707 -160 Z" clip-path="url(#clipPath2)" stroke="none"/>
      <path fill="none" d="M82 -200 L97 -200 L97 -175 L103.9707 -175" clip-path="url(#clipPath2)"/>
      <path d="M111.9707 -175 L99.9707 -180 L102.9707 -175 L99.9707 -170 Z" clip-path="url(#clipPath2)" stroke="none"/>
      <path fill="none" d="M82 -130 L97 -130 L97 -155 L103.9707 -155" clip-path="url(#clipPath2)"/>
      <path d="M111.9707 -155 L99.9707 -160 L102.9707 -155 L99.9707 -150 Z" clip-path="url(#clipPath2)" stroke="none"/>
      <path fill="none" d="M82 -305 L97 -305 L97 -280 L103.9707 -280" clip-path="url(#clipPath2)"/>
      <path d="M111.9707 -280 L99.9707 -285 L102.9707 -280 L99.9707 -275 Z" clip-path="url(#clipPath2)" stroke="none"/>
      <path fill="none" d="M82 -270 L103.9707 -270" clip-path="url(#clipPath2)"/>
      <path d="M111.9707 -270 L99.9707 -275 L102.9707 -270 L99.9707 -265 Z" clip-path="url(#clipPath2)" stroke="none"/>
      <path fill="none" d="M82 -235 L97 -235 L97 -260 L103.9707 -260" clip-path="url(#clipPath2)"/>
      <path d="M111.9707 -260 L99.9707 -265 L102.9707 -260 L99.9707 -255 Z" clip-path="url(#clipPath2)" stroke="none"/>
    </g>
  </g>
</svg>
