<?xml version="1.0" encoding="UTF-8"?>
<!DOCTYPE svg PUBLIC "-//W3C//DTD SVG 1.1//EN" "http://www.w3.org/Graphics/SVG/1.1/DTD/svg11.dtd">
<svg width="160mm" height="90mm" viewBox="0 0 16000 9000">
 <path fill="rgb(255,255,255)" stroke="none" d="M 8000,8986 L 0,8986 0,0 16000,0 16000,8986 8000,8986 Z"/>
 <path fill="none" stroke="rgb(179,179,179)" stroke-linejoin="round" d="M 6870,7444 L 1497,7444 1497,1063 12243,1063 12243,7444 6870,7444 Z"/>
 <path fill="none" stroke="rgb(179,179,179)" stroke-linejoin="round" d="M 12243,7443 L 1497,7443"/>
 <path fill="none" stroke="rgb(179,179,179)" stroke-linejoin="round" d="M 12243,6531 L 1497,6531"/>
 <path fill="none" stroke="rgb(179,179,179)" stroke-linejoin="round" d="M 12243,5619 L 1497,5619"/>
 <path fill="none" stroke="rgb(179,179,179)" stroke-linejoin="round" d="M 12243,4707 L 1497,4707"/>
 <path fill="none" stroke="rgb(179,179,179)" stroke-linejoin="round" d="M 12243,3797 L 1497,3797"/>
 <path fill="none" stroke="rgb(179,179,179)" stroke-linejoin="round" d="M 12243,2885 L 1497,2885"/>
 <path fill="none" stroke="rgb(179,179,179)" stroke-linejoin="round" d="M 12243,1973 L 1497,1973"/>
 <path fill="none" stroke="rgb(179,179,179)" stroke-linejoin="round" d="M 12243,1062 L 1497,1062"/>
 <path fill="none" stroke="rgb(179,179,179)" stroke-linejoin="round" d="M 1497,7593 L 1497,7443"/>
 <path fill="none" stroke="rgb(179,179,179)" stroke-linejoin="round" d="M 1497,7593 L 1497,7443"/>
 <path fill="none" stroke="rgb(179,179,179)" stroke-linejoin="round" d="M 1557,7593 L 1557,7443"/>
 <path fill="none" stroke="rgb(179,179,179)" stroke-linejoin="round" d="M 1557,7593 L 1557,7443"/>
 <path fill="none" stroke="rgb(179,179,179)" stroke-linejoin="round" d="M 1617,7593 L 1617,7443"/>
 <path fill="none" stroke="rgb(179,179,179)" stroke-linejoin="round" d="M 1617,7593 L 1617,7443"/>
 <path fill="none" stroke="rgb(179,179,179)" stroke-linejoin="round" d="M 1677,7593 L 1677,7443"/>
 <path fill="none" stroke="rgb(179,179,179)" stroke-linejoin="round" d="M 1677,7593 L 1677,7443"/>
 <path fill="none" stroke="rgb(179,179,179)" stroke-linejoin="round" d="M 1737,7593 L 1737,7443"/>
 <path fill="none" stroke="rgb(179,179,179)" stroke-linejoin="round" d="M 1737,7593 L 1737,7443"/>
 <path fill="none" stroke="rgb(179,179,179)" stroke-linejoin="round" d="M 1797,7593 L 1797,7443"/>
 <path fill="none" stroke="rgb(179,179,179)" stroke-linejoin="round" d="M 1797,7593 L 1797,7443"/>
 <path fill="none" stroke="rgb(179,179,179)" stroke-linejoin="round" d="M 1857,7593 L 1857,7443"/>
 <path fill="none" stroke="rgb(179,179,179)" stroke-linejoin="round" d="M 1857,7593 L 1857,7443"/>
 <path fill="none" stroke="rgb(179,179,179)" stroke-linejoin="round" d="M 1917,7593 L 1917,7443"/>
 <path fill="none" stroke="rgb(179,179,179)" stroke-linejoin="round" d="M 1917,7593 L 1917,7443"/>
 <path fill="none" stroke="rgb(179,179,179)" stroke-linejoin="round" d="M 1977,7593 L 1977,7443"/>
 <path fill="none" stroke="rgb(179,179,179)" stroke-linejoin="round" d="M 1977,7593 L 1977,7443"/>
 <path fill="none" stroke="rgb(179,179,179)" stroke-linejoin="round" d="M 2037,7593 L 2037,7443"/>
 <path fill="none" stroke="rgb(179,179,179)" stroke-linejoin="round" d="M 2037,7593 L 2037,7443"/>
 <path fill="none" stroke="rgb(179,179,179)" stroke-linejoin="round" d="M 2097,7593 L 2097,7443"/>
 <path fill="none" stroke="rgb(179,179,179)" stroke-linejoin="round" d="M 2097,7593 L 2097,7443"/>
 <path fill="none" stroke="rgb(179,179,179)" stroke-linejoin="round" d="M 2157,7593 L 2157,7443"/>
 <path fill="none" stroke="rgb(179,179,179)" stroke-linejoin="round" d="M 2157,7593 L 2157,7443"/>
 <path fill="none" stroke="rgb(179,179,179)" stroke-linejoin="round" d="M 2217,7593 L 2217,7443"/>
 <path fill="none" stroke="rgb(179,179,179)" stroke-linejoin="round" d="M 2217,7593 L 2217,7443"/>
 <path fill="none" stroke="rgb(179,179,179)" stroke-linejoin="round" d="M 2277,7593 L 2277,7443"/>
 <path fill="none" stroke="rgb(179,179,179)" stroke-linejoin="round" d="M 2277,7593 L 2277,7443"/>
 <path fill="none" stroke="rgb(179,179,179)" stroke-linejoin="round" d="M 2337,7593 L 2337,7443"/>
 <path fill="none" stroke="rgb(179,179,179)" stroke-linejoin="round" d="M 2337,7593 L 2337,7443"/>
 <path fill="none" stroke="rgb(179,179,179)" stroke-linejoin="round" d="M 2397,7593 L 2397,7443"/>
 <path fill="none" stroke="rgb(179,179,179)" stroke-linejoin="round" d="M 2397,7593 L 2397,7443"/>
 <path fill="none" stroke="rgb(179,179,179)" stroke-linejoin="round" d="M 2457,7593 L 2457,7443"/>
 <path fill="none" stroke="rgb(179,179,179)" stroke-linejoin="round" d="M 2457,7593 L 2457,7443"/>
 <path fill="none" stroke="rgb(179,179,179)" stroke-linejoin="round" d="M 2517,7593 L 2517,7443"/>
 <path fill="none" stroke="rgb(179,179,179)" stroke-linejoin="round" d="M 2517,7593 L 2517,7443"/>
 <path fill="none" stroke="rgb(179,179,179)" stroke-linejoin="round" d="M 2577,7593 L 2577,7443"/>
 <path fill="none" stroke="rgb(179,179,179)" stroke-linejoin="round" d="M 2577,7593 L 2577,7443"/>
 <path fill="none" stroke="rgb(179,179,179)" stroke-linejoin="round" d="M 2637,7593 L 2637,7443"/>
 <path fill="none" stroke="rgb(179,179,179)" stroke-linejoin="round" d="M 2637,7593 L 2637,7443"/>
 <path fill="none" stroke="rgb(179,179,179)" stroke-linejoin="round" d="M 2697,7593 L 2697,7443"/>
 <path fill="none" stroke="rgb(179,179,179)" stroke-linejoin="round" d="M 2697,7593 L 2697,7443"/>
 <path fill="none" stroke="rgb(179,179,179)" stroke-linejoin="round" d="M 2757,7593 L 2757,7443"/>
 <path fill="none" stroke="rgb(179,179,179)" stroke-linejoin="round" d="M 2757,7593 L 2757,7443"/>
 <path fill="none" stroke="rgb(179,179,179)" stroke-linejoin="round" d="M 2817,7593 L 2817,7443"/>
 <path fill="none" stroke="rgb(179,179,179)" stroke-linejoin="round" d="M 2817,7593 L 2817,7443"/>
 <path fill="none" stroke="rgb(179,179,179)" stroke-linejoin="round" d="M 2877,7593 L 2877,7443"/>
 <path fill="none" stroke="rgb(179,179,179)" stroke-linejoin="round" d="M 2877,7593 L 2877,7443"/>
 <path fill="none" stroke="rgb(179,179,179)" stroke-linejoin="round" d="M 2937,7593 L 2937,7443"/>
 <path fill="none" stroke="rgb(179,179,179)" stroke-linejoin="round" d="M 2937,7593 L 2937,7443"/>
 <path fill="none" stroke="rgb(179,179,179)" stroke-linejoin="round" d="M 2997,7593 L 2997,7443"/>
 <path fill="none" stroke="rgb(179,179,179)" stroke-linejoin="round" d="M 2997,7593 L 2997,7443"/>
 <path fill="none" stroke="rgb(179,179,179)" stroke-linejoin="round" d="M 3058,7593 L 3058,7443"/>
 <path fill="none" stroke="rgb(179,179,179)" stroke-linejoin="round" d="M 3058,7593 L 3058,7443"/>
 <path fill="none" stroke="rgb(179,179,179)" stroke-linejoin="round" d="M 3118,7593 L 3118,7443"/>
 <path fill="none" stroke="rgb(179,179,179)" stroke-linejoin="round" d="M 3118,7593 L 3118,7443"/>
 <path fill="none" stroke="rgb(179,179,179)" stroke-linejoin="round" d="M 3178,7593 L 3178,7443"/>
 <path fill="none" stroke="rgb(179,179,179)" stroke-linejoin="round" d="M 3178,7593 L 3178,7443"/>
 <path fill="none" stroke="rgb(179,179,179)" stroke-linejoin="round" d="M 3238,7593 L 3238,7443"/>
 <path fill="none" stroke="rgb(179,179,179)" stroke-linejoin="round" d="M 3238,7593 L 3238,7443"/>
 <path fill="none" stroke="rgb(179,179,179)" stroke-linejoin="round" d="M 3298,7593 L 3298,7443"/>
 <path fill="none" stroke="rgb(179,179,179)" stroke-linejoin="round" d="M 3298,7593 L 3298,7443"/>
 <path fill="none" stroke="rgb(179,179,179)" stroke-linejoin="round" d="M 3358,7593 L 3358,7443"/>
 <path fill="none" stroke="rgb(179,179,179)" stroke-linejoin="round" d="M 3358,7593 L 3358,7443"/>
 <path fill="none" stroke="rgb(179,179,179)" stroke-linejoin="round" d="M 3418,7593 L 3418,7443"/>
 <path fill="none" stroke="rgb(179,179,179)" stroke-linejoin="round" d="M 3418,7593 L 3418,7443"/>
 <path fill="none" stroke="rgb(179,179,179)" stroke-linejoin="round" d="M 3478,7593 L 3478,7443"/>
 <path fill="none" stroke="rgb(179,179,179)" stroke-linejoin="round" d="M 3478,7593 L 3478,7443"/>
 <path fill="none" stroke="rgb(179,179,179)" stroke-linejoin="round" d="M 3538,7593 L 3538,7443"/>
 <path fill="none" stroke="rgb(179,179,179)" stroke-linejoin="round" d="M 3538,7593 L 3538,7443"/>
 <path fill="none" stroke="rgb(179,179,179)" stroke-linejoin="round" d="M 3598,7593 L 3598,7443"/>
 <path fill="none" stroke="rgb(179,179,179)" stroke-linejoin="round" d="M 3598,7593 L 3598,7443"/>
 <path fill="none" stroke="rgb(179,179,179)" stroke-linejoin="round" d="M 3658,7593 L 3658,7443"/>
 <path fill="none" stroke="rgb(179,179,179)" stroke-linejoin="round" d="M 3658,7593 L 3658,7443"/>
 <path fill="none" stroke="rgb(179,179,179)" stroke-linejoin="round" d="M 3718,7593 L 3718,7443"/>
 <path fill="none" stroke="rgb(179,179,179)" stroke-linejoin="round" d="M 3718,7593 L 3718,7443"/>
 <path fill="none" stroke="rgb(179,179,179)" stroke-linejoin="round" d="M 3778,7593 L 3778,7443"/>
 <path fill="none" stroke="rgb(179,179,179)" stroke-linejoin="round" d="M 3778,7593 L 3778,7443"/>
 <path fill="none" stroke="rgb(179,179,179)" stroke-linejoin="round" d="M 3838,7593 L 3838,7443"/>
 <path fill="none" stroke="rgb(179,179,179)" stroke-linejoin="round" d="M 3838,7593 L 3838,7443"/>
 <path fill="none" stroke="rgb(179,179,179)" stroke-linejoin="round" d="M 3898,7593 L 3898,7443"/>
 <path fill="none" stroke="rgb(179,179,179)" stroke-linejoin="round" d="M 3898,7593 L 3898,7443"/>
 <path fill="none" stroke="rgb(179,179,179)" stroke-linejoin="round" d="M 3958,7593 L 3958,7443"/>
 <path fill="none" stroke="rgb(179,179,179)" stroke-linejoin="round" d="M 3958,7593 L 3958,7443"/>
 <path fill="none" stroke="rgb(179,179,179)" stroke-linejoin="round" d="M 4018,7593 L 4018,7443"/>
 <path fill="none" stroke="rgb(179,179,179)" stroke-linejoin="round" d="M 4018,7593 L 4018,7443"/>
 <path fill="none" stroke="rgb(179,179,179)" stroke-linejoin="round" d="M 4078,7593 L 4078,7443"/>
 <path fill="none" stroke="rgb(179,179,179)" stroke-linejoin="round" d="M 4078,7593 L 4078,7443"/>
 <path fill="none" stroke="rgb(179,179,179)" stroke-linejoin="round" d="M 4138,7593 L 4138,7443"/>
 <path fill="none" stroke="rgb(179,179,179)" stroke-linejoin="round" d="M 4138,7593 L 4138,7443"/>
 <path fill="none" stroke="rgb(179,179,179)" stroke-linejoin="round" d="M 4198,7593 L 4198,7443"/>
 <path fill="none" stroke="rgb(179,179,179)" stroke-linejoin="round" d="M 4198,7593 L 4198,7443"/>
 <path fill="none" stroke="rgb(179,179,179)" stroke-linejoin="round" d="M 4258,7593 L 4258,7443"/>
 <path fill="none" stroke="rgb(179,179,179)" stroke-linejoin="round" d="M 4258,7593 L 4258,7443"/>
 <path fill="none" stroke="rgb(179,179,179)" stroke-linejoin="round" d="M 4318,7593 L 4318,7443"/>
 <path fill="none" stroke="rgb(179,179,179)" stroke-linejoin="round" d="M 4318,7593 L 4318,7443"/>
 <path fill="none" stroke="rgb(179,179,179)" stroke-linejoin="round" d="M 4378,7593 L 4378,7443"/>
 <path fill="none" stroke="rgb(179,179,179)" stroke-linejoin="round" d="M 4378,7593 L 4378,7443"/>
 <path fill="none" stroke="rgb(179,179,179)" stroke-linejoin="round" d="M 4438,7593 L 4438,7443"/>
 <path fill="none" stroke="rgb(179,179,179)" stroke-linejoin="round" d="M 4438,7593 L 4438,7443"/>
 <path fill="none" stroke="rgb(179,179,179)" stroke-linejoin="round" d="M 4498,7593 L 4498,7443"/>
 <path fill="none" stroke="rgb(179,179,179)" stroke-linejoin="round" d="M 4498,7593 L 4498,7443"/>
 <path fill="none" stroke="rgb(179,179,179)" stroke-linejoin="round" d="M 4558,7593 L 4558,7443"/>
 <path fill="none" stroke="rgb(179,179,179)" stroke-linejoin="round" d="M 4558,7593 L 4558,7443"/>
 <path fill="none" stroke="rgb(179,179,179)" stroke-linejoin="round" d="M 4619,7593 L 4619,7443"/>
 <path fill="none" stroke="rgb(179,179,179)" stroke-linejoin="round" d="M 4619,7593 L 4619,7443"/>
 <path fill="none" stroke="rgb(179,179,179)" stroke-linejoin="round" d="M 4679,7593 L 4679,7443"/>
 <path fill="none" stroke="rgb(179,179,179)" stroke-linejoin="round" d="M 4679,7593 L 4679,7443"/>
 <path fill="none" stroke="rgb(179,179,179)" stroke-linejoin="round" d="M 4739,7593 L 4739,7443"/>
 <path fill="none" stroke="rgb(179,179,179)" stroke-linejoin="round" d="M 4739,7593 L 4739,7443"/>
 <path fill="none" stroke="rgb(179,179,179)" stroke-linejoin="round" d="M 4799,7593 L 4799,7443"/>
 <path fill="none" stroke="rgb(179,179,179)" stroke-linejoin="round" d="M 4799,7593 L 4799,7443"/>
 <path fill="none" stroke="rgb(179,179,179)" stroke-linejoin="round" d="M 4859,7593 L 4859,7443"/>
 <path fill="none" stroke="rgb(179,179,179)" stroke-linejoin="round" d="M 4859,7593 L 4859,7443"/>
 <path fill="none" stroke="rgb(179,179,179)" stroke-linejoin="round" d="M 4919,7593 L 4919,7443"/>
 <path fill="none" stroke="rgb(179,179,179)" stroke-linejoin="round" d="M 4919,7593 L 4919,7443"/>
 <path fill="none" stroke="rgb(179,179,179)" stroke-linejoin="round" d="M 4979,7593 L 4979,7443"/>
 <path fill="none" stroke="rgb(179,179,179)" stroke-linejoin="round" d="M 4979,7593 L 4979,7443"/>
 <path fill="none" stroke="rgb(179,179,179)" stroke-linejoin="round" d="M 5039,7593 L 5039,7443"/>
 <path fill="none" stroke="rgb(179,179,179)" stroke-linejoin="round" d="M 5039,7593 L 5039,7443"/>
 <path fill="none" stroke="rgb(179,179,179)" stroke-linejoin="round" d="M 5099,7593 L 5099,7443"/>
 <path fill="none" stroke="rgb(179,179,179)" stroke-linejoin="round" d="M 5099,7593 L 5099,7443"/>
 <path fill="none" stroke="rgb(179,179,179)" stroke-linejoin="round" d="M 5159,7593 L 5159,7443"/>
 <path fill="none" stroke="rgb(179,179,179)" stroke-linejoin="round" d="M 5159,7593 L 5159,7443"/>
 <path fill="none" stroke="rgb(179,179,179)" stroke-linejoin="round" d="M 5219,7593 L 5219,7443"/>
 <path fill="none" stroke="rgb(179,179,179)" stroke-linejoin="round" d="M 5219,7593 L 5219,7443"/>
 <path fill="none" stroke="rgb(179,179,179)" stroke-linejoin="round" d="M 5279,7593 L 5279,7443"/>
 <path fill="none" stroke="rgb(179,179,179)" stroke-linejoin="round" d="M 5279,7593 L 5279,7443"/>
 <path fill="none" stroke="rgb(179,179,179)" stroke-linejoin="round" d="M 5339,7593 L 5339,7443"/>
 <path fill="none" stroke="rgb(179,179,179)" stroke-linejoin="round" d="M 5339,7593 L 5339,7443"/>
 <path fill="none" stroke="rgb(179,179,179)" stroke-linejoin="round" d="M 5399,7593 L 5399,7443"/>
 <path fill="none" stroke="rgb(179,179,179)" stroke-linejoin="round" d="M 5399,7593 L 5399,7443"/>
 <path fill="none" stroke="rgb(179,179,179)" stroke-linejoin="round" d="M 5459,7593 L 5459,7443"/>
 <path fill="none" stroke="rgb(179,179,179)" stroke-linejoin="round" d="M 5459,7593 L 5459,7443"/>
 <path fill="none" stroke="rgb(179,179,179)" stroke-linejoin="round" d="M 5519,7593 L 5519,7443"/>
 <path fill="none" stroke="rgb(179,179,179)" stroke-linejoin="round" d="M 5519,7593 L 5519,7443"/>
 <path fill="none" stroke="rgb(179,179,179)" stroke-linejoin="round" d="M 5579,7593 L 5579,7443"/>
 <path fill="none" stroke="rgb(179,179,179)" stroke-linejoin="round" d="M 5579,7593 L 5579,7443"/>
 <path fill="none" stroke="rgb(179,179,179)" stroke-linejoin="round" d="M 5639,7593 L 5639,7443"/>
 <path fill="none" stroke="rgb(179,179,179)" stroke-linejoin="round" d="M 5639,7593 L 5639,7443"/>
 <path fill="none" stroke="rgb(179,179,179)" stroke-linejoin="round" d="M 5699,7593 L 5699,7443"/>
 <path fill="none" stroke="rgb(179,179,179)" stroke-linejoin="round" d="M 5699,7593 L 5699,7443"/>
 <path fill="none" stroke="rgb(179,179,179)" stroke-linejoin="round" d="M 5759,7593 L 5759,7443"/>
 <path fill="none" stroke="rgb(179,179,179)" stroke-linejoin="round" d="M 5759,7593 L 5759,7443"/>
 <path fill="none" stroke="rgb(179,179,179)" stroke-linejoin="round" d="M 5819,7593 L 5819,7443"/>
 <path fill="none" stroke="rgb(179,179,179)" stroke-linejoin="round" d="M 5819,7593 L 5819,7443"/>
 <path fill="none" stroke="rgb(179,179,179)" stroke-linejoin="round" d="M 5879,7593 L 5879,7443"/>
 <path fill="none" stroke="rgb(179,179,179)" stroke-linejoin="round" d="M 5879,7593 L 5879,7443"/>
 <path fill="none" stroke="rgb(179,179,179)" stroke-linejoin="round" d="M 5939,7593 L 5939,7443"/>
 <path fill="none" stroke="rgb(179,179,179)" stroke-linejoin="round" d="M 5939,7593 L 5939,7443"/>
 <path fill="none" stroke="rgb(179,179,179)" stroke-linejoin="round" d="M 5999,7593 L 5999,7443"/>
 <path fill="none" stroke="rgb(179,179,179)" stroke-linejoin="round" d="M 5999,7593 L 5999,7443"/>
 <path fill="none" stroke="rgb(179,179,179)" stroke-linejoin="round" d="M 6059,7593 L 6059,7443"/>
 <path fill="none" stroke="rgb(179,179,179)" stroke-linejoin="round" d="M 6059,7593 L 6059,7443"/>
 <path fill="none" stroke="rgb(179,179,179)" stroke-linejoin="round" d="M 6120,7593 L 6120,7443"/>
 <path fill="none" stroke="rgb(179,179,179)" stroke-linejoin="round" d="M 6120,7593 L 6120,7443"/>
 <path fill="none" stroke="rgb(179,179,179)" stroke-linejoin="round" d="M 6180,7593 L 6180,7443"/>
 <path fill="none" stroke="rgb(179,179,179)" stroke-linejoin="round" d="M 6180,7593 L 6180,7443"/>
 <path fill="none" stroke="rgb(179,179,179)" stroke-linejoin="round" d="M 6240,7593 L 6240,7443"/>
 <path fill="none" stroke="rgb(179,179,179)" stroke-linejoin="round" d="M 6240,7593 L 6240,7443"/>
 <path fill="none" stroke="rgb(179,179,179)" stroke-linejoin="round" d="M 6300,7593 L 6300,7443"/>
 <path fill="none" stroke="rgb(179,179,179)" stroke-linejoin="round" d="M 6300,7593 L 6300,7443"/>
 <path fill="none" stroke="rgb(179,179,179)" stroke-linejoin="round" d="M 6360,7593 L 6360,7443"/>
 <path fill="none" stroke="rgb(179,179,179)" stroke-linejoin="round" d="M 6360,7593 L 6360,7443"/>
 <path fill="none" stroke="rgb(179,179,179)" stroke-linejoin="round" d="M 6420,7593 L 6420,7443"/>
 <path fill="none" stroke="rgb(179,179,179)" stroke-linejoin="round" d="M 6420,7593 L 6420,7443"/>
 <path fill="none" stroke="rgb(179,179,179)" stroke-linejoin="round" d="M 6480,7593 L 6480,7443"/>
 <path fill="none" stroke="rgb(179,179,179)" stroke-linejoin="round" d="M 6480,7593 L 6480,7443"/>
 <path fill="none" stroke="rgb(179,179,179)" stroke-linejoin="round" d="M 6540,7593 L 6540,7443"/>
 <path fill="none" stroke="rgb(179,179,179)" stroke-linejoin="round" d="M 6540,7593 L 6540,7443"/>
 <path fill="none" stroke="rgb(179,179,179)" stroke-linejoin="round" d="M 6600,7593 L 6600,7443"/>
 <path fill="none" stroke="rgb(179,179,179)" stroke-linejoin="round" d="M 6600,7593 L 6600,7443"/>
 <path fill="none" stroke="rgb(179,179,179)" stroke-linejoin="round" d="M 6660,7593 L 6660,7443"/>
 <path fill="none" stroke="rgb(179,179,179)" stroke-linejoin="round" d="M 6660,7593 L 6660,7443"/>
 <path fill="none" stroke="rgb(179,179,179)" stroke-linejoin="round" d="M 6720,7593 L 6720,7443"/>
 <path fill="none" stroke="rgb(179,179,179)" stroke-linejoin="round" d="M 6720,7593 L 6720,7443"/>
 <path fill="none" stroke="rgb(179,179,179)" stroke-linejoin="round" d="M 6780,7593 L 6780,7443"/>
 <path fill="none" stroke="rgb(179,179,179)" stroke-linejoin="round" d="M 6780,7593 L 6780,7443"/>
 <path fill="none" stroke="rgb(179,179,179)" stroke-linejoin="round" d="M 6840,7593 L 6840,7443"/>
 <path fill="none" stroke="rgb(179,179,179)" stroke-linejoin="round" d="M 6840,7593 L 6840,7443"/>
 <path fill="none" stroke="rgb(179,179,179)" stroke-linejoin="round" d="M 6900,7593 L 6900,7443"/>
 <path fill="none" stroke="rgb(179,179,179)" stroke-linejoin="round" d="M 6900,7593 L 6900,7443"/>
 <path fill="none" stroke="rgb(179,179,179)" stroke-linejoin="round" d="M 6960,7593 L 6960,7443"/>
 <path fill="none" stroke="rgb(179,179,179)" stroke-linejoin="round" d="M 6960,7593 L 6960,7443"/>
 <path fill="none" stroke="rgb(179,179,179)" stroke-linejoin="round" d="M 7020,7593 L 7020,7443"/>
 <path fill="none" stroke="rgb(179,179,179)" stroke-linejoin="round" d="M 7020,7593 L 7020,7443"/>
 <path fill="none" stroke="rgb(179,179,179)" stroke-linejoin="round" d="M 7080,7593 L 7080,7443"/>
 <path fill="none" stroke="rgb(179,179,179)" stroke-linejoin="round" d="M 7080,7593 L 7080,7443"/>
 <path fill="none" stroke="rgb(179,179,179)" stroke-linejoin="round" d="M 7140,7593 L 7140,7443"/>
 <path fill="none" stroke="rgb(179,179,179)" stroke-linejoin="round" d="M 7140,7593 L 7140,7443"/>
 <path fill="none" stroke="rgb(179,179,179)" stroke-linejoin="round" d="M 7200,7593 L 7200,7443"/>
 <path fill="none" stroke="rgb(179,179,179)" stroke-linejoin="round" d="M 7200,7593 L 7200,7443"/>
 <path fill="none" stroke="rgb(179,179,179)" stroke-linejoin="round" d="M 7260,7593 L 7260,7443"/>
 <path fill="none" stroke="rgb(179,179,179)" stroke-linejoin="round" d="M 7260,7593 L 7260,7443"/>
 <path fill="none" stroke="rgb(179,179,179)" stroke-linejoin="round" d="M 7320,7593 L 7320,7443"/>
 <path fill="none" stroke="rgb(179,179,179)" stroke-linejoin="round" d="M 7320,7593 L 7320,7443"/>
 <path fill="none" stroke="rgb(179,179,179)" stroke-linejoin="round" d="M 7380,7593 L 7380,7443"/>
 <path fill="none" stroke="rgb(179,179,179)" stroke-linejoin="round" d="M 7380,7593 L 7380,7443"/>
 <path fill="none" stroke="rgb(179,179,179)" stroke-linejoin="round" d="M 7440,7593 L 7440,7443"/>
 <path fill="none" stroke="rgb(179,179,179)" stroke-linejoin="round" d="M 7440,7593 L 7440,7443"/>
 <path fill="none" stroke="rgb(179,179,179)" stroke-linejoin="round" d="M 7500,7593 L 7500,7443"/>
 <path fill="none" stroke="rgb(179,179,179)" stroke-linejoin="round" d="M 7500,7593 L 7500,7443"/>
 <path fill="none" stroke="rgb(179,179,179)" stroke-linejoin="round" d="M 7560,7593 L 7560,7443"/>
 <path fill="none" stroke="rgb(179,179,179)" stroke-linejoin="round" d="M 7560,7593 L 7560,7443"/>
 <path fill="none" stroke="rgb(179,179,179)" stroke-linejoin="round" d="M 7620,7593 L 7620,7443"/>
 <path fill="none" stroke="rgb(179,179,179)" stroke-linejoin="round" d="M 7620,7593 L 7620,7443"/>
 <path fill="none" stroke="rgb(179,179,179)" stroke-linejoin="round" d="M 7681,7593 L 7681,7443"/>
 <path fill="none" stroke="rgb(179,179,179)" stroke-linejoin="round" d="M 7681,7593 L 7681,7443"/>
 <path fill="none" stroke="rgb(179,179,179)" stroke-linejoin="round" d="M 7741,7593 L 7741,7443"/>
 <path fill="none" stroke="rgb(179,179,179)" stroke-linejoin="round" d="M 7741,7593 L 7741,7443"/>
 <path fill="none" stroke="rgb(179,179,179)" stroke-linejoin="round" d="M 7801,7593 L 7801,7443"/>
 <path fill="none" stroke="rgb(179,179,179)" stroke-linejoin="round" d="M 7801,7593 L 7801,7443"/>
 <path fill="none" stroke="rgb(179,179,179)" stroke-linejoin="round" d="M 7861,7593 L 7861,7443"/>
 <path fill="none" stroke="rgb(179,179,179)" stroke-linejoin="round" d="M 7861,7593 L 7861,7443"/>
 <path fill="none" stroke="rgb(179,179,179)" stroke-linejoin="round" d="M 7921,7593 L 7921,7443"/>
 <path fill="none" stroke="rgb(179,179,179)" stroke-linejoin="round" d="M 7921,7593 L 7921,7443"/>
 <path fill="none" stroke="rgb(179,179,179)" stroke-linejoin="round" d="M 7981,7593 L 7981,7443"/>
 <path fill="none" stroke="rgb(179,179,179)" stroke-linejoin="round" d="M 7981,7593 L 7981,7443"/>
 <path fill="none" stroke="rgb(179,179,179)" stroke-linejoin="round" d="M 8040,7593 L 8040,7443"/>
 <path fill="none" stroke="rgb(179,179,179)" stroke-linejoin="round" d="M 8040,7593 L 8040,7443"/>
 <path fill="none" stroke="rgb(179,179,179)" stroke-linejoin="round" d="M 8100,7593 L 8100,7443"/>
 <path fill="none" stroke="rgb(179,179,179)" stroke-linejoin="round" d="M 8100,7593 L 8100,7443"/>
 <path fill="none" stroke="rgb(179,179,179)" stroke-linejoin="round" d="M 8160,7593 L 8160,7443"/>
 <path fill="none" stroke="rgb(179,179,179)" stroke-linejoin="round" d="M 8160,7593 L 8160,7443"/>
 <path fill="none" stroke="rgb(179,179,179)" stroke-linejoin="round" d="M 8220,7593 L 8220,7443"/>
 <path fill="none" stroke="rgb(179,179,179)" stroke-linejoin="round" d="M 8220,7593 L 8220,7443"/>
 <path fill="none" stroke="rgb(179,179,179)" stroke-linejoin="round" d="M 8280,7593 L 8280,7443"/>
 <path fill="none" stroke="rgb(179,179,179)" stroke-linejoin="round" d="M 8280,7593 L 8280,7443"/>
 <path fill="none" stroke="rgb(179,179,179)" stroke-linejoin="round" d="M 8340,7593 L 8340,7443"/>
 <path fill="none" stroke="rgb(179,179,179)" stroke-linejoin="round" d="M 8340,7593 L 8340,7443"/>
 <path fill="none" stroke="rgb(179,179,179)" stroke-linejoin="round" d="M 8400,7593 L 8400,7443"/>
 <path fill="none" stroke="rgb(179,179,179)" stroke-linejoin="round" d="M 8400,7593 L 8400,7443"/>
 <path fill="none" stroke="rgb(179,179,179)" stroke-linejoin="round" d="M 8460,7593 L 8460,7443"/>
 <path fill="none" stroke="rgb(179,179,179)" stroke-linejoin="round" d="M 8460,7593 L 8460,7443"/>
 <path fill="none" stroke="rgb(179,179,179)" stroke-linejoin="round" d="M 8520,7593 L 8520,7443"/>
 <path fill="none" stroke="rgb(179,179,179)" stroke-linejoin="round" d="M 8520,7593 L 8520,7443"/>
 <path fill="none" stroke="rgb(179,179,179)" stroke-linejoin="round" d="M 8580,7593 L 8580,7443"/>
 <path fill="none" stroke="rgb(179,179,179)" stroke-linejoin="round" d="M 8580,7593 L 8580,7443"/>
 <path fill="none" stroke="rgb(179,179,179)" stroke-linejoin="round" d="M 8640,7593 L 8640,7443"/>
 <path fill="none" stroke="rgb(179,179,179)" stroke-linejoin="round" d="M 8640,7593 L 8640,7443"/>
 <path fill="none" stroke="rgb(179,179,179)" stroke-linejoin="round" d="M 8700,7593 L 8700,7443"/>
 <path fill="none" stroke="rgb(179,179,179)" stroke-linejoin="round" d="M 8700,7593 L 8700,7443"/>
 <path fill="none" stroke="rgb(179,179,179)" stroke-linejoin="round" d="M 8760,7593 L 8760,7443"/>
 <path fill="none" stroke="rgb(179,179,179)" stroke-linejoin="round" d="M 8760,7593 L 8760,7443"/>
 <path fill="none" stroke="rgb(179,179,179)" stroke-linejoin="round" d="M 8820,7593 L 8820,7443"/>
 <path fill="none" stroke="rgb(179,179,179)" stroke-linejoin="round" d="M 8820,7593 L 8820,7443"/>
 <path fill="none" stroke="rgb(179,179,179)" stroke-linejoin="round" d="M 8880,7593 L 8880,7443"/>
 <path fill="none" stroke="rgb(179,179,179)" stroke-linejoin="round" d="M 8880,7593 L 8880,7443"/>
 <path fill="none" stroke="rgb(179,179,179)" stroke-linejoin="round" d="M 8940,7593 L 8940,7443"/>
 <path fill="none" stroke="rgb(179,179,179)" stroke-linejoin="round" d="M 8940,7593 L 8940,7443"/>
 <path fill="none" stroke="rgb(179,179,179)" stroke-linejoin="round" d="M 9000,7593 L 9000,7443"/>
 <path fill="none" stroke="rgb(179,179,179)" stroke-linejoin="round" d="M 9000,7593 L 9000,7443"/>
 <path fill="none" stroke="rgb(179,179,179)" stroke-linejoin="round" d="M 9060,7593 L 9060,7443"/>
 <path fill="none" stroke="rgb(179,179,179)" stroke-linejoin="round" d="M 9060,7593 L 9060,7443"/>
 <path fill="none" stroke="rgb(179,179,179)" stroke-linejoin="round" d="M 9120,7593 L 9120,7443"/>
 <path fill="none" stroke="rgb(179,179,179)" stroke-linejoin="round" d="M 9120,7593 L 9120,7443"/>
 <path fill="none" stroke="rgb(179,179,179)" stroke-linejoin="round" d="M 9181,7593 L 9181,7443"/>
 <path fill="none" stroke="rgb(179,179,179)" stroke-linejoin="round" d="M 9181,7593 L 9181,7443"/>
 <path fill="none" stroke="rgb(179,179,179)" stroke-linejoin="round" d="M 9241,7593 L 9241,7443"/>
 <path fill="none" stroke="rgb(179,179,179)" stroke-linejoin="round" d="M 9241,7593 L 9241,7443"/>
 <path fill="none" stroke="rgb(179,179,179)" stroke-linejoin="round" d="M 9301,7593 L 9301,7443"/>
 <path fill="none" stroke="rgb(179,179,179)" stroke-linejoin="round" d="M 9301,7593 L 9301,7443"/>
 <path fill="none" stroke="rgb(179,179,179)" stroke-linejoin="round" d="M 9361,7593 L 9361,7443"/>
 <path fill="none" stroke="rgb(179,179,179)" stroke-linejoin="round" d="M 9361,7593 L 9361,7443"/>
 <path fill="none" stroke="rgb(179,179,179)" stroke-linejoin="round" d="M 9421,7593 L 9421,7443"/>
 <path fill="none" stroke="rgb(179,179,179)" stroke-linejoin="round" d="M 9421,7593 L 9421,7443"/>
 <path fill="none" stroke="rgb(179,179,179)" stroke-linejoin="round" d="M 9481,7593 L 9481,7443"/>
 <path fill="none" stroke="rgb(179,179,179)" stroke-linejoin="round" d="M 9481,7593 L 9481,7443"/>
 <path fill="none" stroke="rgb(179,179,179)" stroke-linejoin="round" d="M 9541,7593 L 9541,7443"/>
 <path fill="none" stroke="rgb(179,179,179)" stroke-linejoin="round" d="M 9541,7593 L 9541,7443"/>
 <path fill="none" stroke="rgb(179,179,179)" stroke-linejoin="round" d="M 9601,7593 L 9601,7443"/>
 <path fill="none" stroke="rgb(179,179,179)" stroke-linejoin="round" d="M 9601,7593 L 9601,7443"/>
 <path fill="none" stroke="rgb(179,179,179)" stroke-linejoin="round" d="M 9661,7593 L 9661,7443"/>
 <path fill="none" stroke="rgb(179,179,179)" stroke-linejoin="round" d="M 9661,7593 L 9661,7443"/>
 <path fill="none" stroke="rgb(179,179,179)" stroke-linejoin="round" d="M 9721,7593 L 9721,7443"/>
 <path fill="none" stroke="rgb(179,179,179)" stroke-linejoin="round" d="M 9721,7593 L 9721,7443"/>
 <path fill="none" stroke="rgb(179,179,179)" stroke-linejoin="round" d="M 9781,7593 L 9781,7443"/>
 <path fill="none" stroke="rgb(179,179,179)" stroke-linejoin="round" d="M 9781,7593 L 9781,7443"/>
 <path fill="none" stroke="rgb(179,179,179)" stroke-linejoin="round" d="M 9841,7593 L 9841,7443"/>
 <path fill="none" stroke="rgb(179,179,179)" stroke-linejoin="round" d="M 9841,7593 L 9841,7443"/>
 <path fill="none" stroke="rgb(179,179,179)" stroke-linejoin="round" d="M 9901,7593 L 9901,7443"/>
 <path fill="none" stroke="rgb(179,179,179)" stroke-linejoin="round" d="M 9901,7593 L 9901,7443"/>
 <path fill="none" stroke="rgb(179,179,179)" stroke-linejoin="round" d="M 9961,7593 L 9961,7443"/>
 <path fill="none" stroke="rgb(179,179,179)" stroke-linejoin="round" d="M 9961,7593 L 9961,7443"/>
 <path fill="none" stroke="rgb(179,179,179)" stroke-linejoin="round" d="M 10021,7593 L 10021,7443"/>
 <path fill="none" stroke="rgb(179,179,179)" stroke-linejoin="round" d="M 10021,7593 L 10021,7443"/>
 <path fill="none" stroke="rgb(179,179,179)" stroke-linejoin="round" d="M 10081,7593 L 10081,7443"/>
 <path fill="none" stroke="rgb(179,179,179)" stroke-linejoin="round" d="M 10081,7593 L 10081,7443"/>
 <path fill="none" stroke="rgb(179,179,179)" stroke-linejoin="round" d="M 10141,7593 L 10141,7443"/>
 <path fill="none" stroke="rgb(179,179,179)" stroke-linejoin="round" d="M 10141,7593 L 10141,7443"/>
 <path fill="none" stroke="rgb(179,179,179)" stroke-linejoin="round" d="M 10201,7593 L 10201,7443"/>
 <path fill="none" stroke="rgb(179,179,179)" stroke-linejoin="round" d="M 10201,7593 L 10201,7443"/>
 <path fill="none" stroke="rgb(179,179,179)" stroke-linejoin="round" d="M 10261,7593 L 10261,7443"/>
 <path fill="none" stroke="rgb(179,179,179)" stroke-linejoin="round" d="M 10261,7593 L 10261,7443"/>
 <path fill="none" stroke="rgb(179,179,179)" stroke-linejoin="round" d="M 10321,7593 L 10321,7443"/>
 <path fill="none" stroke="rgb(179,179,179)" stroke-linejoin="round" d="M 10321,7593 L 10321,7443"/>
 <path fill="none" stroke="rgb(179,179,179)" stroke-linejoin="round" d="M 10381,7593 L 10381,7443"/>
 <path fill="none" stroke="rgb(179,179,179)" stroke-linejoin="round" d="M 10381,7593 L 10381,7443"/>
 <path fill="none" stroke="rgb(179,179,179)" stroke-linejoin="round" d="M 10441,7593 L 10441,7443"/>
 <path fill="none" stroke="rgb(179,179,179)" stroke-linejoin="round" d="M 10441,7593 L 10441,7443"/>
 <path fill="none" stroke="rgb(179,179,179)" stroke-linejoin="round" d="M 10501,7593 L 10501,7443"/>
 <path fill="none" stroke="rgb(179,179,179)" stroke-linejoin="round" d="M 10501,7593 L 10501,7443"/>
 <path fill="none" stroke="rgb(179,179,179)" stroke-linejoin="round" d="M 10561,7593 L 10561,7443"/>
 <path fill="none" stroke="rgb(179,179,179)" stroke-linejoin="round" d="M 10561,7593 L 10561,7443"/>
 <path fill="none" stroke="rgb(179,179,179)" stroke-linejoin="round" d="M 10621,7593 L 10621,7443"/>
 <path fill="none" stroke="rgb(179,179,179)" stroke-linejoin="round" d="M 10621,7593 L 10621,7443"/>
 <path fill="none" stroke="rgb(179,179,179)" stroke-linejoin="round" d="M 10681,7593 L 10681,7443"/>
 <path fill="none" stroke="rgb(179,179,179)" stroke-linejoin="round" d="M 10681,7593 L 10681,7443"/>
 <path fill="none" stroke="rgb(179,179,179)" stroke-linejoin="round" d="M 10742,7593 L 10742,7443"/>
 <path fill="none" stroke="rgb(179,179,179)" stroke-linejoin="round" d="M 10742,7593 L 10742,7443"/>
 <path fill="none" stroke="rgb(179,179,179)" stroke-linejoin="round" d="M 10802,7593 L 10802,7443"/>
 <path fill="none" stroke="rgb(179,179,179)" stroke-linejoin="round" d="M 10802,7593 L 10802,7443"/>
 <path fill="none" stroke="rgb(179,179,179)" stroke-linejoin="round" d="M 10862,7593 L 10862,7443"/>
 <path fill="none" stroke="rgb(179,179,179)" stroke-linejoin="round" d="M 10862,7593 L 10862,7443"/>
 <path fill="none" stroke="rgb(179,179,179)" stroke-linejoin="round" d="M 10922,7593 L 10922,7443"/>
 <path fill="none" stroke="rgb(179,179,179)" stroke-linejoin="round" d="M 10922,7593 L 10922,7443"/>
 <path fill="none" stroke="rgb(179,179,179)" stroke-linejoin="round" d="M 10982,7593 L 10982,7443"/>
 <path fill="none" stroke="rgb(179,179,179)" stroke-linejoin="round" d="M 10982,7593 L 10982,7443"/>
 <path fill="none" stroke="rgb(179,179,179)" stroke-linejoin="round" d="M 11042,7593 L 11042,7443"/>
 <path fill="none" stroke="rgb(179,179,179)" stroke-linejoin="round" d="M 11042,7593 L 11042,7443"/>
 <path fill="none" stroke="rgb(179,179,179)" stroke-linejoin="round" d="M 11102,7593 L 11102,7443"/>
 <path fill="none" stroke="rgb(179,179,179)" stroke-linejoin="round" d="M 11102,7593 L 11102,7443"/>
 <path fill="none" stroke="rgb(179,179,179)" stroke-linejoin="round" d="M 11162,7593 L 11162,7443"/>
 <path fill="none" stroke="rgb(179,179,179)" stroke-linejoin="round" d="M 11162,7593 L 11162,7443"/>
 <path fill="none" stroke="rgb(179,179,179)" stroke-linejoin="round" d="M 11222,7593 L 11222,7443"/>
 <path fill="none" stroke="rgb(179,179,179)" stroke-linejoin="round" d="M 11222,7593 L 11222,7443"/>
 <path fill="none" stroke="rgb(179,179,179)" stroke-linejoin="round" d="M 11282,7593 L 11282,7443"/>
 <path fill="none" stroke="rgb(179,179,179)" stroke-linejoin="round" d="M 11282,7593 L 11282,7443"/>
 <path fill="none" stroke="rgb(179,179,179)" stroke-linejoin="round" d="M 11342,7593 L 11342,7443"/>
 <path fill="none" stroke="rgb(179,179,179)" stroke-linejoin="round" d="M 11342,7593 L 11342,7443"/>
 <path fill="none" stroke="rgb(179,179,179)" stroke-linejoin="round" d="M 11402,7593 L 11402,7443"/>
 <path fill="none" stroke="rgb(179,179,179)" stroke-linejoin="round" d="M 11402,7593 L 11402,7443"/>
 <path fill="none" stroke="rgb(179,179,179)" stroke-linejoin="round" d="M 11462,7593 L 11462,7443"/>
 <path fill="none" stroke="rgb(179,179,179)" stroke-linejoin="round" d="M 11462,7593 L 11462,7443"/>
 <path fill="none" stroke="rgb(179,179,179)" stroke-linejoin="round" d="M 11522,7593 L 11522,7443"/>
 <path fill="none" stroke="rgb(179,179,179)" stroke-linejoin="round" d="M 11522,7593 L 11522,7443"/>
 <path fill="none" stroke="rgb(179,179,179)" stroke-linejoin="round" d="M 11582,7593 L 11582,7443"/>
 <path fill="none" stroke="rgb(179,179,179)" stroke-linejoin="round" d="M 11582,7593 L 11582,7443"/>
 <path fill="none" stroke="rgb(179,179,179)" stroke-linejoin="round" d="M 11642,7593 L 11642,7443"/>
 <path fill="none" stroke="rgb(179,179,179)" stroke-linejoin="round" d="M 11642,7593 L 11642,7443"/>
 <path fill="none" stroke="rgb(179,179,179)" stroke-linejoin="round" d="M 11702,7593 L 11702,7443"/>
 <path fill="none" stroke="rgb(179,179,179)" stroke-linejoin="round" d="M 11702,7593 L 11702,7443"/>
 <path fill="none" stroke="rgb(179,179,179)" stroke-linejoin="round" d="M 11762,7593 L 11762,7443"/>
 <path fill="none" stroke="rgb(179,179,179)" stroke-linejoin="round" d="M 11762,7593 L 11762,7443"/>
 <path fill="none" stroke="rgb(179,179,179)" stroke-linejoin="round" d="M 11822,7593 L 11822,7443"/>
 <path fill="none" stroke="rgb(179,179,179)" stroke-linejoin="round" d="M 11822,7593 L 11822,7443"/>
 <path fill="none" stroke="rgb(179,179,179)" stroke-linejoin="round" d="M 11882,7593 L 11882,7443"/>
 <path fill="none" stroke="rgb(179,179,179)" stroke-linejoin="round" d="M 11882,7593 L 11882,7443"/>
 <path fill="none" stroke="rgb(179,179,179)" stroke-linejoin="round" d="M 11942,7593 L 11942,7443"/>
 <path fill="none" stroke="rgb(179,179,179)" stroke-linejoin="round" d="M 11942,7593 L 11942,7443"/>
 <path fill="none" stroke="rgb(179,179,179)" stroke-linejoin="round" d="M 12002,7593 L 12002,7443"/>
 <path fill="none" stroke="rgb(179,179,179)" stroke-linejoin="round" d="M 12002,7593 L 12002,7443"/>
 <path fill="none" stroke="rgb(179,179,179)" stroke-linejoin="round" d="M 12062,7593 L 12062,7443"/>
 <path fill="none" stroke="rgb(179,179,179)" stroke-linejoin="round" d="M 12062,7593 L 12062,7443"/>
 <path fill="none" stroke="rgb(179,179,179)" stroke-linejoin="round" d="M 12122,7593 L 12122,7443"/>
 <path fill="none" stroke="rgb(179,179,179)" stroke-linejoin="round" d="M 12122,7593 L 12122,7443"/>
 <path fill="none" stroke="rgb(179,179,179)" stroke-linejoin="round" d="M 12182,7593 L 12182,7443"/>
 <path fill="none" stroke="rgb(179,179,179)" stroke-linejoin="round" d="M 12182,7593 L 12182,7443"/>
 <path fill="none" stroke="rgb(179,179,179)" stroke-linejoin="round" d="M 12243,7593 L 12243,7443"/>
 <path fill="none" stroke="rgb(179,179,179)" stroke-linejoin="round" d="M 12243,7593 L 12243,7443"/>
 <path fill="none" stroke="rgb(179,179,179)" stroke-linejoin="round" d="M 1497,7443 L 12243,7443"/>
 <path fill="none" stroke="rgb(179,179,179)" stroke-linejoin="round" d="M 1347,7443 L 1497,7443"/>
 <path fill="none" stroke="rgb(179,179,179)" stroke-linejoin="round" d="M 1347,7443 L 1497,7443"/>
 <path fill="none" stroke="rgb(179,179,179)" stroke-linejoin="round" d="M 1347,6531 L 1497,6531"/>
 <path fill="none" stroke="rgb(179,179,179)" stroke-linejoin="round" d="M 1347,6531 L 1497,6531"/>
 <path fill="none" stroke="rgb(179,179,179)" stroke-linejoin="round" d="M 1347,5619 L 1497,5619"/>
 <path fill="none" stroke="rgb(179,179,179)" stroke-linejoin="round" d="M 1347,5619 L 1497,5619"/>
 <path fill="none" stroke="rgb(179,179,179)" stroke-linejoin="round" d="M 1347,4707 L 1497,4707"/>
 <path fill="none" stroke="rgb(179,179,179)" stroke-linejoin="round" d="M 1347,4707 L 1497,4707"/>
 <path fill="none" stroke="rgb(179,179,179)" stroke-linejoin="round" d="M 1347,3797 L 1497,3797"/>
 <path fill="none" stroke="rgb(179,179,179)" stroke-linejoin="round" d="M 1347,3797 L 1497,3797"/>
 <path fill="none" stroke="rgb(179,179,179)" stroke-linejoin="round" d="M 1347,2885 L 1497,2885"/>
 <path fill="none" stroke="rgb(179,179,179)" stroke-linejoin="round" d="M 1347,2885 L 1497,2885"/>
 <path fill="none" stroke="rgb(179,179,179)" stroke-linejoin="round" d="M 1347,1973 L 1497,1973"/>
 <path fill="none" stroke="rgb(179,179,179)" stroke-linejoin="round" d="M 1347,1973 L 1497,1973"/>
 <path fill="none" stroke="rgb(179,179,179)" stroke-linejoin="round" d="M 1347,1062 L 1497,1062"/>
 <path fill="none" stroke="rgb(179,179,179)" stroke-linejoin="round" d="M 1347,1062 L 1497,1062"/>
 <path fill="none" stroke="rgb(179,179,179)" stroke-linejoin="round" d="M 1497,7443 L 1497,1062"/>
 <path fill="none" stroke="rgb(0,69,134)" stroke-width="80" stroke-linejoin="round" d="M 1497,7412 L 1557,7382 1617,7351 1677,7321 1737,7291 1797,7260 1857,7230 1917,7199 1977,7169 2037,7139 2097,7108 2157,7078 2217,7047 2277,7017 2337,6987 2397,6956 2457,6926 2517,6895 2577,6865 2637,6835 2697,6804 2757,6774 2817,6744 2877,6713 2937,6683 2997,6652 3058,6622 3118,6592 3178,6561 3238,6531 3298,6500 3358,6470 3418,6440 3478,6409 3538,6379 3598,6348 3658,6318 3718,6288 3778,6257 3838,6227 3898,6196 3958,6166 4018,6136 4078,6105 4138,6075 4198,6045 4258,6014 4318,5984 4378,5953 4438,5923 4498,5893 4558,5862 4619,5832 4679,5801 4739,5771 4799,5741 4859,5710 4919,5680 4979,5649 5039,5619 5099,5589 5159,5558 5219,5528 5279,5498 5339,5467 5399,5437 5459,5406 5519,5376 5579,5346 5639,5315 5699,5285 5759,5254 5819,5224 5879,5194 5939,5163 5999,5133 6059,5102 6120,5072 6180,5042 6240,5011 6300,4981 6360,4950 6420,4920 6480,4890 6540,4859 6600,4829 6660,4799 6720,4768 6780,4738 6840,4707 6900,4677 6960,4647 7020,4616 7080,4586 7140,4555 7200,4525 7260,4495 7320,4465 7380,4435 7440,4404 7500,4374 7560,4344 7620,4313 7681,4283 7741,4253 7801,4222 7861,4192 7921,4161 7981,4131 8040,4101 8100,4070 8160,4040 8220,4009 8280,3979 8340,3949 8400,3918 8460,3888 8520,3857 8580,3827 8640,3797 8700,3766 8760,3736 8820,3705 8880,3675 8940,3645 9000,3614 9060,3584 9120,3554 9181,3523 9241,3493 9301,3462 9361,3432 9421,3402 9481,3371 9541,3341 9601,3310 9661,3280 9721,3250 9781,3219 9841,3189 9901,3158 9961,3128 10021,3098 10081,3067 10141,3037 10201,3006 10261,2976 10321,2946 10381,2915 10441,2885 10501,2855 10561,2824 10621,2794 10681,2763 10742,2733 10802,2703 10862,2672 10922,2642 10982,2611 11042,2581 11102,2551 11162,2520 11222,2490 11282,2459 11342,2429 11402,2399 11462,2368 11522,2338 11582,2308 11642,2277 11702,2247 11762,2216 11822,2186 11882,2156 11942,2125 12002,2095 12062,2064 12122,2034 12182,2004 12243,1973"/>
 <path fill="none" stroke="rgb(255,66,14)" stroke-width="80" stroke-linejoin="round" d="M 1497,7443 L 1557,7443 1617,7443 1677,7443 1737,7443 1797,7443 1857,7443 1917,7443 1977,7443 2037,7443 2097,7443 2157,7443 2217,7443 2277,7443 2337,7443 2397,7443 2457,7443 2517,7443 2577,7443 2637,6835 2697,6835 2757,6835 2817,6835 2877,6835 2937,6835 2997,6835 3058,6835 3118,6835 3178,6835 3238,6835 3298,6835 3358,6835 3418,6835 3478,6835 3538,6835 3598,6835 3658,6835 3718,6835 3778,6835 3838,6227 3898,6227 3958,6227 4018,6227 4078,6227 4138,6227 4198,6227 4258,6227 4318,6227 4378,6227 4438,6227 4498,6227 4558,6227 4619,6227 4679,6227 4739,6227 4799,6227 4859,6227 4919,6227 4979,6227 5039,5619 5099,5619 5159,5619 5219,5619 5279,5619 5339,5619 5399,5619 5459,5619 5519,5619 5579,5619 5639,5619 5699,5619 5759,5619 5819,5619 5879,5619 5939,5619 5999,5619 6059,5619 6120,5619 6180,5619 6240,5011 6300,5011 6360,5011 6420,5011 6480,5011 6540,5011 6600,5011 6660,5011 6720,5011 6780,5011 6840,5011 6900,5011 6960,5011 7020,5011 7080,5011 7140,5011 7200,5011 7260,5011 7320,5011 7380,5011 7440,4404 7500,4404 7560,4404 7620,4404 7681,4404 7741,4404 7801,4404 7861,4404 7921,4404 7981,4404 8040,4404 8100,4404 8160,4404 8220,4404 8280,4404 8340,4404 8400,4404 8460,4404 8520,4404 8580,4404 8640,3797 8700,3797 8760,3797 8820,3797 8880,3797 8940,3797 9000,3797 9060,3797 9120,3797 9181,3797 9241,3797 9301,3797 9361,3797 9421,3797 9481,3797 9541,3797 9601,3797 9661,3797 9721,3797 9781,3797 9841,3189 9901,3189 9961,3189 10021,3189 10081,3189 10141,3189 10201,3189 10261,3189 10321,3189 10381,3189 10441,3189 10501,3189 10561,3189 10621,3189 10681,3189 10742,3189 10802,3189 10862,3189 10922,3189 10982,3189 11042,2581 11102,2581 11162,2581 11222,2581 11282,2581 11342,2581 11402,2581 11462,2581 11522,2581 11582,2581 11642,2581 11702,2581 11762,2581 11822,2581 11882,2581 11942,2581 12002,2581 12062,2581 12122,2581 12182,2581 12243,1973"/>
 <path fill="none" stroke="rgb(255,211,32)" stroke-width="80" stroke-linejoin="round" d="M 1497,7443 L 1557,7443 1617,7443 1677,7443 1737,7443 1797,7443 1857,7443 1917,7443 1977,7443 2037,7443 2097,7443 2157,7443 2217,7443 2277,7443 2337,7443 2397,7443 2457,7443 2517,7443 2577,7443 2637,7382 2697,7327 2757,7278 2817,7233 2877,7194 2937,7158 2997,7125 3058,7096 3118,7070 3178,7047 3238,7025 3298,7006 3358,6989 3418,6974 3478,6960 3538,6947 3598,6936 3658,6926 3718,6917 3778,6909 3838,6840 3898,6779 3958,6724 4018,6674 4078,6629 4138,6589 4198,6553 4258,6520 4318,6491 4378,6465 4438,6441 4498,6419 4558,6400 4619,6383 4679,6367 4739,6353 4799,6341 4859,6329 4919,6319 4979,6310 5039,6241 5099,6179 5159,6123 5219,6072 5279,6027 5339,5986 5399,5949 5459,5916 5519,5887 5579,5860 5639,5836 5699,5814 5759,5795 5819,5777 5879,5761 5939,5747 5999,5734 6059,5723 6120,5712 6180,5703 6240,5634 6300,5572 6360,5516 6420,5465 6480,5420 6540,5379 6600,5342 6660,5309 6720,5279 6780,5252 6840,5228 6900,5207 6960,5187 7020,5170 7080,5154 7140,5139 7200,5127 7260,5115 7320,5105 7380,5095 7440,5026 7500,4964 7560,4908 7620,4857 7681,4812 7741,4771 7801,4734 7861,4701 7921,4672 7981,4645 8040,4621 8100,4599 8160,4579 8220,4562 8280,4546 8340,4532 8400,4519 8460,4507 8520,4497 8580,4489 8640,4419 8700,4357 8760,4301 8820,4251 8880,4205 8940,4164 9000,4128 9060,4094 9120,4065 9181,4038 9241,4014 9301,3992 9361,3973 9421,3955 9481,3939 9541,3925 9601,3912 9661,3900 9721,3890 9781,3881 9841,3812 9901,3749 9961,3693 10021,3643 10081,3597 10141,3557 10201,3520 10261,3487 10321,3457 10381,3430 10441,3406 10501,3384 10561,3365 10621,3347 10681,3331 10742,3317 10802,3304 10862,3293 10922,3282 10982,3273 11042,3204 11102,3141 11162,3085 11222,3035 11282,2990 11342,2949 11402,2912 11462,2879 11522,2849 11582,2822 11642,2798 11702,2776 11762,2757 11822,2739 11882,2723 11942,2709 12002,2696 12062,2685 12122,2674 12182,2665 12243,2596"/>
 <text class="TextShape"><tspan class="TextParagraph" font-family="Arial, sans-serif" font-size="353px" font-weight="400"><tspan class="TextPosition" x="1062" y="7577"><tspan fill="rgb(0,0,0)" stroke="none">0</tspan></tspan></tspan></text>
 <text class="TextShape"><tspan class="TextParagraph" font-family="Arial, sans-serif" font-size="353px" font-weight="400"><tspan class="TextPosition" x="771" y="6665"><tspan fill="rgb(0,0,0)" stroke="none">0,5</tspan></tspan></tspan></text>
 <text class="TextShape"><tspan class="TextParagraph" font-family="Arial, sans-serif" font-size="353px" font-weight="400"><tspan class="TextPosition" x="1062" y="5753"><tspan fill="rgb(0,0,0)" stroke="none">1</tspan></tspan></tspan></text>
 <text class="TextShape"><tspan class="TextParagraph" font-family="Arial, sans-serif" font-size="353px" font-weight="400"><tspan class="TextPosition" x="771" y="4841"><tspan fill="rgb(0,0,0)" stroke="none">1,5</tspan></tspan></tspan></text>
 <text class="TextShape"><tspan class="TextParagraph" font-family="Arial, sans-serif" font-size="353px" font-weight="400"><tspan class="TextPosition" x="1062" y="3930"><tspan fill="rgb(0,0,0)" stroke="none">2</tspan></tspan></tspan></text>
 <text class="TextShape"><tspan class="TextParagraph" font-family="Arial, sans-serif" font-size="353px" font-weight="400"><tspan class="TextPosition" x="771" y="3018"><tspan fill="rgb(0,0,0)" stroke="none">2,5</tspan></tspan></tspan></text>
 <text class="TextShape"><tspan class="TextParagraph" font-family="Arial, sans-serif" font-size="353px" font-weight="400"><tspan class="TextPosition" x="1062" y="2106"><tspan fill="rgb(0,0,0)" stroke="none">3</tspan></tspan></tspan></text>
 <text class="TextShape"><tspan class="TextParagraph" font-family="Arial, sans-serif" font-size="353px" font-weight="400"><tspan class="TextPosition" x="771" y="1195"><tspan fill="rgb(0,0,0)" stroke="none">3,5</tspan></tspan></tspan></text>
 <path fill="none" stroke="rgb(0,69,134)" stroke-width="80" stroke-linejoin="round" d="M 12999,3968 L 13799,3968"/>
 <path fill="none" stroke="rgb(255,66,14)" stroke-width="80" stroke-linejoin="round" d="M 12999,4492 L 13799,4492"/>
 <path fill="none" stroke="rgb(255,211,32)" stroke-width="80" stroke-linejoin="round" d="M 12999,5015 L 13799,5015"/>
 <text class="TextShape"><tspan class="TextParagraph" font-family="Arial, sans-serif" font-size="353px" font-weight="400"><tspan class="TextPosition" x="13899" y="4101"><tspan fill="rgb(0,0,0)" stroke="none">Real</tspan></tspan></tspan></text>
 <text class="TextShape"><tspan class="TextParagraph" font-family="Arial, sans-serif" font-size="353px" font-weight="400"><tspan class="TextPosition" x="13899" y="4624"><tspan fill="rgb(0,0,0)" stroke="none">Streamtime</tspan></tspan></tspan></text>
 <text class="TextShape"><tspan class="TextParagraph" font-family="Arial, sans-serif" font-size="353px" font-weight="400"><tspan class="TextPosition" x="13899" y="5148"><tspan fill="rgb(0,0,0)" stroke="none">Filtered</tspan></tspan></tspan></text>
</svg>