<?xml version="1.0" encoding="UTF-8"?><svg xmlns="http://www.w3.org/2000/svg" xmlns:xlink="http://www.w3.org/1999/xlink" fill-opacity="1" color-rendering="auto" color-interpolation="auto" text-rendering="auto" stroke="black" stroke-linecap="square" width="431" stroke-miterlimit="10" shape-rendering="auto" stroke-opacity="1" fill="black" stroke-dasharray="none" font-weight="normal" stroke-width="1" height="90" font-family="'Dialog'" font-style="normal" stroke-linejoin="miter" font-size="12" stroke-dashoffset="0" image-rendering="auto">
  <!--Generated by ySVG 2.5-->
  <defs id="genericDefs"/>
  <g>
    <defs id="defs1">
      <linearGradient x1="99.5" gradientUnits="userSpaceOnUse" x2="99.5" y1="104" y2="136.5" id="linearGradient1" spreadMethod="pad">
        <stop stop-opacity="1" stop-color="rgb(255,230,191)" offset="0%"/>
        <stop stop-opacity="1" stop-color="rgb(255,173,51)" offset="100%"/>
      </linearGradient>
      <linearGradient x1="179.5" gradientUnits="userSpaceOnUse" x2="179.5" y1="104" y2="136.5" id="linearGradient2" spreadMethod="pad">
        <stop stop-opacity="1" stop-color="rgb(255,230,191)" offset="0%"/>
        <stop stop-opacity="1" stop-color="rgb(255,173,51)" offset="100%"/>
      </linearGradient>
      <linearGradient x1="259.5" gradientUnits="userSpaceOnUse" x2="259.5" y1="104" y2="136.5" id="linearGradient3" spreadMethod="pad">
        <stop stop-opacity="1" stop-color="rgb(255,230,191)" offset="0%"/>
        <stop stop-opacity="1" stop-color="rgb(255,173,51)" offset="100%"/>
      </linearGradient>
      <linearGradient x1="339.5" gradientUnits="userSpaceOnUse" x2="339.5" y1="104" y2="136.5" id="linearGradient4" spreadMethod="pad">
        <stop stop-opacity="1" stop-color="rgb(255,230,191)" offset="0%"/>
        <stop stop-opacity="1" stop-color="rgb(255,173,51)" offset="100%"/>
      </linearGradient>
      <linearGradient x1="419.5" gradientUnits="userSpaceOnUse" x2="419.5" y1="104" y2="136.5" id="linearGradient5" spreadMethod="pad">
        <stop stop-opacity="1" stop-color="rgb(255,230,191)" offset="0%"/>
        <stop stop-opacity="1" stop-color="rgb(255,173,51)" offset="100%"/>
      </linearGradient>
      <linearGradient x1="179.5" gradientUnits="userSpaceOnUse" x2="179.5" y1="134" y2="166.5" id="linearGradient6" spreadMethod="pad">
        <stop stop-opacity="1" stop-color="rgb(255,230,191)" offset="0%"/>
        <stop stop-opacity="1" stop-color="rgb(255,173,51)" offset="100%"/>
      </linearGradient>
      <linearGradient x1="259.5" gradientUnits="userSpaceOnUse" x2="259.5" y1="134" y2="166.5" id="linearGradient7" spreadMethod="pad">
        <stop stop-opacity="1" stop-color="rgb(255,230,191)" offset="0%"/>
        <stop stop-opacity="1" stop-color="rgb(255,173,51)" offset="100%"/>
      </linearGradient>
      <linearGradient x1="339.5" gradientUnits="userSpaceOnUse" x2="339.5" y1="134" y2="166.5" id="linearGradient8" spreadMethod="pad">
        <stop stop-opacity="1" stop-color="rgb(255,230,191)" offset="0%"/>
        <stop stop-opacity="1" stop-color="rgb(255,173,51)" offset="100%"/>
      </linearGradient>
      <linearGradient x1="419.5" gradientUnits="userSpaceOnUse" x2="419.5" y1="134" y2="166.5" id="linearGradient9" spreadMethod="pad">
        <stop stop-opacity="1" stop-color="rgb(255,230,191)" offset="0%"/>
        <stop stop-opacity="1" stop-color="rgb(255,173,51)" offset="100%"/>
      </linearGradient>
      <clipPath clipPathUnits="userSpaceOnUse" id="clipPath1">
        <path d="M0 0 L431 0 L431 90 L0 90 L0 0 Z"/>
      </clipPath>
      <clipPath clipPathUnits="userSpaceOnUse" id="clipPath2">
        <path d="M84 90 L515 90 L515 180 L84 180 L84 90 Z"/>
      </clipPath>
    </defs>
    <g fill="white" text-rendering="geometricPrecision" shape-rendering="geometricPrecision" transform="translate(-84,-90)" stroke="white">
      <rect x="84" width="431" height="90" y="90" clip-path="url(#clipPath2)" stroke="none"/>
    </g>
    <g fill="rgb(255,153,0)" text-rendering="geometricPrecision" shape-rendering="geometricPrecision" transform="matrix(1,0,0,1,-84,-90)" stroke="rgb(255,153,0)">
      <path d="M99.5 119 L179.5 119 L179.5 125 Q179.5 135 169.5 135 L109.5 135 Q99.5 135 99.5 125 Z" stroke="none" clip-path="url(#clipPath2)"/>
      <path fill="url(#linearGradient1)" d="M99.5 115 Q99.5 105 109.5 105 L169.5 105 Q179.5 105 179.5 115 L179.5 120 L99.5 120 Z" clip-path="url(#clipPath2)" stroke="none"/>
      <path fill="none" d="M101.5 115 Q101.5 107 109.5 107 L169.5 107 Q177.5 107 177.5 115 L177.5 125 Q177.5 133 169.5 133 L109.5 133 Q101.5 133 101.5 125 Z" stroke-width="2" clip-path="url(#clipPath2)" stroke="rgb(255,240,217)"/>
      <path fill="none" d="M101.5 115 Q101.5 107 109.5 107 L169.5 107 Q177.5 107 177.5 115 L177.5 125 Q177.5 133 169.5 133 L109.5 133 Q101.5 133 101.5 125 Z" clip-path="url(#clipPath2)"/>
    </g>
    <g text-rendering="geometricPrecision" stroke-miterlimit="1.45" shape-rendering="geometricPrecision" font-family="sans-serif" transform="matrix(1,0,0,1,-84,-90)" stroke-linecap="butt">
      <text x="107.1445" xml:space="preserve" y="124.7139" clip-path="url(#clipPath2)" stroke="none">Audio buffer</text>
    </g>
    <g fill="rgb(255,153,0)" text-rendering="geometricPrecision" shape-rendering="geometricPrecision" transform="matrix(1,0,0,1,-84,-90)" stroke="rgb(255,153,0)">
      <path d="M179.5 119 L259.5 119 L259.5 125 Q259.5 135 249.5 135 L189.5 135 Q179.5 135 179.5 125 Z" stroke="none" clip-path="url(#clipPath2)"/>
      <path fill="url(#linearGradient2)" d="M179.5 115 Q179.5 105 189.5 105 L249.5 105 Q259.5 105 259.5 115 L259.5 120 L179.5 120 Z" clip-path="url(#clipPath2)" stroke="none"/>
      <path fill="none" d="M181.5 115 Q181.5 107 189.5 107 L249.5 107 Q257.5 107 257.5 115 L257.5 125 Q257.5 133 249.5 133 L189.5 133 Q181.5 133 181.5 125 Z" stroke-width="2" clip-path="url(#clipPath2)" stroke="rgb(255,240,217)"/>
      <path fill="none" d="M181.5 115 Q181.5 107 189.5 107 L249.5 107 Q257.5 107 257.5 115 L257.5 125 Q257.5 133 249.5 133 L189.5 133 Q181.5 133 181.5 125 Z" clip-path="url(#clipPath2)"/>
    </g>
    <g text-rendering="geometricPrecision" stroke-miterlimit="1.45" shape-rendering="geometricPrecision" font-family="sans-serif" transform="matrix(1,0,0,1,-84,-90)" stroke-linecap="butt">
      <text x="187.1445" xml:space="preserve" y="124.7139" clip-path="url(#clipPath2)" stroke="none">Audio buffer</text>
    </g>
    <g fill="rgb(255,153,0)" text-rendering="geometricPrecision" shape-rendering="geometricPrecision" transform="matrix(1,0,0,1,-84,-90)" stroke="rgb(255,153,0)">
      <path d="M259.5 119 L339.5 119 L339.5 125 Q339.5 135 329.5 135 L269.5 135 Q259.5 135 259.5 125 Z" stroke="none" clip-path="url(#clipPath2)"/>
      <path fill="url(#linearGradient3)" d="M259.5 115 Q259.5 105 269.5 105 L329.5 105 Q339.5 105 339.5 115 L339.5 120 L259.5 120 Z" clip-path="url(#clipPath2)" stroke="none"/>
      <path fill="none" d="M261.5 115 Q261.5 107 269.5 107 L329.5 107 Q337.5 107 337.5 115 L337.5 125 Q337.5 133 329.5 133 L269.5 133 Q261.5 133 261.5 125 Z" stroke-width="2" clip-path="url(#clipPath2)" stroke="rgb(255,240,217)"/>
      <path fill="none" d="M261.5 115 Q261.5 107 269.5 107 L329.5 107 Q337.5 107 337.5 115 L337.5 125 Q337.5 133 329.5 133 L269.5 133 Q261.5 133 261.5 125 Z" clip-path="url(#clipPath2)"/>
    </g>
    <g text-rendering="geometricPrecision" stroke-miterlimit="1.45" shape-rendering="geometricPrecision" font-family="sans-serif" transform="matrix(1,0,0,1,-84,-90)" stroke-linecap="butt">
      <text x="267.1445" xml:space="preserve" y="124.7139" clip-path="url(#clipPath2)" stroke="none">Audio buffer</text>
    </g>
    <g fill="rgb(255,153,0)" text-rendering="geometricPrecision" shape-rendering="geometricPrecision" transform="matrix(1,0,0,1,-84,-90)" stroke="rgb(255,153,0)">
      <path d="M339.5 119 L419.5 119 L419.5 125 Q419.5 135 409.5 135 L349.5 135 Q339.5 135 339.5 125 Z" stroke="none" clip-path="url(#clipPath2)"/>
      <path fill="url(#linearGradient4)" d="M339.5 115 Q339.5 105 349.5 105 L409.5 105 Q419.5 105 419.5 115 L419.5 120 L339.5 120 Z" clip-path="url(#clipPath2)" stroke="none"/>
      <path fill="none" d="M341.5 115 Q341.5 107 349.5 107 L409.5 107 Q417.5 107 417.5 115 L417.5 125 Q417.5 133 409.5 133 L349.5 133 Q341.5 133 341.5 125 Z" stroke-width="2" clip-path="url(#clipPath2)" stroke="rgb(255,240,217)"/>
      <path fill="none" d="M341.5 115 Q341.5 107 349.5 107 L409.5 107 Q417.5 107 417.5 115 L417.5 125 Q417.5 133 409.5 133 L349.5 133 Q341.5 133 341.5 125 Z" clip-path="url(#clipPath2)"/>
    </g>
    <g text-rendering="geometricPrecision" stroke-miterlimit="1.45" shape-rendering="geometricPrecision" font-family="sans-serif" transform="matrix(1,0,0,1,-84,-90)" stroke-linecap="butt">
      <text x="347.1445" xml:space="preserve" y="124.7139" clip-path="url(#clipPath2)" stroke="none">Audio buffer</text>
    </g>
    <g fill="rgb(255,153,0)" text-rendering="geometricPrecision" shape-rendering="geometricPrecision" transform="matrix(1,0,0,1,-84,-90)" stroke="rgb(255,153,0)">
      <path d="M419.5 119 L499.5 119 L499.5 125 Q499.5 135 489.5 135 L429.5 135 Q419.5 135 419.5 125 Z" stroke="none" clip-path="url(#clipPath2)"/>
      <path fill="url(#linearGradient5)" d="M419.5 115 Q419.5 105 429.5 105 L489.5 105 Q499.5 105 499.5 115 L499.5 120 L419.5 120 Z" clip-path="url(#clipPath2)" stroke="none"/>
      <path fill="none" d="M421.5 115 Q421.5 107 429.5 107 L489.5 107 Q497.5 107 497.5 115 L497.5 125 Q497.5 133 489.5 133 L429.5 133 Q421.5 133 421.5 125 Z" stroke-width="2" clip-path="url(#clipPath2)" stroke="rgb(255,240,217)"/>
      <path fill="none" d="M421.5 115 Q421.5 107 429.5 107 L489.5 107 Q497.5 107 497.5 115 L497.5 125 Q497.5 133 489.5 133 L429.5 133 Q421.5 133 421.5 125 Z" clip-path="url(#clipPath2)"/>
    </g>
    <g text-rendering="geometricPrecision" stroke-miterlimit="1.45" shape-rendering="geometricPrecision" font-family="sans-serif" transform="matrix(1,0,0,1,-84,-90)" stroke-linecap="butt">
      <text x="427.1445" xml:space="preserve" y="124.7139" clip-path="url(#clipPath2)" stroke="none">Audio buffer</text>
    </g>
    <g fill="rgb(255,153,0)" text-rendering="geometricPrecision" shape-rendering="geometricPrecision" transform="matrix(1,0,0,1,-84,-90)" stroke="rgb(255,153,0)">
      <path d="M179.5 149 L259.5 149 L259.5 155 Q259.5 165 249.5 165 L189.5 165 Q179.5 165 179.5 155 Z" stroke="none" clip-path="url(#clipPath2)"/>
      <path fill="url(#linearGradient6)" d="M179.5 145 Q179.5 135 189.5 135 L249.5 135 Q259.5 135 259.5 145 L259.5 150 L179.5 150 Z" clip-path="url(#clipPath2)" stroke="none"/>
      <path fill="none" d="M181.5 145 Q181.5 137 189.5 137 L249.5 137 Q257.5 137 257.5 145 L257.5 155 Q257.5 163 249.5 163 L189.5 163 Q181.5 163 181.5 155 Z" stroke-width="2" clip-path="url(#clipPath2)" stroke="rgb(255,240,217)"/>
      <path fill="none" d="M181.5 145 Q181.5 137 189.5 137 L249.5 137 Q257.5 137 257.5 145 L257.5 155 Q257.5 163 249.5 163 L189.5 163 Q181.5 163 181.5 155 Z" clip-path="url(#clipPath2)"/>
    </g>
    <g text-rendering="geometricPrecision" stroke-miterlimit="1.45" shape-rendering="geometricPrecision" font-family="sans-serif" transform="matrix(1,0,0,1,-84,-90)" stroke-linecap="butt">
      <text x="187.1445" xml:space="preserve" y="154.7139" clip-path="url(#clipPath2)" stroke="none">Audio buffer</text>
    </g>
    <g fill="rgb(255,153,0)" text-rendering="geometricPrecision" shape-rendering="geometricPrecision" transform="matrix(1,0,0,1,-84,-90)" stroke="rgb(255,153,0)">
      <path d="M259.5 149 L339.5 149 L339.5 155 Q339.5 165 329.5 165 L269.5 165 Q259.5 165 259.5 155 Z" stroke="none" clip-path="url(#clipPath2)"/>
      <path fill="url(#linearGradient7)" d="M259.5 145 Q259.5 135 269.5 135 L329.5 135 Q339.5 135 339.5 145 L339.5 150 L259.5 150 Z" clip-path="url(#clipPath2)" stroke="none"/>
      <path fill="none" d="M261.5 145 Q261.5 137 269.5 137 L329.5 137 Q337.5 137 337.5 145 L337.5 155 Q337.5 163 329.5 163 L269.5 163 Q261.5 163 261.5 155 Z" stroke-width="2" clip-path="url(#clipPath2)" stroke="rgb(255,240,217)"/>
      <path fill="none" d="M261.5 145 Q261.5 137 269.5 137 L329.5 137 Q337.5 137 337.5 145 L337.5 155 Q337.5 163 329.5 163 L269.5 163 Q261.5 163 261.5 155 Z" clip-path="url(#clipPath2)"/>
    </g>
    <g text-rendering="geometricPrecision" stroke-miterlimit="1.45" shape-rendering="geometricPrecision" font-family="sans-serif" transform="matrix(1,0,0,1,-84,-90)" stroke-linecap="butt">
      <text x="267.1445" xml:space="preserve" y="154.7139" clip-path="url(#clipPath2)" stroke="none">Audio buffer</text>
    </g>
    <g fill="rgb(255,153,0)" text-rendering="geometricPrecision" shape-rendering="geometricPrecision" transform="matrix(1,0,0,1,-84,-90)" stroke="rgb(255,153,0)">
      <path d="M339.5 149 L419.5 149 L419.5 155 Q419.5 165 409.5 165 L349.5 165 Q339.5 165 339.5 155 Z" stroke="none" clip-path="url(#clipPath2)"/>
      <path fill="url(#linearGradient8)" d="M339.5 145 Q339.5 135 349.5 135 L409.5 135 Q419.5 135 419.5 145 L419.5 150 L339.5 150 Z" clip-path="url(#clipPath2)" stroke="none"/>
      <path fill="none" d="M341.5 145 Q341.5 137 349.5 137 L409.5 137 Q417.5 137 417.5 145 L417.5 155 Q417.5 163 409.5 163 L349.5 163 Q341.5 163 341.5 155 Z" stroke-width="2" clip-path="url(#clipPath2)" stroke="rgb(255,240,217)"/>
      <path fill="none" d="M341.5 145 Q341.5 137 349.5 137 L409.5 137 Q417.5 137 417.5 145 L417.5 155 Q417.5 163 409.5 163 L349.5 163 Q341.5 163 341.5 155 Z" clip-path="url(#clipPath2)"/>
    </g>
    <g text-rendering="geometricPrecision" stroke-miterlimit="1.45" shape-rendering="geometricPrecision" font-family="sans-serif" transform="matrix(1,0,0,1,-84,-90)" stroke-linecap="butt">
      <text x="347.1445" xml:space="preserve" y="154.7139" clip-path="url(#clipPath2)" stroke="none">Audio buffer</text>
    </g>
    <g fill="rgb(255,153,0)" text-rendering="geometricPrecision" shape-rendering="geometricPrecision" transform="matrix(1,0,0,1,-84,-90)" stroke="rgb(255,153,0)">
      <path d="M419.5 149 L499.5 149 L499.5 155 Q499.5 165 489.5 165 L429.5 165 Q419.5 165 419.5 155 Z" stroke="none" clip-path="url(#clipPath2)"/>
      <path fill="url(#linearGradient9)" d="M419.5 145 Q419.5 135 429.5 135 L489.5 135 Q499.5 135 499.5 145 L499.5 150 L419.5 150 Z" clip-path="url(#clipPath2)" stroke="none"/>
      <path fill="none" d="M421.5 145 Q421.5 137 429.5 137 L489.5 137 Q497.5 137 497.5 145 L497.5 155 Q497.5 163 489.5 163 L429.5 163 Q421.5 163 421.5 155 Z" stroke-width="2" clip-path="url(#clipPath2)" stroke="rgb(255,240,217)"/>
      <path fill="none" d="M421.5 145 Q421.5 137 429.5 137 L489.5 137 Q497.5 137 497.5 145 L497.5 155 Q497.5 163 489.5 163 L429.5 163 Q421.5 163 421.5 155 Z" clip-path="url(#clipPath2)"/>
    </g>
    <g text-rendering="geometricPrecision" stroke-miterlimit="1.45" shape-rendering="geometricPrecision" font-family="sans-serif" transform="matrix(1,0,0,1,-84,-90)" stroke-linecap="butt">
      <text x="427.1445" xml:space="preserve" y="154.7139" clip-path="url(#clipPath2)" stroke="none">Audio buffer</text>
    </g>
    <g text-rendering="geometricPrecision" stroke-miterlimit="1.45" shape-rendering="geometricPrecision" font-family="sans-serif" transform="matrix(1,0,0,1,-84,-90)" stroke-linecap="butt">
      <text x="107.0273" xml:space="preserve" y="154.7139" clip-path="url(#clipPath2)" stroke="none">←  40ms  →</text>
    </g>
  </g>
</svg>
