<?xml version="1.0" encoding="UTF-8" standalone="no"?>
<!-- Created with Inkscape (http://www.inkscape.org/) -->

<svg
   xmlns:dc="http://purl.org/dc/elements/1.1/"
   xmlns:cc="http://creativecommons.org/ns#"
   xmlns:rdf="http://www.w3.org/1999/02/22-rdf-syntax-ns#"
   xmlns:svg="http://www.w3.org/2000/svg"
   xmlns="http://www.w3.org/2000/svg"
   xmlns:sodipodi="http://sodipodi.sourceforge.net/DTD/sodipodi-0.dtd"
   xmlns:inkscape="http://www.inkscape.org/namespaces/inkscape"
   width="744.09448819"
   height="1052.3622047"
   id="svg2"
   version="1.1"
   inkscape:version="0.48.4 r9939"
   sodipodi:docname="SoLoudLogo.pdf">
  <defs
     id="defs4" />
  <sodipodi:namedview
     id="base"
     pagecolor="#ffffff"
     bordercolor="#666666"
     borderopacity="1.0"
     inkscape:pageopacity="0.0"
     inkscape:pageshadow="2"
     inkscape:zoom="0.7"
     inkscape:cx="359.11785"
     inkscape:cy="676.77838"
     inkscape:document-units="px"
     inkscape:current-layer="layer1"
     showgrid="false"
     inkscape:window-width="800"
     inkscape:window-height="775"
     inkscape:window-x="150"
     inkscape:window-y="185"
     inkscape:window-maximized="0" />
  <metadata
     id="metadata7">
    <rdf:RDF>
      <cc:Work
         rdf:about="">
        <dc:format>image/svg+xml</dc:format>
        <dc:type
           rdf:resource="http://purl.org/dc/dcmitype/StillImage" />
        <dc:title></dc:title>
      </cc:Work>
    </rdf:RDF>
  </metadata>
  <g
     inkscape:label="Layer 1"
     inkscape:groupmode="layer"
     id="layer1">
    <g
       id="g2996"
       transform="matrix(1.7093822,0,0,1.7093822,-252.16577,-556.72025)">
      <path
         style="fill:#fefefe"
         d="m 372.21428,629.27225 c -9.31989,-1.31126 -25.97754,-7.46477 -26.01159,-9.60895 -0.006,-0.40133 -3.14463,-2.95392 -6.9739,-5.67244 -3.82927,-2.71852 -6.80033,-5.10476 -6.60234,-5.30275 0.19799,-0.19798 6.59874,3.31719 14.2239,7.81149 10.88563,6.41604 15.31013,8.45671 20.59595,9.49928 6.3654,1.25551 7.11718,1.19682 13.80412,-1.07755 3.88966,-1.32296 8.8,-3.7739 10.91188,-5.44654 4.22898,-3.34942 6.05658,-3.97774 3.92442,-1.34921 -0.93255,1.14966 -0.9718,1.45126 -0.12244,0.94098 1.51394,-0.90954 1.5905,-0.13769 0.23717,2.39104 -1.25846,2.35144 -12.99754,9.02022 -15.58327,8.85259 -1.04714,-0.0679 -4.8289,-0.53496 -8.4039,-1.03794 z m -4.5,-9.32461 c -3.3,-0.68616 -7.24745,-1.92303 -8.77212,-2.74859 -2.99034,-1.61918 -13.89423,-10.93241 -13.38999,-11.43666 0.1684,-0.1684 5.09315,2.15972 10.94388,5.1736 9.68127,4.98709 11.40731,5.53893 19.19748,6.13773 l 8.55977,0.65795 -3.04368,1.85098 c -3.43344,2.088 -5.00449,2.13049 -13.49534,0.36499 z m 37.94113,-0.9669 c 1.06762,-0.85092 2.45825,-1.54712 3.09028,-1.54712 0.63204,0 1.74532,-2.48507 2.47396,-5.52238 1.05298,-4.38932 1.80245,-5.64227 3.6528,-6.10667 1.28041,-0.32137 2.07502,-0.99363 1.76582,-1.49394 -0.3092,-0.5003 -1.09359,-0.57089 -1.74309,-0.15687 -0.64949,0.41403 -3.174,1.43387 -5.61001,2.26632 -3.24404,1.10857 -4.84943,2.37705 -6,4.74083 -0.86399,1.77501 -1.96014,3.23751 -2.4359,3.25 -0.47576,0.0125 -0.20704,-0.98979 0.59716,-2.22729 2.48761,-3.82797 3.39784,-5.86638 8.15645,-18.26601 3.48005,-9.06802 4.6114,-13.37455 4.6114,-17.55344 0,-5.32671 -0.14271,-5.62422 -3.75,-7.81803 -2.0625,-1.25432 -2.85,-1.98844 -1.75,-1.63137 1.1,0.35706 5.0375,1.49121 8.75,2.52032 l 6.75,1.87111 0,-2.31497 c 0,-1.65168 0.89852,-2.68715 3.13595,-3.61392 l 3.13596,-1.29896 -2.38596,-0.91911 c -2.09552,-0.80722 -10.08881,-0.9325 -24.7827,-0.38842 -3.23,0.1196 -4.45543,-0.23525 -4.61788,-1.3372 -0.17523,-1.18867 1.24123,-1.56324 6.82458,-1.80467 l 7.0457,-0.30467 6.889,-6.10755 6.88899,-6.10756 -3.31682,-1.4053 c -1.82425,-0.77291 -5.37762,-1.65351 -7.89637,-1.95688 -4.10558,-0.49449 -4.95241,-0.22421 -8.18207,2.61147 -1.98138,1.73968 -4.57323,5.16828 -5.75965,7.61911 -1.18643,2.45083 -2.30986,4.45605 -2.49651,4.45605 -0.18665,0 -1.04651,-0.70714 -1.91079,-1.57143 -3.13408,-3.13407 -1.88282,-5.67629 5.54095,-11.25772 8.52795,-6.41158 11.81578,-7.16467 18.3279,-4.19806 l 4.78293,2.17888 8.3551,-5.56021 c 4.59531,-3.05812 9.13389,-6.80474 10.08574,-8.32584 0.95185,-1.52109 1.87148,-2.95777 2.04362,-3.19262 0.17215,-0.23485 0.92792,0.41396 1.6795,1.4418 1.24205,1.69861 0.62212,2.60268 -6.80713,9.927 -4.49549,4.43201 -9.44259,9.74453 -10.99354,11.80561 -2.72588,3.62243 -2.7638,3.83306 -1.1369,6.31601 0.92566,1.41274 4.01568,4.90141 6.86671,7.7526 2.85103,2.85119 5.85869,6.19837 6.68369,7.43817 1.43375,2.15464 1.78594,2.20728 7.97469,1.19198 3.56108,-0.58422 6.51743,-1.14861 6.56966,-1.25419 1.57897,-3.1918 4.34731,-11.13366 4.00147,-11.47949 -0.26056,-0.26056 -3.39967,0.26123 -6.97581,1.15953 -5.53841,1.3912 -7.54457,1.4545 -13.53604,0.42707 -3.86869,-0.6634 -7.03397,-1.55701 -7.03397,-1.98579 0,-0.42879 2.29119,-1.94064 5.09154,-3.35969 4.56456,-2.31304 5.58151,-2.475 9.82548,-1.56483 4.54133,0.97395 8.45558,0.64 10.58298,-0.90289 0.55,-0.39888 2.75462,-1.29094 4.89915,-1.98234 3.32146,-1.07085 3.63791,-1.4033 2.1359,-2.24387 -0.96979,-0.54272 -6.43691,-1.2253 -12.14915,-1.51684 -5.71225,-0.29154 -10.3859,-0.81703 -10.3859,-1.16776 0,-0.35073 2.5875,-3.17982 5.75,-6.28688 4.87551,-4.79002 6.16824,-5.56598 8.5,-5.10212 1.5125,0.30089 2.75,1.16961 2.75,1.9305 0,0.76088 0.45,1.38342 1,1.38342 2.3365,0 0.63321,1.69408 -4.47218,4.44798 -3.00585,1.6214 -5.30406,3.10912 -5.10713,3.30605 0.58138,0.58137 12.74386,-2.78776 15.83585,-4.38669 2.08868,-1.0801 2.68647,-1.97154 2.24816,-3.35253 -0.93731,-2.95319 5.4027,-3.24548 7.7453,-0.35708 2.73959,3.37788 2.10958,4.93323 -2.75,6.78912 l -4.5,1.71857 0,5.5466 c 0,5.26156 -0.34248,6.01531 -6.66435,14.66729 -7.1978,9.85076 -19.00057,24.27463 -21.6788,26.49313 -0.91127,0.75485 -1.65685,1.77733 -1.65685,2.27219 0,1.77605 -20.93412,21.85537 -22.78578,21.85537 -1.03449,0 -2.19005,0.30917 -2.56792,0.68704 -0.37788,0.37787 -1.46538,0.75565 -2.41667,0.83951 -0.9513,0.0839 -3.30463,0.4709 -5.22963,0.86009 -3.28193,0.66351 -3.37906,0.6112 -1.55887,-0.83952 z m 24.34806,-18.49036 c 2.99618,-0.80678 5.23911,-2.63033 9.56255,-7.77452 3.10654,-3.69629 5.64826,-7.01071 5.64826,-7.36538 0,-0.35467 -1.75545,-1.86138 -3.90099,-3.34825 -2.14555,-1.48686 -4.12842,-3.57306 -4.40638,-4.636 -0.954,-3.64808 -2.69263,-1.99032 -2.69263,2.56739 l 0,4.5 -3.94098,0 c -2.16754,0 -4.22569,0.46066 -4.57366,1.02369 -0.34797,0.56303 0.14044,3.04807 1.08535,5.5223 2.40892,6.30765 1.17151,6.5631 -2.74972,0.56765 -1.82654,-2.79274 -4.05228,-5.08579 -4.94609,-5.09567 -0.8938,-0.01 -2.32774,1.43283 -3.18653,3.20604 -1.78126,3.67791 -1.31686,4.60641 3.92405,7.84547 1.86317,1.1515 3.38758,2.78008 3.38758,3.61907 0,0.91559 0.57466,1.30491 1.43745,0.97382 0.7906,-0.30338 3.19889,-1.0259 5.35174,-1.60561 z m -55.71482,11.63031 c -2.98409,-1.78245 -5.59953,-3.76255 -5.81208,-4.40021 -0.21256,-0.63767 0.76647,-1.91483 2.17562,-2.83814 1.40915,-0.9233 2.56209,-2.29284 2.56209,-3.04341 0,-3.65549 14.08357,-7.23588 15.36163,-3.90531 0.31658,0.825 1.23817,1.5 2.04797,1.5 1.88341,0 2.7537,1.41086 2.0314,3.29316 -0.49193,1.28195 -1.16342,1.29369 -5.16218,0.0902 -8.48226,-2.55279 -10.24195,-1.65462 -12.76709,6.51647 l -0.74164,2.39987 6.61495,-0.67772 c 3.63823,-0.37274 6.61145,-0.32769 6.60716,0.10013 -0.007,0.66953 -3.19011,2.54217 -6.4922,3.81905 -0.55,0.21267 -3.44153,-1.07168 -6.42563,-2.85413 z m 15.67563,-4.88151 c 1.20694,-1.20695 2.51159,-1.8773 2.89922,-1.48967 0.38763,0.38763 -0.16237,1.36081 -1.22222,2.16264 -2.9741,2.25004 -4.13439,1.78442 -1.677,-0.67297 z M 352.681,602.39954 c -10.20512,-10.451 -27.17881,-16.53266 -39.06424,-13.99671 -10.45828,2.23145 -9.81474,1.91776 -8.01473,3.90676 2.72087,3.00652 1.85663,3.08428 -4.63775,0.41724 -3.4375,-1.41167 -7.47838,-2.72029 -8.97973,-2.90805 -5.67308,-0.70948 -11.55501,-4.21703 -13.64211,-8.13516 -2.09727,-3.93722 2.12727,-2.74615 7.98042,2.25 2.89953,2.475 5.55869,4.5 5.90924,4.5 0.35055,0 3.40601,-1.125 6.7899,-2.5 3.3839,-1.375 7.62398,-2.52749 9.42241,-2.56109 1.79843,-0.0336 5.71099,-0.82687 8.69459,-1.76282 4.41612,-1.38532 6.01204,-2.536 8.58363,-6.1889 1.7374,-2.46796 4.02128,-4.64833 5.07528,-4.84528 1.68462,-0.31478 1.61405,-0.0277 -0.58363,2.37421 l -2.5,2.7323 2.5,-0.75899 c 1.375,-0.41745 2.72924,-1.11224 3.00943,-1.54398 0.60958,-0.9393 11.10108,-5.16827 11.59541,-4.67394 0.18965,0.18965 -2.62213,1.86657 -6.24841,3.72648 -3.62627,1.85991 -7.28898,4.08374 -8.13934,4.94184 -0.85037,0.85809 -2.87268,2.54549 -4.49403,3.74978 l -2.9479,2.1896 3.52831,1.47423 c 1.94057,0.81082 7.27866,2.61935 11.86242,4.01896 8.28407,2.52946 8.36611,2.58754 13.66363,9.67332 2.93124,3.92071 5.152,7.3061 4.93502,7.52307 -0.21697,0.21697 -2.15099,-1.40432 -4.29782,-3.60287 z m 3.07002,-15.21592 c 0.36933,-1.2375 1.41215,-3.32202 2.31739,-4.63227 0.90523,-1.31025 2.09587,-3.13046 2.64587,-4.04493 0.55,-0.91446 2.4625,-3.43247 4.25,-5.59557 l 3.25,-3.93292 0,5.55569 c 0,5.55565 -3e-5,5.55571 -5.75,10.22288 -6.45385,5.23849 -7.68518,5.68367 -6.71326,2.42712 z m 37.13285,-10.36697 c -3.82773,-7.73571 -4.41961,-10.70284 -1.13501,-5.68991 0.99302,1.51555 2.58342,3.59054 3.53422,4.6111 0.99828,1.07153 1.68775,3.30067 1.63177,5.27567 -0.0533,1.88106 -0.13408,3.42011 -0.17947,3.42011 -0.0454,0 -1.77857,-3.42764 -3.85151,-7.61697 z m 7.83041,0.068 c -5.44932,-7.05777 -6.21045,-8.451 -4.61686,-8.451 1.1219,0 11.11686,12.72122 11.11686,14.14913 0,1.97124 -1.7901,0.40198 -6.5,-5.69813 z m -53.61847,0.84406 c 2.08238,-5.30131 3.79585,-6.53485 4.30987,-3.10269 0.21428,1.43078 -0.61014,3.35257 -2.16965,5.05763 -3.62717,3.9657 -4.24441,3.4019 -2.14022,-1.95494 z m -73.36468,-5.26182 c -1.38427,-2.73171 -2.51685,-6.05988 -2.51685,-7.39592 0,-2.31222 0.38789,-2.46349 8.05791,-3.14245 4.43185,-0.3923 10.82109,-1.54991 14.1983,-2.57244 3.37721,-1.02254 6.3147,-1.68486 6.52774,-1.47182 0.89069,0.8907 -4.36477,2.75484 -11.57175,4.10455 -6.86677,1.286 -8.0652,1.85544 -10.93237,5.19458 l -3.22017,3.75026 6.22017,1.04739 6.22017,1.04739 -4.21016,2.20261 c -2.31559,1.21143 -4.67051,2.20261 -5.23316,2.20261 -0.56264,0 -2.15557,-2.23504 -3.53983,-4.96676 z m 29.48315,4.14107 c 0,-0.45412 1.14343,-1.89987 2.54095,-3.21278 2.51216,-2.36005 2.51719,-2.39588 0.44402,-3.16279 -1.44548,-0.53472 -3.62252,-0.003 -7.0077,1.71278 -5.936,3.008 -6.60708,3.04871 -7.9796,0.48413 -0.908,-1.69661 -0.68089,-2.18286 1.47918,-3.16706 1.77024,-0.80657 2.38153,-1.69944 1.99572,-2.915 -0.64415,-2.02954 0.53521,-2.50304 8.57985,-3.44472 4.41839,-0.5172 5.82201,-0.32509 6.87244,0.94059 0.72602,0.8748 1.88483,1.59054 2.57514,1.59054 0.69031,0 1.79701,0.65295 2.45932,1.45099 0.66232,0.79804 3.22625,1.75421 5.69763,2.12482 2.47138,0.3706 4.12208,1.01011 3.66823,1.42113 -0.97699,0.88479 -18.6558,7.00306 -20.23543,7.00306 -0.59936,0 -1.08975,-0.37156 -1.08975,-0.82569 z m 28.5,-14.76065 c -5.70073,-1.9777 -7.46378,-3.12311 -9.49869,-6.17105 -1.37427,-2.05844 -3.06177,-4.33725 -3.75,-5.06404 -2.12944,-2.24877 -1.40255,-4.05447 2.49869,-6.20707 2.0625,-1.13804 4.96155,-2.82246 6.44234,-3.74315 2.3737,-1.47589 3.26133,-1.51806 7.5,-0.35633 2.64421,0.72472 5.25766,1.43084 5.80766,1.56917 3.80847,0.95783 6.67364,2.88531 7.49318,5.04088 0.52653,1.38486 1.41846,2.51793 1.98207,2.51793 0.56361,0 1.02475,0.61431 1.02475,1.36514 0,0.75083 0.87653,2.47947 1.94785,3.84143 2.88173,3.66353 1.71305,6.08926 -3.89297,8.08034 -6.24172,2.21686 -9.05034,2.07715 -17.55488,-0.87325 z m 17.49919,-3.16366 c -4.5e-4,-0.9625 -0.85057,-4 -1.88915,-6.75 -1.73021,-4.58134 -2.25347,-5.0918 -6.24918,-6.09638 -9.94966,-2.50148 -12.20436,-2.50222 -15.3361,-0.005 l -2.94376,2.34727 2.9595,3.54733 c 3.39837,4.07337 7.6765,6.45833 13.72671,7.65236 7.25153,1.4311 9.73288,1.25377 9.73198,-0.69552 z m -84.99919,-14.12155 0,-7.87155 11.25,-0.71218 c 15.82349,-1.0017 17.50589,-1.00592 24.25,-0.0608 l 6,0.84083 -4.5,0.89222 c -2.475,0.49072 -8.11943,0.62673 -12.54319,0.30225 -8.85755,-0.64971 -14.7805,0.9298 -15.71636,4.19116 -0.28245,0.9843 -0.83774,2.57714 -1.23399,3.53964 -0.66539,1.61629 0.41472,1.76277 14.13655,1.9171 l 14.85699,0.1671 -12,0.70546 c -6.6,0.38801 -14.60946,1.43781 -17.79879,2.3329 -3.18933,0.89507 -6.00183,1.62742 -6.25,1.62742 -0.24817,0 -0.45121,-3.5422 -0.45121,-7.87155 z m 43,-8.59651 c 0,-0.25744 1.2113,-1.10273 2.69177,-1.87843 l 2.69177,-1.41036 -2.94177,-0.5837 c -1.61797,-0.32103 -5.07927,-0.87684 -7.69177,-1.23512 -2.6125,-0.35828 -4.75,-0.97188 -4.75,-1.36356 0,-0.39168 1.10342,-1.74875 2.45204,-3.01571 l 2.45203,-2.30357 3.12469,2.62926 c 1.71858,1.44609 3.52465,2.62925 4.01349,2.62925 0.95457,0 6.95775,5.57915 6.95775,6.4663 0,0.29353 -2.025,0.5337 -4.5,0.5337 -2.475,0 -4.5,-0.21063 -4.5,-0.46806 z m -114.63144,-6.9591 c -7.45094,-1.6999 -11.30797,-3.61986 -16.26056,-8.09423 -3.51067,-3.17168 -8.0098,-10.91014 -6.95588,-11.96406 0.25578,-0.25578 3.46212,-1.0933 7.1252,-1.86114 l 6.66014,-1.39608 1.84581,3.55679 c 2.58336,4.978 8.03993,7.57239 16.8833,8.02736 8.28193,0.42608 13.09382,-0.8746 16.74565,-4.52642 4.40866,-4.40867 2.94218,-11.96994 -2.85507,-14.72092 -1.74116,-0.82623 -7.41631,-2.42786 -12.61145,-3.55918 -22.97357,-5.00283 -29.3863,-10.57511 -29.3863,-25.53496 0,-15.74396 11.15371,-25.03629 29.9406,-24.94399 13.27797,0.0652 24.30755,5.22612 28.4273,13.30148 l 1.98162,3.8843 -7.25527,1.44367 -7.25527,1.44366 -1.82356,-2.41755 c -2.52616,-3.34901 -7.52162,-5.21157 -13.9776,-5.21157 -9.06763,0 -14.59722,3.37832 -14.59722,8.91821 0,6.71199 1.99764,7.95481 20.47623,12.73913 16.10252,4.16913 20.92728,6.94391 24.72955,14.22229 5.0594,9.6848 3.43227,20.52427 -4.23721,28.2271 -8.11812,8.15341 -23.6459,11.64968 -37.60001,8.46611 z m 73.34492,0.0643 c -6.81501,-1.9171 -11.67139,-6.25926 -15.64334,-13.98693 -4.38549,-8.53223 -5.3826,-20.06933 -2.52084,-29.1676 2.33663,-7.42877 9.66823,-15.6294 16.23872,-18.16355 5.60917,-2.16337 15.9625,-2.35099 21.65629,-0.39244 5.528,1.90153 12.91161,9.14873 15.53577,15.24874 5.10293,11.86208 3.09998,28.69804 -4.4657,37.53684 -6.89487,8.0551 -20.19406,11.9087 -30.8009,8.92494 z m 16.77729,-12.80851 c 4.325,-3.40205 6.46206,-9.23699 6.48727,-17.71258 0.0284,-9.55228 -1.52325,-14.50953 -5.68551,-18.16404 -2.78032,-2.44118 -4.24169,-2.95201 -8.44497,-2.95201 -4.54308,0 -5.48236,0.39951 -8.84491,3.76206 -2.93199,2.93199 -4.0405,5.08325 -5.02402,9.75 -2.2245,10.55513 1.43809,23.41981 7.5085,26.37325 3.77484,1.83658 11.0205,1.28983 14.00364,-1.05671 z m 114.22271,12.80851 c -6.81501,-1.9171 -11.67139,-6.25926 -15.64334,-13.98693 -4.38549,-8.53223 -5.3826,-20.06933 -2.52084,-29.1676 2.33663,-7.42877 9.66823,-15.6294 16.23872,-18.16355 5.60917,-2.16337 15.9625,-2.35099 21.65629,-0.39244 5.528,1.90153 12.91161,9.14873 15.53577,15.24874 5.10293,11.86208 3.09998,28.69804 -4.4657,37.53684 -6.89487,8.0551 -20.19406,11.9087 -30.8009,8.92494 z m 16.77729,-12.80851 c 4.325,-3.40205 6.46206,-9.23699 6.48727,-17.71258 0.0284,-9.55228 -1.52325,-14.50953 -5.68551,-18.16404 -2.78032,-2.44118 -4.24169,-2.95201 -8.44497,-2.95201 -4.54308,0 -5.48236,0.39951 -8.84491,3.76206 -2.93199,2.93199 -4.0405,5.08325 -5.02402,9.75 -2.2245,10.55513 1.43809,23.41981 7.5085,26.37325 3.77484,1.83658 11.0205,1.28983 14.00364,-1.05671 z m -11.49077,-5.65049 c 0,-1.72649 3.24916,-10.26231 3.72516,-9.78631 0.79075,0.79075 -1.82357,10.60817 -2.8249,10.60817 -0.49514,0 -0.90026,-0.36984 -0.90026,-0.82186 z m -3.22634,-5.93565 c -0.64627,-2.47134 1.08938,-9.24249 2.36912,-9.24249 0.76389,0 0.33213,3.44497 -1.12706,8.99252 -0.65173,2.47777 -0.65909,2.47925 -1.24206,0.24997 z m 62.22634,24.59071 c -4.65463,-1.31183 -9.45376,-6.06663 -10.85976,-10.75946 -0.71703,-2.39322 -1.14024,-12.76341 -1.14024,-27.93976 l 0,-24.13398 7,0 7,0 0,22.06574 c 0,22.34306 0.36594,24.92885 3.91334,27.65246 2.56997,1.97316 8.4656,1.49846 12.18878,-0.9814 6.14242,-4.09123 7.00294,-7.38678 7.63658,-29.24623 l 0.56497,-19.49057 6.34816,0 6.34817,0 0,31.5 0,31.5 -6,0 -6,0 0,-6.5 c 0,-3.66667 -0.4359,-6.5 -1,-6.5 -0.55,0 -1,0.6671 -1,1.48244 0,0.81534 -1.9125,3.46833 -4.25,5.89553 -5.84811,6.07253 -12.4248,7.80156 -20.75,5.45523 z m 69.77398,0.025 c -5.10956,-1.43375 -11.2278,-7.86595 -13.96476,-14.68137 -1.92671,-4.79777 -2.28201,-7.53502 -2.29447,-17.67682 -0.0136,-11.07405 0.20181,-12.46298 2.79179,-18 4.56121,-9.75126 9.25914,-13.71249 17.77774,-14.98993 6.70075,-1.00484 12.06394,0.80471 16.30797,5.50234 l 3.60775,3.99334 0,-14.50288 0,-14.50288 7,0 7,0 0,42.5 0,42.5 -6.5,0 -6.5,0 0,-6.17144 0,-6.17145 -2.93221,4.42145 c -1.61271,2.43179 -4.30373,5.22908 -5.98005,6.21619 -3.77507,2.22299 -11.3695,2.95081 -16.31376,1.56344 z m 19.51474,-15.78395 4.21128,-3.92577 0.32428,-11.82423 c 0.30297,-11.04715 0.16955,-12.0533 -2.03002,-15.30967 -2.78448,-4.12231 -6.06389,-5.97959 -10.59392,-5.99983 -8.87535,-0.0396 -13.61629,7.09334 -13.61551,20.48526 8.1e-4,13.94384 4.16817,20.5 13.03062,20.5 3.80978,0 5.07756,-0.57383 8.67327,-3.92576 z m -231.28872,-26.57425 0,-42.5 7.5,0 7.5,0 0,36 0,36 18.5,0 18.5,0 0,6.5 0,6.5 -26,0 -26,0 0,-42.5 z m 113.8639,36.91728 c 2.21862,-2.52049 4.80625,-6.68299 5.75027,-9.25 2.0434,-5.55648 3.38583,-7.36365 3.38583,-4.55799 0,1.10511 -2.08485,5.69511 -4.63299,10.2 -3.3229,5.87458 -5.18497,8.19071 -6.58499,8.19071 -1.63313,0 -1.29305,-0.74859 2.08188,-4.58272 z m -54.8639,2.14174 c 0,-1.75653 0.60006,-2.01516 1.45729,-0.62812 0.31644,0.512 0.11799,1.21356 -0.44098,1.55902 -0.55897,0.34546 -1.01631,-0.0734 -1.01631,-0.9309 z m 64.20367,-2.51354 c 1.37978,-2.20937 2.35126,-1.93398 1.45125,0.41139 -0.32568,0.84872 -1.06009,1.54313 -1.63201,1.54313 -0.65816,0 -0.5918,-0.71745 0.18076,-1.95452 z m -134.20367,-2.14875 c -1.925,-1.11069 -2.6,-1.71578 -1.5,-1.34463 1.1,0.37114 2.7875,0.90124 3.75,1.17798 0.9625,0.27675 1.75,0.9007 1.75,1.38655 0,1.12339 0.12999,1.16303 -4,-1.2199 z m 2,-5.89673 c -0.79314,-0.49019 -1.21708,-1.11625 -0.94208,-1.39125 0.275,-0.275 1.14894,-0.0989 1.94208,0.39125 0.79314,0.49019 1.21708,1.11625 0.94208,1.39125 -0.275,0.275 -1.14894,0.0989 -1.94208,-0.39125 z m 32.12514,-7.92912 c 0.70754,-2.02966 0.69157,-3.54485 -0.052,-4.93426 -1.31047,-2.44864 -1.4266,-7.47312 -0.15456,-6.68695 0.50521,0.31224 2.73242,3.71379 4.94936,7.55902 l 4.03079,6.99131 -4.89734,0 -4.89733,0 1.0211,-2.92912 z m 13.74891,0.17912 c -1.31836,-3.36799 -2.41434,-10.99447 -1.45253,-10.10756 1.26649,1.16786 4.41408,12.85756 3.46206,12.85756 -0.5132,0 -1.41748,-1.2375 -2.00953,-2.75 z m 7.0316,0.002 c -0.57467,-1.51149 -1.70884,-3.48187 -2.52038,-4.37861 -0.81154,-0.89674 -2.35522,-5.31357 -3.4304,-9.81517 -2.19098,-9.17346 -2.29229,-10.05822 -1.1517,-10.05822 0.44174,0 1.84807,3.2625 3.12518,7.25 1.2771,3.9875 3.59403,9.725 5.14873,12.75 l 2.82672,5.5 0.0481,-11.25 c 0.0291,-6.80127 0.44354,-11.25 1.0481,-11.25 1.13713,0 1.31183,8.72319 0.35754,17.85331 -0.5356,5.12436 -0.95552,6.14669 -2.52475,6.14669 -1.13297,0 -2.29824,-1.09401 -2.92714,-2.74817 z m -52.40565,-1.252 c -0.33992,-0.55 -0.14148,-1 0.44098,-1 0.58246,0 1.05902,0.45 1.05902,1 0,0.55 -0.19844,1 -0.44098,1 -0.24254,0 -0.7191,-0.45 -1.05902,-1 z m 0.75218,-9.5 c -0.0111,-2.2 0.18461,-3.21775 0.4349,-2.26166 0.25029,0.95609 0.25937,2.75609 0.0202,4 -0.23919,1.24391 -0.44398,0.46166 -0.45508,-1.73834 z m 129.42293,-10 c -0.43404,-1.1 -1.64325,-4.1812 -2.68713,-6.84711 l -1.89798,-4.84712 2.70295,0.6784 c 1.48662,0.37312 2.84035,0.8158 3.00829,0.98373 0.16793,0.16794 0.16081,2.94386 -0.0158,6.16872 -0.22612,4.12831 -0.55468,5.27155 -1.11031,3.86338 z M 235.32236,482.373 c -5.69809,-5.97151 -8.83453,-11.86381 -6.95061,-13.05783 2.17275,-1.37708 3.69981,-1.01672 4.85741,1.14628 0.94673,1.76898 1.71163,1.94471 5.99289,1.37678 2.6992,-0.35806 5.67312,-0.35727 6.60872,0.002 1.49449,0.57349 1.37231,0.99592 -1.006,3.47834 -1.48889,1.55407 -2.63205,3.22827 -2.54036,3.72045 0.42939,2.30462 -0.23528,3.39463 -2.07013,3.39463 -2.2597,0 -2.56375,1.03625 -0.81667,2.78333 0.65084,0.65084 0.98834,1.31279 0.75,1.47101 -0.23833,0.15821 -2.40969,-1.78353 -4.82525,-4.31499 z m 72.23029,-1.85387 c -0.98244,-2.60278 -0.87219,-2.97569 1.03076,-3.48635 3.43867,-0.92277 3.63087,-0.76922 3.63087,2.90087 0,4.51316 -3.03521,4.89436 -4.66163,0.58548 z m 199.66163,-6.41216 c 0,-8.93423 0.47132,-10.37076 5.76569,-17.57336 1.84186,-2.50572 3.23431,-5.61474 3.23431,-7.22149 0,-1.55179 1.07791,-5.2588 2.39536,-8.23778 1.31745,-2.97899 3.16609,-10.30432 4.10808,-16.27852 0.94199,-5.97419 2.57616,-13.41653 3.6315,-16.53852 1.05533,-3.12199 2.45279,-9.34013 3.10546,-13.81809 1.03317,-7.08855 0.94326,-9.45884 -0.69505,-18.32365 -1.03495,-5.60005 -2.06388,-13.10691 -2.28652,-16.68191 -0.40057,-6.43211 -0.46902,-6.56528 -6.55293,-12.75 -5.49487,-5.58592 -6.57019,-6.25 -10.12046,-6.25 -5.59156,0 -16.39618,5.55054 -26.35587,13.53953 -7.60801,6.10262 -15.22957,14.44554 -15.22957,16.67099 0,1.85243 -5.64438,8.48484 -14.22034,16.70958 -4.82881,4.63105 -8.77966,8.97194 -8.77966,9.64641 0,0.67447 -1.575,2.60917 -3.5,4.29935 -1.925,1.69017 -3.50515,3.42429 -3.51144,3.85359 -0.006,0.4293 -2.96297,3.93055 -6.5704,7.78055 -7.23995,7.7268 -11.77208,13.81147 -12.84855,17.25 -0.38741,1.2375 -1.12406,2.25 -1.637,2.25 -0.51293,0 -0.93261,0.6375 -0.93261,1.41667 0,0.77916 -0.382,1.56666 -0.84889,1.75 -0.96531,0.37904 -5.67737,11.87506 -7.80746,19.04786 -1.10549,3.72259 -1.88263,4.78547 -3.49897,4.78547 -1.74591,0 -1.98173,-0.43929 -1.4762,-2.75 0.33091,-1.5125 1.13118,-6.25663 1.77838,-10.54252 1.32645,-8.78397 1.49222,-8.49074 -7.58179,-13.41229 -2.64748,-1.43594 -3.40878,-2.22057 -2.1831,-2.25 1.03508,-0.0249 3.44556,0.92117 5.35663,2.10227 l 3.47466,2.14746 4.14337,-2.04404 c 6.25489,-3.08571 12.20948,-8.70681 17.60987,-16.6236 2.67399,-3.92001 11.23103,-13.87728 19.01562,-22.12728 12.40881,-13.15067 19.68367,-22.05518 32.27092,-39.5 4.6652,-6.46556 3.76356,-5.8902 24.95951,-15.92723 16.11792,-7.63241 17.59487,-7.23808 24.44911,6.52764 3.02965,6.08461 4.41035,9.86272 3.69344,10.10664 -0.76338,0.25974 -0.87069,1.28987 -0.32202,3.09125 3.86248,12.68136 4.75125,36.01819 1.69423,44.48665 -0.95002,2.63172 -1.72731,7.35867 -1.72731,10.50433 0,3.75804 -0.90809,8.1184 -2.64803,12.71505 -1.45641,3.84762 -3.17784,10.82067 -3.82538,15.49567 -0.65576,4.73426 -2.17298,10.42834 -3.42465,12.85263 -1.23602,2.39394 -3.36361,7.67629 -4.72798,11.73854 -1.36438,4.06226 -3.1289,8.62858 -3.92116,10.14738 -0.79226,1.5188 -1.44325,3.29739 -1.44664,3.95243 -0.003,0.65504 -0.45616,1.4691 -1.00616,1.80902 -0.63651,0.39339 -1,-2.45151 -1,-7.82668 z m -206.52019,-4.69562 c -0.99048,-1.09448 -1.61614,-2.15711 -1.39035,-2.3614 0.885,-0.80071 12.15414,-3.70603 12.60933,-3.25084 0.89294,0.89293 -0.81675,4.62772 -2.51651,5.49727 -4.06418,2.07912 -6.89113,2.11647 -8.70247,0.11497 z m -6.89134,-5.53667 c -1.64444,-1.20244 -1.61862,-1.35453 0.4146,-2.44267 1.19252,-0.63822 2.25702,-1.01144 2.36554,-0.82938 0.10853,0.18206 0.75447,1.06356 1.43543,1.95888 1.02818,1.35184 0.92443,1.70988 -0.61192,2.11165 -1.01752,0.26609 -2.63917,-0.0932 -3.60365,-0.79848 z m 143.56157,-1.4473 c -5.89883,-4.27309 -5.80795,-4.3143 4.08661,-1.85324 3.39534,0.84452 3.62456,1.10889 2.50945,2.89446 -1.58098,2.53155 -1.68713,2.51479 -6.59606,-1.04122 z m 1.45999,-7.51484 c -5.41696,-5.3311 -7.01709,-8.47889 -4.31011,-8.47889 0.71495,0 4.20245,2.11361 7.75,4.69692 3.54754,2.58331 8.25008,5.72789 10.45008,6.98796 l 4,2.29103 -6.13997,0.012 c -6.10676,0.012 -6.17031,-0.0178 -11.75,-5.50906 z m -146.11003,2.53851 c 2.2,-1.08072 4.675,-1.94004 5.5,-1.9096 1.68267,0.0621 -3.15176,2.31338 -7,3.25975 -1.39695,0.34354 -0.73513,-0.25217 1.5,-1.35015 z m 164.81832,-3.81936 c -7.01789,-2.63651 -15.95701,-9.3556 -14.84357,-11.15718 0.61584,-0.99645 15.58212,2.64816 17.02525,4.14601 0.6834,0.70931 0.3668,0.85907 -1,0.47301 -5.34409,-1.50946 -7.49868,-1.80259 -7.48469,-1.01829 0.0323,1.80875 1.6487,3.14641 6.23652,5.16098 5.02185,2.20516 9.85933,5.23302 8.22068,5.14547 -0.53488,-0.0286 -4.20426,-1.26608 -8.15419,-2.75 z M 291.71428,451.498 c 2.2,-1.05093 5.35,-2.18508 7,-2.52034 2.11458,-0.42966 1.67187,-0.0483 -1.5,1.29201 -6.23469,2.63462 -10.38365,3.56121 -5.5,1.22833 z m -4.61462,-3.59284 c 2.58063,-1.91982 17.24995,-7.66952 17.90251,-7.01695 0.57223,0.57223 -5.27255,3.46971 -11.20072,5.55263 -2.79794,0.98309 -5.98717,2.11401 -7.08717,2.51316 -1.61479,0.58596 -1.54057,0.38395 0.38538,-1.04884 z m 181.11462,-1.02687 c -4.125,-1.2964 -8.22794,-2.79341 -9.11764,-3.32668 -0.88971,-0.53328 -3.42852,-1.45721 -5.6418,-2.05318 -2.21328,-0.59598 -6.66034,-3.16855 -9.88236,-5.71682 -3.22201,-2.54828 -4.9582,-4.28066 -3.8582,-3.84974 1.1,0.43092 7.625,2.70946 14.5,5.06343 16.55469,5.66826 19.0597,6.79381 21.92431,9.85103 2.96314,3.16237 2.04806,3.16606 -7.92431,0.032 z m -183.55887,-2.97644 c 1.06762,-0.80751 2.41762,-1.45389 3,-1.4364 0.58238,0.0175 0.18536,0.6925 -0.88226,1.5 -1.06762,0.80751 -2.41762,1.45389 -3,1.4364 -0.58238,-0.0175 -0.18536,-0.6925 0.88226,-1.5 z m -8.19113,-2.68869 c -1.2375,-0.59683 -2.25,-1.40802 -2.25,-1.80265 0,-0.86809 12.15981,-5.22818 20.64434,-7.40236 7.24367,-1.8562 7.35566,-1.86509 7.35566,-0.58365 0,1.13088 -20.05577,11.04456 -22.135,10.94147 -0.75075,-0.0372 -2.3775,-0.55599 -3.615,-1.15281 z m -60.5,-2.5369 c -0.97025,-0.21582 -1.75,-1.30173 -1.75,-2.43712 0,-1.12632 -1.3871,-7.94657 -3.08245,-15.1561 -3.15072,-13.39858 -3.2193,-15.23476 -1.0327,-27.64939 0.62967,-3.575 1.85534,-11 2.72373,-16.5 2.19438,-13.89834 8.35126,-30.49688 14.83716,-40 1.12612,-1.65 2.10792,-3.1339 2.18177,-3.29755 0.0738,-0.16366 2.55036,0.82516 5.50338,2.19737 2.95301,1.37222 6.71275,2.77883 8.35498,3.12581 3.85308,0.8141 1.89435,1.96286 -4.98587,2.92411 -8.36115,1.16815 -13.5,2.71961 -13.5,4.07576 0,0.70843 -1.28997,4.16316 -2.86659,7.67717 -4.19654,9.35329 -9.93981,39.44688 -8.51146,44.59838 0.38846,1.401 -0.0606,3.59825 -1.148,5.61746 -1.72769,3.20813 -1.7186,3.59012 0.27831,11.69895 1.13537,4.6104 2.3824,10.85754 2.77116,13.88254 0.38877,3.025 1.1415,6.32604 1.67273,7.33565 1.13115,2.14972 0.91669,2.43253 -1.44615,1.90696 z m 108.25,-4.39515 c -1.375,-2.27543 -3.67745,-6.16235 -5.11656,-8.63761 -1.43911,-2.47526 -5.82026,-8.59759 -9.73589,-13.60516 -3.91563,-5.00758 -11.29416,-14.79938 -16.39673,-21.75956 -5.10257,-6.96017 -11.87211,-15.41852 -15.04343,-18.79633 l -5.76604,-6.14148 -6.22068,0.50925 c -3.42137,0.28008 -5.36785,0.25536 -4.32552,-0.0549 1.38935,-0.41361 1.55758,-0.77281 0.63035,-1.34587 -0.84498,-0.52223 -0.0634,-1.17819 2.35486,-1.97628 1.9908,-0.65702 3.61798,-1.49719 3.61594,-1.86703 -0.002,-0.36985 -2.81453,-2.14698 -6.25,-3.94918 -6.39497,-3.35472 -8.84173,-5.16581 -12.10567,-8.96065 l -1.85937,-2.1618 3.85937,1.04898 c 2.12265,0.57694 4.53437,1.60195 5.35937,2.27781 2.57019,2.10555 8.5061,5.25428 12.20915,6.4764 2.62317,0.86572 5.27015,3.37081 10.16858,9.6235 3.64225,4.64921 6.62227,8.70716 6.62227,9.01767 0,1.38708 8.86053,13.46749 13.53592,18.45482 2.8358,3.025 6.23782,7.1186 7.56004,9.0969 1.32222,1.97829 5.4367,6.25329 9.14328,9.5 6.12739,5.36717 6.74021,6.25366 6.75,9.76439 0.0106,3.80979 0.0541,3.85338 3.26076,3.26825 1.9089,-0.34833 6.34484,0.21765 10.75,1.37157 4.125,1.08054 8.66123,1.97233 10.08052,1.98175 1.41929,0.009 4.79429,1.14026 7.5,2.51295 2.70571,1.3727 6.26948,2.52933 7.91948,2.57029 1.65,0.041 3.9,0.44454 5,0.89685 1.86981,0.76885 1.88306,0.87004 0.20354,1.55453 -2.28189,0.92999 -7.31033,0.25943 -21.70354,-2.89428 -10.31097,-2.25924 -11.73264,-2.36765 -13.75,-1.04843 -1.49997,0.98087 -2.25,2.4637 -2.25,4.44828 0,4.41197 -2.97588,3.8289 -6,-1.17559 z m 51,-0.36627 c 0,-0.25083 3.2625,-2.09318 7.25,-4.09412 3.9875,-2.00095 8.51341,-4.5307 10.05758,-5.62167 4.45599,-3.14821 4.6018,-0.92392 0.19242,2.93541 -4.50834,3.94594 -7.62666,5.49788 -12,5.97217 -1.65,0.17895 -3.5625,0.53661 -4.25,0.7948 -0.6875,0.2582 -1.25,0.26423 -1.25,0.0134 z m 89,-0.48119 c -1.33333,-0.86167 -1.33333,-0.96937 0,-0.96937 0.825,0 2.175,0.43621 3,0.96937 1.33333,0.86167 1.33333,0.96937 0,0.96937 -0.825,0 -2.175,-0.43621 -3,-0.96937 z m 5,-4.5 c -4.61499,-1.77723 -2.76793,-1.81423 3.5,-0.0701 2.9951,0.83341 3.99755,1.39664 2.5,1.40463 -1.375,0.007 -4.075,-0.59319 -6,-1.3345 z m -182,-0.39546 c 0.825,-0.45906 2.85,-1.12728 4.5,-1.48493 2.82821,-0.61305 2.88884,-0.56351 1.05887,0.86505 -1.06762,0.83344 -3.09262,1.50166 -4.5,1.48493 -1.90724,-0.0227 -2.17689,-0.24295 -1.05887,-0.86505 z m -2,-4.10454 c 3.025,-1.59811 5.95,-2.90564 6.5,-2.90564 0.55,0 -1.475,1.30754 -4.5,2.90564 -3.025,1.5981 -5.95,2.90564 -6.5,2.90564 -0.55,0 1.475,-1.30754 4.5,-2.90564 z m 175.5,-5.61479 -4,-1.40507 4.88957,0.50993 c 2.68927,0.28046 5.95177,0.50993 7.25,0.50993 1.29824,0 2.36043,0.45 2.36043,1 0,1.3976 -5.72545,1.06237 -10.5,-0.61479 z m -174.5,-2.80931 c 4.56408,-2.52092 8,-3.26573 8,-1.73419 0,0.7422 -4.5112,2.35453 -10.5,3.75276 -1.1,0.25682 0.025,-0.65154 2.5,-2.01857 z m 180.75,-1.23818 c 0.6875,-0.27741 1.8125,-0.27741 2.5,0 0.6875,0.27741 0.125,0.50439 -1.25,0.50439 -1.375,0 -1.9375,-0.22698 -1.25,-0.50439 z m 1.57024,-5.18443 c -3.39887,-0.90931 -6.45827,-1.93769 -6.79867,-2.28529 -0.3404,-0.3476 -0.31138,-1.85729 0.0645,-3.35486 l 0.68339,-2.72286 7.61528,0.70801 c 8.59391,0.79901 10.44151,1.46696 7.28624,2.63417 -2.49909,0.92447 -2.8471,2.67085 -0.69667,3.49605 1.26513,0.48548 1.27526,0.76479 0.0714,1.96862 -0.77158,0.77158 -1.54752,1.35935 -1.7243,1.30616 -0.17679,-0.0532 -3.10232,-0.84069 -6.50119,-1.75 z m -193.32175,-8.6069 c 1.37417,-0.7605 2.71114,-1.17009 2.97104,-0.91019 0.67276,0.67276 -2.18335,2.33701 -3.96953,2.31305 -0.86962,-0.0117 -0.45,-0.60122 0.99849,-1.40286 z m 204.00151,-10.62208 c -3.025,-1.63973 -4.6,-2.77029 -3.5,-2.51234 8.27135,1.9396 10.5,2.81547 10.5,4.12657 0,1.98086 -0.64002,1.83326 -7,-1.61423 z m 2.25,-4.63004 c -1.87819,-0.36176 -2.25,-1.08287 -2.25,-4.36382 0,-2.16175 0.3375,-3.93268 0.75,-3.9354 2.18469,-0.0144 10.25,3.56385 10.25,4.54751 0,1.61296 -3.37491,4.48452 -5.07874,4.32126 -0.78169,-0.0749 -2.43376,-0.3312 -3.67126,-0.56955 z"
         id="path3004"
         inkscape:connector-curvature="0" />
      <path
         style="fill:#c4c4c4"
         d="m 318.67276,486.93362 c 2.3e-4,-23.65 0.13103,-33.18206 0.29066,-21.18235 0.15964,11.99971 0.15944,31.34971 -4.3e-4,43 -0.15986,11.65029 -0.29047,1.83235 -0.29023,-21.81765 z m 168.37685,35.9979 c -0.18443,-3.57615 0.002,-6.50115 0.41467,-6.5 0.4125,10e-4 0.75,2.9271 0.75,6.5021 0,3.575 -0.1866,6.5 -0.41467,6.5 -0.22807,0 -0.56557,-2.92594 -0.75,-6.5021 z m -33.96289,1.7521 c -1.24387,-1.58606 -1.2085,-1.62143 0.37756,-0.37756 1.66575,1.30637 2.19548,2.12756 1.37244,2.12756 -0.20765,0 -0.99515,-0.7875 -1.75,-1.75 z m 28.12756,0.25 c 0.68469,-0.825 1.46989,-1.5 1.74489,-1.5 0.275,0 -0.0602,0.675 -0.74489,1.5 -0.68469,0.825 -1.46989,1.5 -1.74489,1.5 -0.275,0 0.0602,-0.675 0.74489,-1.5 z m -146.54801,-44.5 c 0,-20.075 0.13345,-28.2875 0.29656,-18.25 0.16311,10.0375 0.16311,26.4625 0,36.5 -0.16311,10.0375 -0.29656,1.825 -0.29656,-18.25 z m -74.16598,17.5 c 0.008,-2.75 0.20172,-3.75631 0.43157,-2.23625 0.22986,1.52006 0.22371,3.77006 -0.0136,5 -0.23736,1.22994 -0.42542,-0.0137 -0.41792,-2.76375 z m 131,0 c 0.008,-2.75 0.20172,-3.75631 0.43157,-2.23625 0.22986,1.52006 0.22371,3.77006 -0.0136,5 -0.23736,1.22994 -0.42542,-0.0137 -0.41792,-2.76375 z m 49.87188,1.5 c 0,-1.375 0.22698,-1.9375 0.50439,-1.25 0.27741,0.6875 0.27741,1.8125 0,2.5 -0.27741,0.6875 -0.50439,0.125 -0.50439,-1.25 z m 87.12812,-2.5 c 0.008,-2.75 0.20172,-3.75631 0.43157,-2.23625 0.22986,1.52006 0.22371,3.77006 -0.0136,5 -0.23736,1.22994 -0.42542,-0.0137 -0.41792,-2.76375 z m -218.05401,0.5 c 0,-1.925 0.2058,-2.7125 0.45733,-1.75 0.25152,0.9625 0.25152,2.5375 0,3.5 -0.25153,0.9625 -0.45733,0.175 -0.45733,-1.75 z m 176.16794,-16.5 c 0.001,-8.25 0.15629,-11.49193 0.34419,-7.20429 0.1879,4.28763 0.18676,11.03763 -0.003,15 -0.1893,3.96236 -0.34304,0.45429 -0.34164,-7.79571 z m 46.60006,-1 c 0.68469,-0.825 1.46989,-1.5 1.74489,-1.5 0.275,0 -0.0602,0.675 -0.74489,1.5 -0.68469,0.825 -1.46989,1.5 -1.74489,1.5 -0.275,0 0.0602,-0.675 0.74489,-1.5 z m -278.5,-6.5 c 0.99549,-1.1 2.03498,-2 2.30998,-2 0.275,0 -0.31449,0.9 -1.30998,2 -0.99549,1.1 -2.03498,2 -2.30998,2 -0.275,0 0.31449,-0.9 1.30998,-2 z m 39.90499,-0.25 -1.90499,-2.25 2.25,1.90499 c 2.11444,1.79022 2.70524,2.59501 1.90499,2.59501 -0.18976,0 -1.20226,-1.0125 -2.25,-2.25 z m 91.09501,0.25 c 0.99549,-1.1 2.03498,-2 2.30998,-2 0.275,0 -0.31449,0.9 -1.30998,2 -0.99549,1.1 -2.03498,2 -2.30998,2 -0.275,0 0.31449,-0.9 1.30998,-2 z m 39.90499,-0.25 -1.90499,-2.25 2.25,1.90499 c 1.2375,1.04774 2.25,2.06024 2.25,2.25 0,0.80025 -0.80479,0.20945 -2.59501,-1.90499 z m 124.46745,-5.5 c -1.24387,-1.58606 -1.2085,-1.62143 0.37756,-0.37756 1.66575,1.30637 2.19548,2.12756 1.37244,2.12756 -0.20765,0 -0.99515,-0.7875 -1.75,-1.75 z"
         id="path3002"
         inkscape:connector-curvature="0" />
      <path
         style="fill:#7e7e7e"
         d="m 500.66042,497.93362 c -4e-4,-17.6 0.13534,-24.94084 0.30164,-16.31297 0.1663,8.62786 0.16663,23.02786 7.3e-4,32 -0.1659,8.97213 -0.30197,1.91297 -0.30237,-15.68703 z m 69.01234,-11 c 2.3e-4,-23.65 0.13103,-33.18206 0.29066,-21.18235 0.15964,11.99971 0.15944,31.34971 -4.3e-4,43 -0.15986,11.65029 -0.29047,1.83235 -0.29023,-21.81765 z m -393.58604,34.75 c -1.24387,-1.58606 -1.2085,-1.62143 0.37756,-0.37756 0.9625,0.75485 1.75,1.54235 1.75,1.75 0,0.82304 -0.82119,0.29331 -2.12756,-1.37244 z m 357,-8 c -1.24387,-1.58606 -1.2085,-1.62143 0.37756,-0.37756 1.66575,1.30637 2.19548,2.12756 1.37244,2.12756 -0.20765,0 -0.99515,-0.7875 -1.75,-1.75 z m -84.44,-23.25 c 0,-13.475 0.14155,-18.9875 0.31456,-12.25 0.17301,6.7375 0.17301,17.7625 0,24.5 -0.17301,6.7375 -0.31456,1.225 -0.31456,-12.25 z m 32.56756,22.5 c 0.68469,-0.825 1.46989,-1.5 1.74489,-1.5 0.275,0 -0.0602,0.675 -0.74489,1.5 -0.68469,0.825 -1.46989,1.5 -1.74489,1.5 -0.275,0 0.0602,-0.675 0.74489,-1.5 z m -243.84211,-9.5 c 0,-1.375 0.22698,-1.9375 0.50439,-1.25 0.27741,0.6875 0.27741,1.8125 0,2.5 -0.27741,0.6875 -0.50439,0.125 -0.50439,-1.25 z m 8.12812,-5.5 c 0.007,-2.75 0.20172,-3.75631 0.43157,-2.23625 0.22986,1.52006 0.22371,3.77006 -0.0137,5 -0.23736,1.22994 -0.42542,-0.0137 -0.41792,-2.76375 z m 131,0 c 0.008,-2.75 0.20172,-3.75631 0.43157,-2.23625 0.22986,1.52006 0.22371,3.77006 -0.0136,5 -0.23736,1.22994 -0.42542,-0.0137 -0.41792,-2.76375 z m 65.87188,2.5 c 0,-1.375 0.22698,-1.9375 0.50439,-1.25 0.27741,0.6875 0.27741,1.8125 0,2.5 -0.27741,0.6875 -0.50439,0.125 -0.50439,-1.25 z m 71.15198,-3.5 c -0.006,-3.3 0.17648,-4.77056 0.40466,-3.26791 0.22817,1.50265 0.23276,4.20265 0.0102,6 -0.22256,1.79735 -0.40925,0.56791 -0.41486,-2.73209 z m -70.9898,-14.5 c 0,-3.575 0.1815,-5.0375 0.40333,-3.25 0.22182,1.7875 0.22182,4.7125 0,6.5 -0.22183,1.7875 -0.40333,0.325 -0.40333,-3.25 z m -263.44763,3.25 c -1.24387,-1.58606 -1.2085,-1.62143 0.37756,-0.37756 0.9625,0.75485 1.75,1.54235 1.75,1.75 0,0.82304 -0.82119,0.29331 -2.12756,-1.37244 z m 56.05187,-3 -2.42431,-2.75 2.75,2.42431 c 2.57029,2.26589 3.20859,3.07569 2.42431,3.07569 -0.17912,0 -1.41662,-1.2375 -2.75,-2.75 z m 271.43619,-7.25 c 0,-5.225 0.16854,-7.3625 0.37454,-4.75 0.206,2.6125 0.206,6.8875 0,9.5 -0.206,2.6125 -0.37454,0.475 -0.37454,-4.75 z m -207.48806,-6.75 c -1.24387,-1.58606 -1.2085,-1.62143 0.37756,-0.37756 0.9625,0.75485 1.75,1.54235 1.75,1.75 0,0.82304 -0.82119,0.29331 -2.12756,-1.37244 z m -119.87244,-16.75 c 0.68469,-0.825 1.46989,-1.5 1.74489,-1.5 0.275,0 -0.0602,0.675 -0.74489,1.5 -0.68469,0.825 -1.46989,1.5 -1.74489,1.5 -0.275,0 0.0602,-0.675 0.74489,-1.5 z"
         id="path3000"
         inkscape:connector-curvature="0" />
      <path
         style="fill:#000000"
         d="m 147.21428,480.93362 0,-157.5 218.5,0 218.5,0 0,157.5 0,157.5 -218.5,0 -218.5,0 0,-157.5 z m 241.64107,145.95823 c 3.4833,-1.94797 6.78904,-4.39338 7.3461,-5.43425 1.35333,-2.52873 1.27677,-3.30058 -0.23717,-2.39104 -0.84936,0.51028 -0.81011,0.20868 0.12244,-0.94098 2.13216,-2.62853 0.30456,-2.00021 -3.92442,1.34921 -2.11188,1.67264 -7.02222,4.12358 -10.91188,5.44654 -6.68694,2.27437 -7.43872,2.33306 -13.80412,1.07755 -5.28582,-1.04257 -9.71032,-3.08324 -20.59595,-9.49928 -7.62516,-4.4943 -14.02591,-8.00947 -14.2239,-7.81149 -0.19799,0.19799 2.77307,2.58423 6.60234,5.30275 3.82927,2.71852 6.96753,5.27111 6.9739,5.67244 0.0341,2.14418 16.6917,8.29769 26.01159,9.60895 9.91119,1.39445 9.88408,1.39833 16.64107,-2.3804 z m -7.64573,-7.3092 3.04368,-1.85098 -8.55977,-0.65795 c -7.79017,-0.5988 -9.51621,-1.15064 -19.19748,-6.13773 -5.85073,-3.01388 -10.77548,-5.342 -10.94388,-5.1736 -0.50424,0.50425 10.39965,9.81748 13.38999,11.43666 2.73282,1.47974 12.65923,3.88302 16.99795,4.11537 1.22421,0.0656 3.59549,-0.71374 5.26951,-1.73177 z m 31.23429,-0.62248 c 0.95129,-0.0839 2.03879,-0.46164 2.41667,-0.83951 0.37787,-0.37787 1.53343,-0.68704 2.56792,-0.68704 1.85166,0 22.78578,-20.07932 22.78578,-21.85537 0,-0.49486 0.74558,-1.51734 1.65685,-2.27219 2.67823,-2.2185 14.481,-16.64237 21.6788,-26.49313 6.32187,-8.65198 6.66435,-9.40573 6.66435,-14.66729 l 0,-5.5466 4.5,-1.71857 c 4.95289,-1.89153 5.56016,-3.59638 2.56136,-7.19078 -1.48612,-1.78127 -2.51553,-2.11524 -4.99279,-1.61978 -2.44159,0.48831 -2.99514,1.01971 -2.54374,2.44193 0.41424,1.30515 -0.22544,2.23272 -2.26829,3.28912 -3.09199,1.59893 -15.25447,4.96806 -15.83585,4.38669 -0.19693,-0.19693 2.10128,-1.68465 5.10713,-3.30605 5.10539,-2.7539 6.80868,-4.44798 4.47218,-4.44798 -0.55,0 -1,-0.60277 -1,-1.33948 0,-0.73672 -1.06304,-1.82384 -2.36231,-2.41583 -2.13993,-0.97502 -2.94012,-0.49336 -8.5,5.11639 -3.37573,3.406 -6.13769,6.4535 -6.13769,6.77221 0,0.31872 4.67365,0.81801 10.3859,1.10955 5.71224,0.29154 11.17936,0.97412 12.14915,1.51684 1.50201,0.84057 1.18556,1.17302 -2.1359,2.24387 -2.14453,0.6914 -4.34915,1.58346 -4.89915,1.98234 -2.1274,1.54289 -6.04165,1.87684 -10.58298,0.90289 -4.24397,-0.91017 -5.26092,-0.74821 -9.82548,1.56483 -2.80035,1.41905 -5.09154,2.9309 -5.09154,3.35969 0,0.42878 3.16528,1.32239 7.03397,1.98579 5.99147,1.02743 7.99763,0.96413 13.53604,-0.42707 3.57614,-0.8983 6.71525,-1.42009 6.97581,-1.15953 0.34584,0.34583 -2.4225,8.28769 -4.00147,11.47949 -0.0522,0.10558 -3.00858,0.66997 -6.56966,1.25419 -6.18875,1.0153 -6.54094,0.96266 -7.97469,-1.19198 -0.825,-1.2398 -3.83266,-4.58698 -6.68369,-7.43817 -2.85103,-2.85119 -5.94105,-6.33986 -6.86671,-7.7526 -1.6269,-2.48295 -1.58898,-2.69358 1.1369,-6.31601 1.55095,-2.06108 6.58189,-7.45576 11.17987,-11.98819 7.8402,-7.72845 8.27053,-8.36845 6.92166,-10.29423 -1.40603,-2.00739 -1.48456,-1.97502 -3.50129,1.44308 -1.24595,2.11173 -5.40971,5.72371 -10.51326,9.12006 l -8.45027,5.62354 -4.78293,-2.17888 c -6.51212,-2.96661 -9.79995,-2.21352 -18.3279,4.19806 -7.42377,5.58143 -8.67503,8.12365 -5.54095,11.25772 0.86428,0.86429 1.72414,1.57143 1.91079,1.57143 0.18665,0 1.31008,-2.00522 2.49651,-4.45605 1.18642,-2.45083 3.77827,-5.87943 5.75965,-7.61911 3.22966,-2.83568 4.07649,-3.10596 8.18207,-2.61147 2.51875,0.30337 6.07212,1.18397 7.89637,1.95688 l 3.31682,1.4053 -6.88899,6.10756 -6.889,6.10755 -7.0457,0.30467 c -5.58335,0.24143 -6.99981,0.616 -6.82458,1.80467 0.16245,1.10195 1.38788,1.4568 4.61788,1.3372 14.69389,-0.54408 22.68718,-0.4188 24.7827,0.38842 l 2.38596,0.91911 -3.13596,1.29896 c -2.23743,0.92677 -3.13595,1.96224 -3.13595,3.61392 l 0,2.31497 -6.75,-1.87111 c -3.7125,-1.02911 -7.65,-2.16326 -8.75,-2.52032 -1.1,-0.35707 -0.3125,0.37705 1.75,1.63137 3.60729,2.19381 3.75,2.49132 3.75,7.81803 0,6.61396 -7.54615,27.78423 -12.76785,35.81945 -0.8042,1.2375 -1.07292,2.23978 -0.59716,2.22729 0.47576,-0.0125 1.57191,-1.47499 2.4359,-3.25 1.15057,-2.36378 2.75596,-3.63226 6,-4.74083 2.43601,-0.83245 4.96052,-1.85229 5.61001,-2.26632 0.6495,-0.41402 1.43389,-0.34343 1.74309,0.15687 0.3092,0.50031 -0.48541,1.17257 -1.76582,1.49394 -1.85035,0.4644 -2.59982,1.71735 -3.6528,6.10667 -0.72864,3.03731 -1.84192,5.52238 -2.47396,5.52238 -0.63203,0 -2.02266,0.6962 -3.09028,1.54712 -1.82019,1.45072 -1.72306,1.50303 1.55887,0.83952 1.925,-0.38919 4.27833,-0.77622 5.22963,-0.86009 z m 10.77037,-17.838 c 0,-0.83899 -1.52441,-2.46757 -3.38758,-3.61907 -5.24091,-3.23906 -5.70531,-4.16756 -3.92405,-7.84547 0.85879,-1.77321 2.29273,-3.21592 3.18653,-3.20604 0.89381,0.01 3.11955,2.30293 4.94609,5.09567 3.92123,5.99545 5.15864,5.74 2.74972,-0.56765 -0.94491,-2.47423 -1.43332,-4.95927 -1.08535,-5.5223 0.34797,-0.56303 2.40612,-1.02369 4.57366,-1.02369 l 3.94098,0 0,-4.5 c 0,-4.55771 1.73863,-6.21547 2.69263,-2.56739 0.27796,1.06294 2.26083,3.14914 4.40638,4.636 2.14554,1.48687 3.90099,2.99358 3.90099,3.34825 0,0.35467 -2.54172,3.66909 -5.64826,7.36538 -4.32344,5.14419 -6.56637,6.96774 -9.56255,7.77452 -2.15285,0.57971 -4.56114,1.30223 -5.35174,1.60561 -0.86279,0.33109 -1.43745,-0.0582 -1.43745,-0.97382 z m -38.7578,12.1387 c 4.48741,-2.17195 3.16995,-2.92518 -3.85716,-2.20523 l -6.61495,0.67772 0.74164,-2.39987 c 2.52514,-8.17109 4.28483,-9.06926 12.76709,-6.51647 3.99876,1.20345 4.67025,1.19171 5.16218,-0.0902 0.7223,-1.8823 -0.14799,-3.29316 -2.0314,-3.29316 -0.8098,0 -1.73139,-0.675 -2.04797,-1.5 -1.27806,-3.33061 -15.36163,0.24978 -15.36163,3.90527 0,0.75057 -1.15294,2.12011 -2.56209,3.04341 -1.40915,0.92331 -2.38818,2.20047 -2.17562,2.83814 0.5165,1.54951 10.96831,7.7452 12.23771,7.25434 0.55,-0.21268 2.23399,-0.98396 3.7422,-1.71395 z m 7.1848,-5.34872 c 1.05985,-0.80183 1.60985,-1.77501 1.22222,-2.16264 -0.38763,-0.38763 -1.69228,0.28272 -2.89922,1.48967 -2.45739,2.45739 -1.2971,2.92301 1.677,0.67297 z m -39.59748,-9.43281 c -5.29752,-7.08578 -5.37956,-7.14386 -13.66363,-9.67332 -4.58376,-1.39961 -9.92185,-3.20814 -11.86242,-4.01896 l -3.52831,-1.47423 2.9479,-2.1896 c 1.62135,-1.20429 3.64366,-2.89169 4.49403,-3.74978 0.85036,-0.8581 4.51307,-3.08193 8.13934,-4.94184 3.62628,-1.85991 6.43806,-3.53683 6.24841,-3.72648 -0.49433,-0.49433 -10.98583,3.73464 -11.59541,4.67394 -0.28019,0.43174 -1.63443,1.12653 -3.00943,1.54398 l -2.5,0.75899 2.5,-2.7323 c 2.19768,-2.40188 2.26825,-2.68899 0.58363,-2.37421 -1.054,0.19695 -3.33788,2.37732 -5.07528,4.84528 -2.57159,3.6529 -4.16751,4.80358 -8.58363,6.1889 -2.9836,0.93595 -6.89616,1.72922 -8.69459,1.76282 -1.79843,0.0336 -6.03851,1.18609 -9.42241,2.56109 -3.38389,1.375 -6.43935,2.5 -6.7899,2.5 -0.35055,0 -3.00971,-2.025 -5.90924,-4.5 -5.85315,-4.99615 -10.07769,-6.18722 -7.98042,-2.25 2.0871,3.91813 7.96903,7.42568 13.64211,8.13516 1.50135,0.18776 5.54223,1.49638 8.97973,2.90805 6.49438,2.66704 7.35862,2.58928 4.63775,-0.41724 -1.80001,-1.989 -2.44355,-1.67531 8.01473,-3.90676 11.88543,-2.53595 28.85912,3.54571 39.06424,13.99671 2.14683,2.19855 4.08085,3.81984 4.29782,3.60287 0.21698,-0.21697 -2.00378,-3.60236 -4.93502,-7.52307 z m 10.42048,-13.72284 c 5.74997,-4.66717 5.75,-4.66723 5.75,-10.22288 l 0,-5.55569 -3.25,3.93292 c -1.7875,2.1631 -3.7,4.68111 -4.25,5.59557 -0.55,0.91447 -1.74064,2.73468 -2.64587,4.04493 -2.02819,2.93564 -3.27489,6.88401 -2.17152,6.87731 0.44957,-0.003 3.40489,-2.10521 6.56739,-4.67216 z m 34.45057,-3.74299 c 0.056,-1.975 -0.63349,-4.20414 -1.63177,-5.27567 -0.9508,-1.02056 -2.5412,-3.09555 -3.53422,-4.6111 -3.2846,-5.01293 -2.69272,-2.0458 1.13501,5.68991 2.07294,4.18933 3.80612,7.61697 3.85151,7.61697 0.0454,0 0.12615,-1.53905 0.17947,-3.42011 z m 10.29943,1.56924 c 0,-1.42791 -9.99496,-14.14913 -11.11686,-14.14913 -1.59359,0 -0.83246,1.39323 4.61686,8.451 4.7099,6.10011 6.5,7.66937 6.5,5.69813 z m -57.97825,-2.89913 c 2.47233,-2.70308 3.02531,-7.76569 0.76597,-7.01257 -1.24866,0.41622 -5.09514,9.76257 -4.01777,9.76257 0.4051,0 1.86841,-1.2375 3.2518,-2.75 z m -66.73191,-4.45261 4.21016,-2.20261 -6.22017,-1.04739 -6.22017,-1.04739 3.22017,-3.75026 c 2.86717,-3.33914 4.0656,-3.90858 10.93237,-5.19458 7.20698,-1.34971 12.46244,-3.21385 11.57175,-4.10455 -0.21304,-0.21304 -3.15053,0.44928 -6.52774,1.47182 -3.37721,1.02253 -9.76645,2.18014 -14.1983,2.57244 -7.67002,0.67896 -8.05791,0.83023 -8.05791,3.14245 0,2.93295 4.61978,12.36268 6.05668,12.36268 0.56265,0 2.91757,-0.99118 5.23316,-2.20261 z m 32.04991,-0.92526 c 5.03814,-1.72034 9.53158,-3.46417 9.98543,-3.87519 0.45385,-0.41102 -1.19685,-1.05053 -3.66823,-1.42113 -2.47138,-0.37061 -5.03531,-1.32678 -5.69763,-2.12482 -0.66231,-0.79804 -1.76901,-1.45099 -2.45932,-1.45099 -0.69031,0 -1.84912,-0.71574 -2.57514,-1.59054 -1.05043,-1.26568 -2.45405,-1.45779 -6.87244,-0.94059 -8.04464,0.94168 -9.224,1.41518 -8.57985,3.44472 0.38581,1.21556 -0.22548,2.10843 -1.99572,2.915 -2.16007,0.9842 -2.38718,1.47045 -1.47918,3.16706 1.37252,2.56458 2.0436,2.52387 7.9796,-0.48413 3.38518,-1.7154 5.56222,-2.2475 7.0077,-1.71278 2.07317,0.76691 2.06814,0.80274 -0.44402,3.16279 -2.69964,2.53618 -3.23948,4.03847 -1.4512,4.03847 0.59937,0 5.21187,-1.40754 10.25,-3.12787 z m 34.71513,-11.58522 c 5.60602,-1.99108 6.7747,-4.41681 3.89297,-8.08034 -1.07132,-1.36196 -1.94785,-3.0906 -1.94785,-3.84143 0,-0.75083 -0.46114,-1.36514 -1.02475,-1.36514 -0.56361,0 -1.45554,-1.13307 -1.98207,-2.51793 -0.81954,-2.15557 -3.68471,-4.08305 -7.49318,-5.04088 -0.55,-0.13833 -3.16345,-0.84445 -5.80766,-1.56917 -4.23867,-1.16173 -5.1263,-1.11956 -7.5,0.35633 -1.48079,0.92069 -4.37984,2.60511 -6.44234,3.74315 -3.90124,2.1526 -4.62813,3.9583 -2.49869,6.20707 0.68823,0.72679 2.37573,3.0056 3.75,5.06404 2.03491,3.04794 3.79796,4.19335 9.49869,6.17105 8.50454,2.9504 11.31316,3.09011 17.55488,0.87325 z m -9.78767,-3.34139 c -6.05021,-1.19403 -10.32834,-3.57899 -13.72671,-7.65236 l -2.9595,-3.54733 2.94376,-2.34727 c 3.13174,-2.49716 5.38644,-2.49642 15.3361,0.005 3.99571,1.00458 4.51897,1.51504 6.24918,6.09638 3.34332,8.85258 2.64517,9.51535 -7.84283,7.44552 z m -68.566,-8.57296 c 3.18933,-0.89509 11.19879,-1.94489 17.79879,-2.3329 l 12,-0.70546 -14.85699,-0.1671 c -13.72183,-0.15433 -14.80194,-0.30081 -14.13655,-1.9171 0.39625,-0.9625 0.95154,-2.55534 1.23399,-3.53964 0.93586,-3.26136 6.85881,-4.84087 15.71636,-4.19116 4.42376,0.32448 10.06819,0.18847 12.54319,-0.30225 l 4.5,-0.89222 -6,-0.86047 c -7.02623,-1.00763 -9.63248,-0.97073 -34.75,0.49206 -0.78571,0.0458 -1.08365,16.04368 -0.29879,16.04368 0.24817,0 3.06067,-0.73235 6.25,-1.62744 z m 45.77458,-15.00164 c 1.80243,-0.69166 2.25018,-0.28942 -5.42204,-4.87092 -1.84206,-1.1 -4.74523,-3.13493 -6.45148,-4.52208 l -3.10227,-2.52207 -2.674,2.76003 c -3.05655,3.15488 -2.93696,3.31396 3.174,4.2223 2.475,0.36788 5.8238,0.9245 7.44177,1.23692 l 2.94177,0.56805 -2.69177,1.41036 c -1.48047,0.7757 -2.69177,1.62099 -2.69177,1.87843 0,0.69554 7.57924,0.56675 9.47579,-0.16102 z m -95.47044,-8.52577 c 7.35974,-3.38272 11.38723,-6.95893 14.0638,-12.488 2.99466,-6.18614 3.0724,-16.21183 0.16949,-21.85873 -4.31256,-8.38903 -9.61881,-11.42128 -27.85973,-15.9204 -12.68493,-3.12873 -17.03456,-5.35786 -18.00584,-9.22771 -1.60784,-6.40616 4.40811,-10.83323 14.62693,-10.76377 7.05616,0.048 10.38003,1.31033 13.53426,5.14014 2.03271,2.46807 2.0396,2.46888 9,1.05986 7.84898,-1.5889 8.31365,-2.46594 4.36197,-8.23303 -5.3761,-7.84591 -16.35269,-12.02736 -29.79795,-11.3513 -10.07992,0.50683 -16.01024,2.77642 -21.43854,8.20472 -5.30486,5.30486 -6.87847,9.72581 -6.47478,18.19046 0.27647,5.79692 0.89287,7.99406 3.36403,11.99107 3.91835,6.33779 9.98053,9.34539 25.95101,12.87495 6.6,1.45863 12.94347,3.26622 14.09659,4.01686 3.07117,1.99921 4.80372,6.81476 3.67659,10.21891 -3.64498,11.00852 -29.84657,10.63738 -35.19004,-0.49846 -1.49148,-3.10828 -1.81472,-3.26514 -5.58314,-2.70946 -2.2,0.3244 -5.68641,1.03863 -7.74759,1.58718 l -3.74758,0.99735 1.52852,3.65828 c 3.47535,8.31768 8.9761,12.99366 19.30302,16.40877 8.50028,2.81104 24.64679,2.15969 32.16898,-1.29769 z m 65.52101,0.7947 c 6.86813,-3.19826 12.9701,-9.6858 15.54637,-16.52868 2.87816,-7.64477 2.43684,-23.46895 -0.82907,-29.72764 -5.50071,-10.54137 -12.71508,-15.45745 -23.72033,-16.16373 -5.18125,-0.33251 -8.7137,0.0148 -12.31481,1.21094 -21.32154,7.08188 -26.87732,39.65854 -9.68313,56.77759 4.72678,4.70612 10.132,6.61557 18.97461,6.70295 5.34558,0.0528 8.18796,-0.48401 12.02636,-2.27143 z m -17.45773,-11.34332 c -4.71399,-2.46805 -7.4364,-8.17743 -7.91417,-16.59739 -0.70087,-12.35172 3.56259,-20.80503 11.21739,-22.24108 5.7993,-1.08795 10.64007,1.25063 13.62488,6.5822 2.15384,3.84724 2.49369,5.6958 2.47457,13.45974 -0.033,13.37627 -3.2625,18.69823 -12.1509,20.02346 -2.64494,0.39435 -4.87617,0.0168 -7.25177,-1.22693 z m 148.45773,11.34332 c 6.86813,-3.19826 12.9701,-9.6858 15.54637,-16.52868 2.87816,-7.64477 2.43684,-23.46895 -0.82907,-29.72764 -5.50071,-10.54137 -12.71508,-15.45745 -23.72033,-16.16373 -5.18125,-0.33251 -8.7137,0.0148 -12.31481,1.21094 -21.32154,7.08188 -26.87732,39.65854 -9.68313,56.77759 4.72678,4.70612 10.132,6.61557 18.97461,6.70295 5.34558,0.0528 8.18796,-0.48401 12.02636,-2.27143 z m -17.45773,-11.34332 c -4.71399,-2.46805 -7.4364,-8.17743 -7.91417,-16.59739 -0.70087,-12.35172 3.56259,-20.80503 11.21739,-22.24108 5.7993,-1.08795 10.64007,1.25063 13.62488,6.5822 2.15384,3.84724 2.49369,5.6958 2.47457,13.45974 -0.033,13.37627 -3.2625,18.69823 -12.1509,20.02346 -2.64494,0.39435 -4.87617,0.0168 -7.25177,-1.22693 z m 5.6594,-15.29653 c -0.14201,-0.825 -1.20541,1.0695 -2.36312,4.21 -1.42746,3.87225 -1.74445,5.83344 -0.98492,6.09354 1.16973,0.40056 3.79816,-7.6884 3.34804,-10.30354 z m -5.286,1.25 c 0.36553,-2.0625 0.89594,-4.5375 1.17868,-5.5 0.28273,-0.9625 0.10497,-1.75 -0.39503,-1.75 -0.95832,0 -3.22568,6.58348 -3.22568,9.36602 0,3.14484 1.78355,1.59939 2.44203,-2.11602 z m 76.61121,25.72284 c 2.18546,-1.11494 5.31754,-3.88246 6.96016,-6.15004 l 2.9866,-4.12288 0,5.65004 0,5.65004 7,0 7,0 0,-31.5 0,-31.5 -7.5,0 -7.5,0 -0.006,17.75 c -0.003,9.7625 -0.49499,19.55 -1.09317,21.75 -1.38423,5.091 -5.2863,9.23547 -10.03477,10.65815 -3.16305,0.94767 -4.20625,0.82752 -7.00457,-0.80679 -1.80841,-1.05617 -3.59729,-3.02979 -3.97528,-4.38583 -0.378,-1.35604 -0.73213,-12.02803 -0.78695,-23.71553 l -0.0993,-21.25 -7.5,0 -7.5,0 0.006,23.25 c 0.006,23.9981 0.6215,28.99909 4.18839,34.0174 4.65479,6.5489 16.75596,8.83944 24.85927,4.70544 z m 67.63166,0.96055 c 3.45026,-1.30727 6.97124,-4.45134 9.4444,-8.43339 l 1.86322,-3 0.004,5.75 0.004,5.75 7,0 7,0 0,-42.5 0,-42.5 -7.5,0 -7.5,0 -0.0111,14.25 -0.0111,14.25 -2.65594,-3.37082 c -3.34127,-4.23997 -7.80263,-6.12918 -14.47454,-6.12918 -14.57747,0 -24.0979,12.96738 -24.22804,33 -0.10133,15.59786 4.67986,26.49036 13.92671,31.72782 4.36889,2.47456 12.31408,3.03345 17.13839,1.20557 z m -7.1849,-12.84085 c -5.65652,-2.47139 -8.52051,-9.07304 -8.45611,-19.49176 0.0708,-11.44933 3.03293,-17.48094 9.65893,-19.66772 2.82233,-0.93145 4.2651,-0.83512 7.81876,0.52203 6.2313,2.37976 8.4858,7.34137 8.45646,18.61063 -0.034,13.04662 -3.78352,19.37609 -12.12227,20.46317 -1.84567,0.24061 -4.25577,0.0443 -5.35577,-0.43635 z m -166.5,6.40746 0,-6.5 -18,0 -18,0 0,-36 0,-36 -8.5,0 -8.5,0 0,42.5 0,42.5 26.5,0 26.5,0 0,-6.5 z m 66.36701,-2.69071 c 2.54814,-4.50489 4.63299,-9.05999 4.63299,-10.12245 0,-2.92902 -2.27972,-0.58799 -3.89514,3.9999 -0.73847,2.09729 -3.10374,6.17576 -5.25616,9.06326 -3.31744,4.45039 -3.6242,5.25 -2.01409,5.25 1.33418,0 3.27809,-2.43739 6.5324,-8.19071 z m -58.16701,3.99071 c -0.93333,-0.93333 -1.2,-0.66667 -1.2,1.2 0,1.86667 0.26667,2.13333 1.2,1.2 0.93333,-0.93333 0.93333,-1.46667 0,-2.4 z m 64.8,-0.8 c 0.5887,-1.1 0.71278,-2 0.27573,-2 -0.43705,0 -1.3567,0.9 -2.04366,2 -0.69188,1.10788 -0.81487,2 -0.27573,2 0.53531,0 1.45496,-0.9 2.04366,-2 z m -132,-0.88337 c 0,-0.48585 -0.7875,-1.1098 -1.75,-1.38655 -0.9625,-0.27674 -2.65,-0.80684 -3.75,-1.17798 -1.1,-0.37115 -0.425,0.23394 1.5,1.34463 4.12999,2.38293 4,2.34329 4,1.2199 z m -1,-8.11663 c -0.79314,-0.49019 -1.66708,-0.66625 -1.94208,-0.39125 -0.275,0.275 0.14894,0.90106 0.94208,1.39125 0.79314,0.49019 1.66708,0.66625 1.94208,0.39125 0.275,-0.275 -0.14894,-0.90106 -0.94208,-1.39125 z m 35.86792,-10.99131 c -2.21694,-3.84523 -4.44415,-7.24678 -4.94936,-7.55902 -1.27204,-0.78617 -1.15591,4.23831 0.15456,6.68695 0.74359,1.38941 0.75956,2.9046 0.052,4.93426 l -1.0211,2.92912 4.89733,0 4.89734,0 -4.03079,-6.99131 z m 10.09951,0.88375 c -2.22451,-7.34708 -3.44101,-8.87205 -2.70622,-3.39244 0.66819,4.98288 2.39057,9.5 3.62237,9.5 0.51319,0 0.10092,-2.7484 -0.91615,-6.10756 z m 11.39011,-0.0391 c 0.95429,-9.13015 0.77959,-17.85334 -0.35754,-17.85334 -0.60456,0 -1.01902,4.44873 -1.0481,11.25 l -0.0481,11.25 -2.82672,-5.5 c -1.5547,-3.025 -3.87163,-8.7625 -5.14873,-12.75 -1.27711,-3.9875 -2.68344,-7.25 -3.12518,-7.25 -1.14059,0 -1.03928,0.88476 1.1517,10.05805 1.07518,4.5016 2.61886,8.91843 3.4304,9.81517 0.81154,0.89674 1.94571,2.86712 2.52038,4.37861 0.6289,1.65416 1.79417,2.74817 2.92714,2.74817 1.56923,0 1.98915,-1.02233 2.52475,-6.14669 z m -56.35754,2.14666 c 0,-0.55 -0.47656,-1 -1.05902,-1 -0.58246,0 -0.7809,0.45 -0.44098,1 0.33992,0.55 0.81648,1 1.05902,1 0.24254,0 0.44098,-0.45 0.44098,-1 z m 130.09378,-8.30622 c -0.79171,-0.79171 -1.09378,-0.53223 -1.09378,0.93955 0,2.64375 1.39845,4.04704 1.84378,1.85016 0.18908,-0.93276 -0.14842,-2.18813 -0.75,-2.78971 z m -130.09378,-1.2528 c 0,-2.11803 -0.40488,-3.30878 -1,-2.94098 -0.55,0.33992 -1,1.94148 -1,3.55902 0,1.61754 0.45,2.94098 1,2.94098 0.55,0 1,-1.60156 1,-3.55902 z m -72.38499,-10.9058 c -2.10262,-3.209 -2.03684,-3.87875 0.32041,-3.26232 2.06224,0.53929 3.56175,-1.65941 2.40652,-3.52861 -0.36551,-0.5914 0.5904,-2.07594 2.12424,-3.29898 4.1935,-3.34378 2.52586,-4.83387 -4.57877,-4.09129 -5.14771,0.53804 -5.96146,0.37617 -6.89704,-1.37198 -1.10131,-2.05781 -5.99037,-2.82676 -5.99037,-0.94216 0,2.19872 4.4306,9.66162 8.37593,14.10841 4.45799,5.02462 6.8498,6.37139 4.23908,2.38693 z m 203.38499,-3.41018 c 0,-5.79377 -0.0437,-5.88374 -3.15972,-6.50694 -1.73785,-0.34757 -3.30217,-0.4895 -3.47627,-0.3154 -0.30349,0.30349 3.29593,10.33809 4.27862,11.92812 1.37924,2.23166 2.35737,0.11315 2.35737,-5.10578 z m 65.97436,-2.625 c 0.0209,-0.55 0.68618,-2.24265 1.47844,-3.76145 0.79226,-1.5188 2.55678,-6.08512 3.92116,-10.14738 1.36437,-4.06225 3.49196,-9.3446 4.72798,-11.73854 1.25167,-2.42429 2.76889,-8.11837 3.42465,-12.85263 0.64754,-4.675 2.36897,-11.64805 3.82538,-15.49567 1.73994,-4.59665 2.64803,-8.95701 2.64803,-12.71505 0,-3.14566 0.77729,-7.87261 1.72731,-10.50433 3.05702,-8.46846 2.16825,-31.80529 -1.69423,-44.48665 -0.54867,-1.80138 -0.44136,-2.83151 0.32202,-3.09125 0.71691,-0.24392 -0.66379,-4.02203 -3.69344,-10.10664 -6.85424,-13.76572 -8.33119,-14.16005 -24.44911,-6.52764 -21.19595,10.03703 -20.29431,9.46167 -24.95951,15.92723 -12.58725,17.44482 -19.86211,26.34933 -32.27092,39.5 -7.78459,8.25 -16.34163,18.20727 -19.01562,22.12728 -5.40039,7.91679 -11.35498,13.53789 -17.60987,16.6236 l -4.14337,2.04404 -3.47466,-2.14746 c -1.91107,-1.1811 -4.32155,-2.12713 -5.35663,-2.10227 -1.22568,0.0294 -0.46438,0.81406 2.1831,2.25 9.07401,4.92155 8.90824,4.62832 7.58179,13.41229 -0.6472,4.28589 -1.44747,9.03002 -1.77838,10.54252 -0.50553,2.31071 -0.26971,2.75 1.4762,2.75 1.61634,0 2.39348,-1.06288 3.49897,-4.78547 2.13009,-7.1728 6.84215,-18.66882 7.80746,-19.04786 0.46689,-0.18334 0.84889,-0.97084 0.84889,-1.75 0,-0.77917 0.41968,-1.41667 0.93261,-1.41667 0.51294,0 1.24959,-1.0125 1.637,-2.25 1.07647,-3.43853 5.6086,-9.52321 12.84855,-17.25 3.60743,-3.85 6.5641,-7.35125 6.5704,-7.78055 0.006,-0.4293 1.58644,-2.16342 3.51144,-3.85359 1.925,-1.69018 3.5,-3.62488 3.5,-4.29935 0,-0.67447 3.95085,-5.01536 8.77966,-9.64641 8.57596,-8.22474 14.22034,-14.85715 14.22034,-16.70958 0,-2.22545 7.62156,-10.56837 15.22957,-16.67099 9.95969,-7.98899 20.76431,-13.53953 26.35587,-13.53953 3.55027,0 4.62559,0.66408 10.12046,6.25 6.08391,6.18472 6.15236,6.31789 6.55293,12.75 0.22264,3.575 1.25157,11.08186 2.28652,16.68191 1.63831,8.86481 1.72822,11.2351 0.69505,18.32365 -0.65267,4.47796 -2.05013,10.6961 -3.10546,13.81809 -1.05534,3.12199 -2.68951,10.56433 -3.6315,16.53852 -0.94199,5.9742 -2.79063,13.29953 -4.10808,16.27852 -1.31745,2.97898 -2.39536,6.71904 -2.39536,8.31123 0,1.7684 -1.36196,4.67915 -3.5,7.48014 -1.925,2.52188 -3.5,4.97625 -3.5,5.45415 0,0.47789 -0.675,1.4291 -1.5,2.11379 -1.14209,0.94785 -1.5,3.52803 -1.5,10.81357 0,8.62813 0.14432,9.37788 1.4682,7.62756 0.8075,-1.06762 1.48528,-2.39113 1.50616,-2.94113 z m -196.97436,-0.10841 c 0,-3.43645 -0.13095,-3.57554 -2.74795,-2.91871 -3.5349,0.8872 -3.48065,0.79567 -2.30478,3.88843 0.62826,1.65245 1.76,2.63869 3.02798,2.63869 1.65892,0 2.02475,-0.65196 2.02475,-3.60841 z m -2.81772,-10.50884 c 1.70243,-0.89118 3.40652,-4.62728 2.51651,-5.51729 -0.45618,-0.45618 -11.25933,2.32995 -13.01393,3.35628 -0.44833,0.26225 -0.0257,1.34919 0.93927,2.41542 1.78467,1.97204 5.49351,1.87332 9.55815,-0.25441 z m -12.00666,-4.70304 c 1.41896,-0.57559 1.47511,-0.95262 0.36659,-2.46139 -1.10923,-1.50975 -1.70573,-1.60094 -3.90813,-0.59746 -2.3993,1.0932 -2.46592,1.28537 -0.86659,2.49988 1.9529,1.48302 2.08797,1.50014 4.40813,0.55897 z m 146.80192,-1.13774 c 0.92784,-1.73369 0.61678,-2.06532 -2.71482,-2.89446 -9.92324,-2.46961 -10.01416,-2.42879 -4.11268,1.84622 4.89152,3.5434 5.44653,3.62861 6.8275,1.04824 z m 8.85425,-3.05402 3.66821,-0.012 -4,-2.29103 c -2.2,-1.26007 -6.90254,-4.40465 -10.45008,-6.98796 -6.52418,-4.75087 -9.07203,-5.72419 -9.02302,-3.44692 0.0697,3.23715 12.26854,14.23434 14.73841,13.28657 0.76904,-0.29512 3.04896,-0.54199 5.06648,-0.54862 z m -156.33179,-3.53 c 1.65,-0.71214 2.325,-1.31971 1.5,-1.35015 -0.825,-0.0304 -3.3,0.82888 -5.5,1.9096 -4.24366,2.08465 -1.1112,1.64653 4,-0.55945 z m 167.72434,-2.01337 c -1.22137,-0.85548 -4.359,-2.49438 -6.97251,-3.64201 -4.58782,-2.01457 -6.20425,-3.35223 -6.23652,-5.16098 -0.014,-0.7843 2.1406,-0.49117 7.48469,1.01829 1.3668,0.38606 1.6834,0.2363 1,-0.47301 -1.44313,-1.49785 -16.40941,-5.14246 -17.02525,-4.14601 -1.11344,1.80158 7.82568,8.52067 14.84357,11.15718 8.29771,3.11732 10.02103,3.42838 6.90602,1.24654 z m -167.22434,-4.60856 c 3.17187,-1.34035 3.61458,-1.72167 1.5,-1.29201 -1.65,0.33526 -4.8,1.46941 -7,2.52034 -4.88365,2.33288 -0.73469,1.40629 5.5,-1.22833 z m -3.41283,-3.82883 c 5.92817,-2.08292 11.77295,-4.9804 11.20072,-5.55263 -0.65256,-0.65257 -15.32188,5.09713 -17.90251,7.01695 -1.92595,1.43279 -2.00017,1.6348 -0.38538,1.04884 1.1,-0.39915 4.28923,-1.53007 7.08717,-2.51316 z m 182.33714,0.40549 c -2.86461,-3.05722 -5.36962,-4.18277 -21.92431,-9.85103 -6.875,-2.35397 -13.4,-4.63251 -14.5,-5.06343 -1.1,-0.43092 0.63619,1.30146 3.8582,3.84974 3.22202,2.54827 7.66908,5.12084 9.88236,5.71682 2.21328,0.59597 4.75209,1.5199 5.6418,2.05318 1.88451,1.12954 15.94764,5.63713 18.04195,5.7829 0.93759,0.0653 0.59587,-0.78501 -1,-2.48818 z m -189.36544,-2.88088 c 1.06762,-0.8075 1.46464,-1.4825 0.88226,-1.5 -0.58238,-0.0175 -1.93238,0.62889 -3,1.4364 -1.06762,0.8075 -1.46464,1.4825 -0.88226,1.5 0.58238,0.0175 1.93238,-0.62889 3,-1.4364 z m 5.05613,-6.54095 c 5.71175,-2.75503 10.385,-5.45503 10.385,-6 0,-1.28144 -0.11199,-1.27255 -7.35566,0.58365 -8.48453,2.17418 -20.64434,6.53427 -20.64434,7.40236 0,0.86575 3.95946,2.86098 5.865,2.95546 0.75075,0.0372 6.03825,-2.18644 11.75,-4.94147 z m -74.15003,0.25915 c -0.41195,-0.9625 -1.32191,-5.125 -2.02214,-9.25 -0.70023,-4.125 -2.05618,-10.5978 -3.01322,-14.38401 -1.66201,-6.57516 -1.65999,-7.03273 0.0451,-10.19895 1.08679,-2.01806 1.53561,-4.21517 1.1472,-5.61599 -1.42834,-5.1515 4.31492,-35.24509 8.51146,-44.59838 1.57662,-3.51401 2.86659,-6.96874 2.86659,-7.67717 0,-1.35615 5.13885,-2.90761 13.5,-4.07576 6.88022,-0.96125 8.83895,-2.11001 4.98587,-2.92411 -1.64223,-0.34698 -5.40197,-1.75359 -8.35498,-3.12581 -2.95302,-1.37221 -5.42954,-2.36103 -5.50338,-2.19737 -0.0738,0.16365 -1.05565,1.64755 -2.18177,3.29755 -6.4859,9.50312 -12.64278,26.10166 -14.83716,40 -0.86839,5.5 -2.09406,12.925 -2.72373,16.5 -2.1866,12.41463 -2.11802,14.25081 1.0327,27.64939 1.69535,7.20953 3.08245,13.98778 3.08245,15.06276 0,2.32327 0.81373,3.28785 2.77365,3.28785 0.99041,0 1.20636,-0.54665 0.69132,-1.75 z m 112.53503,-2.22695 c 0,-1.98458 0.75003,-3.46741 2.25,-4.44828 2.01736,-1.31922 3.43903,-1.21081 13.75,1.04843 14.39321,3.15371 19.42165,3.82427 21.70354,2.89428 1.67952,-0.68449 1.66627,-0.78568 -0.20354,-1.55453 -1.1,-0.45231 -3.35,-0.85589 -5,-0.89685 -1.65,-0.041 -5.21377,-1.19759 -7.91948,-2.57029 -2.70571,-1.37269 -6.08071,-2.50352 -7.5,-2.51295 -1.41929,-0.009 -5.95552,-0.90121 -10.08052,-1.98175 -4.40516,-1.15392 -8.8411,-1.7199 -10.75,-1.37157 -3.20665,0.58513 -3.25014,0.54154 -3.26076,-3.26825 -0.01,-3.51073 -0.62261,-4.39722 -6.75,-9.76439 -3.70658,-3.24671 -7.82106,-7.52171 -9.14328,-9.5 -1.32222,-1.9783 -4.72424,-6.0719 -7.56004,-9.0969 -4.67539,-4.98733 -13.53592,-17.06774 -13.53592,-18.45482 0,-0.31051 -2.98002,-4.36846 -6.62227,-9.01767 -4.89843,-6.25269 -7.54541,-8.75778 -10.16858,-9.6235 -3.70305,-1.22211 -9.63896,-4.37085 -12.20915,-6.4764 -0.825,-0.67586 -3.23672,-1.70087 -5.35937,-2.27781 l -3.85937,-1.04898 1.85937,2.1618 c 3.26394,3.79484 5.7107,5.60593 12.10567,8.96065 3.43547,1.8022 6.24797,3.57933 6.25,3.94918 0.002,0.36984 -1.62514,1.21001 -3.61594,1.86704 -2.41822,0.79808 -3.19984,1.45404 -2.35486,1.97627 0.92723,0.57306 0.759,0.93226 -0.63035,1.34587 -1.04233,0.3103 0.90415,0.33502 4.32552,0.0549 l 6.22068,-0.50924 5.76604,6.14147 c 3.17132,3.37781 9.94086,11.83616 15.04343,18.79634 5.10257,6.96017 12.4811,16.75197 16.39673,21.75955 3.91563,5.00758 8.29678,11.1299 9.73589,13.60516 6.3363,10.89841 7.71153,12.77516 9.36656,12.78245 1.27649,0.006 1.75,-0.79779 1.75,-2.96925 z m 50.5,-2.35007 c 4.37334,-0.47429 7.49166,-2.02623 12,-5.97217 4.40938,-3.85933 4.26357,-6.08362 -0.19242,-2.93541 -1.54417,1.09097 -6.07008,3.62072 -10.05758,5.62167 -3.9875,2.00094 -7.25,3.84329 -7.25,4.09412 0,0.25082 0.5625,0.24479 1.25,-0.0134 0.6875,-0.25819 2.6,-0.61585 4.25,-0.7948 z m 86.5,0.32702 c -0.825,-0.53316 -2.175,-0.96937 -3,-0.96937 -1.33333,0 -1.33333,0.1077 0,0.96937 0.825,0.53316 2.175,0.96937 3,0.96937 1.33333,0 1.33333,-0.1077 0,-0.96937 z m 5.5,-4.57013 c -6.26793,-1.7441 -8.11499,-1.7071 -3.5,0.0701 1.925,0.74131 4.625,1.34184 6,1.3345 1.49755,-0.008 0.4951,-0.57122 -2.5,-1.40463 z m -179.94113,-0.94521 c 1.82997,-1.42856 1.76934,-1.4781 -1.05887,-0.86505 -4.62797,1.00316 -6.54611,2.31308 -3.44113,2.34998 1.40738,0.0167 3.43238,-0.65149 4.5,-1.48493 z m -5.55887,-3.48466 c 3.025,-1.59811 5.05,-2.90564 4.5,-2.90564 -0.55,0 -3.475,1.30754 -6.5,2.90564 -3.025,1.5981 -5.05,2.90564 -4.5,2.90564 0.55,0 3.475,-1.30754 6.5,-2.90564 z m 184,-5 c 0,-0.55 -1.06219,-1 -2.36043,-1 -1.29823,0 -4.56073,-0.22947 -7.25,-0.50993 l -4.88957,-0.50993 4,1.40507 c 4.77455,1.67716 10.5,2.01239 10.5,0.61479 z m -181.25,-3.09453 c 2.3375,-0.67212 4.25,-1.60082 4.25,-2.06376 0,-1.53154 -3.43592,-0.78673 -8,1.73419 -4.54076,2.50803 -3.99346,2.55613 3.75,0.32957 z m 179.5,-1.56775 c -0.6875,-0.27741 -1.8125,-0.27741 -2.5,0 -0.6875,0.27741 -0.125,0.50439 1.25,0.50439 1.375,0 1.9375,-0.22698 1.25,-0.50439 z m 7.29573,-4.74059 c 1.20383,-1.20383 1.1937,-1.48314 -0.0714,-1.96862 -2.15043,-0.8252 -1.80242,-2.57158 0.69667,-3.49605 3.15527,-1.16721 1.30767,-1.83516 -7.28624,-2.63417 l -7.61528,-0.70801 -0.68339,2.72286 c -0.37587,1.49757 -0.40489,3.00726 -0.0645,3.35486 0.3404,0.3476 3.3998,1.37598 6.79867,2.28529 3.39887,0.90931 6.3244,1.69681 6.50119,1.75 0.17678,0.0532 0.95272,-0.53458 1.7243,-1.30616 z m -199.57469,-8.55807 c 2.44456,-1.54599 0.71243,-1.97861 -1.97255,-0.49267 -1.44849,0.80164 -1.86811,1.3912 -0.99849,1.40286 0.825,0.0111 2.16197,-0.39852 2.97104,-0.91019 z m 209.02896,-9.50052 c 0,-1.3111 -2.22865,-2.18697 -10.5,-4.12657 -1.1,-0.25795 0.475,0.87261 3.5,2.51234 6.35998,3.44749 7,3.59509 7,1.61423 z m 2.17126,-7.19353 c 1.00581,-0.91024 1.82874,-2.17135 1.82874,-2.80245 0,-0.98366 -8.06531,-4.56191 -10.25,-4.54751 -0.4125,0.003 -0.75,1.77365 -0.75,3.9354 0,3.28095 0.37181,4.00206 2.25,4.36382 4.24884,0.81836 5.09653,0.7021 6.92126,-0.94926 z"
         id="path2998"
         inkscape:connector-curvature="0" />
    </g>
  </g>
</svg>
